G04 Layer: BottomSilkLayer*
G04 EasyEDA v6.2.46, 2019-12-20T21:21:12+01:00*
G04 d37f97ebf7a94133afb56d0d7468e1fa,4a9c1d379d7447c5bd0ffc32acf6fcf4,10*
G04 Gerber Generator version 0.2*
G04 Scale: 100 percent, Rotated: No, Reflected: No *
G04 Dimensions in millimeters *
G04 leading zeros omitted , absolute positions ,3 integer and 3 decimal *
%FSLAX33Y33*%
%MOMM*%
G90*
G71D02*

%ADD10C,0.254000*%
%ADD25C,0.152400*%
%ADD26C,0.203200*%
%ADD27C,0.203200*%
%ADD28C,0.199898*%

%LPD*%
G54D10*
G01X40767Y19685D02*
G01X53766Y19685D01*
G01X53766Y25385D01*
G01X40767Y25385D01*
G01X40767Y19685D01*
G54D26*
G01X54229Y5969D02*
G01X54229Y889D01*
G01X59309Y889D01*
G01X59309Y5969D01*
G01X54229Y5969D01*
G54D27*
G01X53746Y825D02*
G01X20726Y825D01*
G01X20726Y18605D01*
G01X53746Y18605D01*
G01X53746Y825D01*
G54D10*
G01X63627Y10910D02*
G01X63627Y11926D01*
G01X64135Y11418D02*
G01X63119Y11418D01*
G54D28*
G01X69515Y19830D02*
G01X70835Y19830D01*
G01X70835Y17760D01*
G01X69515Y17760D01*
G01X68383Y19830D02*
G01X67063Y19830D01*
G01X67063Y17760D01*
G01X68383Y17760D01*
G01X69515Y24910D02*
G01X70835Y24910D01*
G01X70835Y22840D01*
G01X69515Y22840D01*
G01X68383Y24910D02*
G01X67063Y24910D01*
G01X67063Y22840D01*
G01X68383Y22840D01*
G01X63354Y5507D02*
G01X63354Y6827D01*
G01X65424Y6827D01*
G01X65424Y5507D01*
G01X63354Y4375D02*
G01X63354Y3055D01*
G01X65424Y3055D01*
G01X65424Y4375D01*
G01X69515Y22370D02*
G01X70835Y22370D01*
G01X70835Y20300D01*
G01X69515Y20300D01*
G01X68383Y22370D02*
G01X67063Y22370D01*
G01X67063Y20300D01*
G01X68383Y20300D01*
G01X17888Y13889D02*
G01X17888Y15209D01*
G01X19958Y15209D01*
G01X19958Y13889D01*
G01X17888Y12757D02*
G01X17888Y11437D01*
G01X19958Y11437D01*
G01X19958Y12757D01*
G54D10*
G01X26099Y19906D02*
G01X26099Y24705D01*
G01X25248Y24705D01*
G01X25248Y24405D01*
G01X22249Y24405D01*
G01X22249Y24705D01*
G01X21398Y24705D01*
G01X21398Y19906D01*
G01X26099Y19906D01*
G01X33338Y19906D02*
G01X33338Y24705D01*
G01X32487Y24705D01*
G01X32487Y24405D01*
G01X29488Y24405D01*
G01X29488Y24705D01*
G01X28637Y24705D01*
G01X28637Y19906D01*
G01X33338Y19906D01*
G54D28*
G01X56152Y7700D02*
G01X56152Y6380D01*
G01X54082Y6380D01*
G01X54082Y7700D01*
G01X56152Y8832D02*
G01X56152Y10152D01*
G01X54082Y10152D01*
G01X54082Y8832D01*
G54D25*
G01X52578Y21374D02*
G01X52578Y20596D01*
G01X52527Y20439D01*
G01X52423Y20335D01*
G01X52265Y20284D01*
G01X52161Y20284D01*
G01X52006Y20335D01*
G01X51902Y20439D01*
G01X51851Y20596D01*
G01X51851Y21374D01*
G01X51404Y21374D02*
G01X50833Y21374D01*
G01X51142Y20960D01*
G01X50987Y20960D01*
G01X50883Y20906D01*
G01X50833Y20855D01*
G01X50779Y20701D01*
G01X50779Y20596D01*
G01X50833Y20439D01*
G01X50937Y20335D01*
G01X51092Y20284D01*
G01X51247Y20284D01*
G01X51404Y20335D01*
G01X51455Y20388D01*
G01X51508Y20492D01*
G01X54610Y3975D02*
G01X54610Y2885D01*
G01X54610Y3975D02*
G01X54142Y3975D01*
G01X53987Y3924D01*
G01X53934Y3873D01*
G01X53883Y3769D01*
G01X53883Y3611D01*
G01X53934Y3507D01*
G01X53987Y3456D01*
G01X54142Y3403D01*
G01X54610Y3403D01*
G01X53487Y3716D02*
G01X53487Y3769D01*
G01X53436Y3873D01*
G01X53383Y3924D01*
G01X53279Y3975D01*
G01X53073Y3975D01*
G01X52969Y3924D01*
G01X52915Y3873D01*
G01X52865Y3769D01*
G01X52865Y3665D01*
G01X52915Y3561D01*
G01X53019Y3403D01*
G01X53540Y2885D01*
G01X52811Y2885D01*
G01X54000Y11046D02*
G01X55090Y11046D01*
G01X54000Y11046D02*
G01X54000Y10579D01*
G01X54051Y10424D01*
G01X54102Y10370D01*
G01X54206Y10320D01*
G01X54363Y10320D01*
G01X54467Y10370D01*
G01X54518Y10424D01*
G01X54571Y10579D01*
G01X54571Y11046D01*
G01X54206Y9977D02*
G01X54155Y9873D01*
G01X54000Y9715D01*
G01X55090Y9715D01*
G01X22191Y3954D02*
G01X22158Y4058D01*
G01X22087Y4127D01*
G01X21983Y4163D01*
G01X21950Y4163D01*
G01X21846Y4127D01*
G01X21777Y4058D01*
G01X21742Y3954D01*
G01X21742Y3919D01*
G01X21777Y3815D01*
G01X21846Y3746D01*
G01X21950Y3710D01*
G01X21983Y3710D01*
G01X22087Y3746D01*
G01X22158Y3815D01*
G01X22191Y3954D01*
G01X22191Y4127D01*
G01X22158Y4300D01*
G01X22087Y4404D01*
G01X21983Y4439D01*
G01X21915Y4439D01*
G01X21810Y4404D01*
G01X21777Y4335D01*
G01X24455Y3710D02*
G01X24350Y3746D01*
G01X24317Y3815D01*
G01X24317Y3886D01*
G01X24350Y3954D01*
G01X24422Y3987D01*
G01X24559Y4023D01*
G01X24663Y4058D01*
G01X24731Y4127D01*
G01X24767Y4196D01*
G01X24767Y4300D01*
G01X24731Y4368D01*
G01X24698Y4404D01*
G01X24594Y4439D01*
G01X24455Y4439D01*
G01X24350Y4404D01*
G01X24317Y4368D01*
G01X24282Y4300D01*
G01X24282Y4196D01*
G01X24317Y4127D01*
G01X24386Y4058D01*
G01X24490Y4023D01*
G01X24627Y3987D01*
G01X24698Y3954D01*
G01X24731Y3886D01*
G01X24731Y3815D01*
G01X24698Y3746D01*
G01X24594Y3710D01*
G01X24455Y3710D01*
G01X27307Y3710D02*
G01X26962Y4439D01*
G01X26822Y3710D02*
G01X27307Y3710D01*
G01X29778Y3815D02*
G01X29743Y3746D01*
G01X29639Y3710D01*
G01X29570Y3710D01*
G01X29466Y3746D01*
G01X29397Y3850D01*
G01X29362Y4023D01*
G01X29362Y4196D01*
G01X29397Y4335D01*
G01X29466Y4404D01*
G01X29570Y4439D01*
G01X29603Y4439D01*
G01X29707Y4404D01*
G01X29778Y4335D01*
G01X29811Y4231D01*
G01X29811Y4196D01*
G01X29778Y4091D01*
G01X29707Y4023D01*
G01X29603Y3987D01*
G01X29570Y3987D01*
G01X29466Y4023D01*
G01X29397Y4091D01*
G01X29362Y4196D01*
G01X32318Y3710D02*
G01X31970Y3710D01*
G01X31937Y4023D01*
G01X31970Y3987D01*
G01X32075Y3954D01*
G01X32179Y3954D01*
G01X32283Y3987D01*
G01X32351Y4058D01*
G01X32387Y4163D01*
G01X32387Y4231D01*
G01X32351Y4335D01*
G01X32283Y4404D01*
G01X32179Y4439D01*
G01X32075Y4439D01*
G01X31970Y4404D01*
G01X31937Y4368D01*
G01X31902Y4300D01*
G01X34787Y3710D02*
G01X34442Y4196D01*
G01X34963Y4196D01*
G01X34787Y3710D02*
G01X34787Y4439D01*
G01X37050Y3710D02*
G01X37431Y3710D01*
G01X37223Y3987D01*
G01X37327Y3987D01*
G01X37398Y4023D01*
G01X37431Y4058D01*
G01X37467Y4163D01*
G01X37467Y4231D01*
G01X37431Y4335D01*
G01X37363Y4404D01*
G01X37259Y4439D01*
G01X37155Y4439D01*
G01X37050Y4404D01*
G01X37017Y4368D01*
G01X36982Y4300D01*
G01X39547Y3695D02*
G01X39547Y3670D01*
G01X39573Y3619D01*
G01X39598Y3594D01*
G01X39649Y3568D01*
G01X39751Y3568D01*
G01X39801Y3594D01*
G01X39827Y3619D01*
G01X39852Y3670D01*
G01X39852Y3721D01*
G01X39827Y3771D01*
G01X39776Y3848D01*
G01X39522Y4102D01*
G01X39878Y4102D01*
G01X41808Y3822D02*
G01X41783Y3771D01*
G01X41732Y3721D01*
G01X41681Y3695D01*
G01X41579Y3695D01*
G01X41529Y3721D01*
G01X41478Y3771D01*
G01X41452Y3822D01*
G01X41427Y3898D01*
G01X41427Y4025D01*
G01X41452Y4102D01*
G01X41478Y4152D01*
G01X41529Y4203D01*
G01X41579Y4229D01*
G01X41681Y4229D01*
G01X41732Y4203D01*
G01X41783Y4152D01*
G01X41808Y4102D01*
G01X41808Y4025D01*
G01X41681Y4025D02*
G01X41808Y4025D01*
G01X41976Y3695D02*
G01X41976Y4229D01*
G01X41976Y3695D02*
G01X42331Y4229D01*
G01X42331Y3695D02*
G01X42331Y4229D01*
G01X42499Y3695D02*
G01X42499Y4229D01*
G01X42499Y3695D02*
G01X42677Y3695D01*
G01X42753Y3721D01*
G01X42804Y3771D01*
G01X42829Y3822D01*
G01X42854Y3898D01*
G01X42854Y4025D01*
G01X42829Y4102D01*
G01X42804Y4152D01*
G01X42753Y4203D01*
G01X42677Y4229D01*
G01X42499Y4229D01*
G01X44348Y3822D02*
G01X44323Y3771D01*
G01X44272Y3721D01*
G01X44221Y3695D01*
G01X44119Y3695D01*
G01X44069Y3721D01*
G01X44018Y3771D01*
G01X43992Y3822D01*
G01X43967Y3898D01*
G01X43967Y4025D01*
G01X43992Y4102D01*
G01X44018Y4152D01*
G01X44069Y4203D01*
G01X44119Y4229D01*
G01X44221Y4229D01*
G01X44272Y4203D01*
G01X44323Y4152D01*
G01X44348Y4102D01*
G01X44348Y4025D01*
G01X44221Y4025D02*
G01X44348Y4025D01*
G01X44516Y3695D02*
G01X44516Y4229D01*
G01X44516Y3695D02*
G01X44871Y4229D01*
G01X44871Y3695D02*
G01X44871Y4229D01*
G01X45039Y3695D02*
G01X45039Y4229D01*
G01X45039Y3695D02*
G01X45217Y3695D01*
G01X45293Y3721D01*
G01X45344Y3771D01*
G01X45369Y3822D01*
G01X45394Y3898D01*
G01X45394Y4025D01*
G01X45369Y4102D01*
G01X45344Y4152D01*
G01X45293Y4203D01*
G01X45217Y4229D01*
G01X45039Y4229D01*
G01X46761Y3568D02*
G01X46761Y4102D01*
G01X46761Y3568D02*
G01X46990Y3568D01*
G01X47066Y3594D01*
G01X47091Y3619D01*
G01X47117Y3670D01*
G01X47117Y3721D01*
G01X47091Y3771D01*
G01X47066Y3797D01*
G01X46990Y3822D01*
G01X46761Y3822D01*
G01X46939Y3822D02*
G01X47117Y4102D01*
G01X47284Y3568D02*
G01X47640Y4102D01*
G01X47640Y3568D02*
G01X47284Y4102D01*
G01X47807Y3568D02*
G01X47807Y4102D01*
G01X49225Y3695D02*
G01X49225Y4229D01*
G01X49047Y3695D02*
G01X49403Y3695D01*
G01X49570Y3695D02*
G01X49926Y4229D01*
G01X49926Y3695D02*
G01X49570Y4229D01*
G01X50246Y3695D02*
G01X50195Y3721D01*
G01X50144Y3771D01*
G01X50119Y3822D01*
G01X50093Y3898D01*
G01X50093Y4025D01*
G01X50119Y4102D01*
G01X50144Y4152D01*
G01X50195Y4203D01*
G01X50246Y4229D01*
G01X50347Y4229D01*
G01X50398Y4203D01*
G01X50449Y4152D01*
G01X50474Y4102D01*
G01X50500Y4025D01*
G01X50500Y3898D01*
G01X50474Y3822D01*
G01X50449Y3771D01*
G01X50398Y3721D01*
G01X50347Y3695D01*
G01X50246Y3695D01*
G01X48920Y15252D02*
G01X48920Y15786D01*
G01X48920Y15252D02*
G01X49149Y15252D01*
G01X49225Y15278D01*
G01X49250Y15303D01*
G01X49276Y15354D01*
G01X49276Y15405D01*
G01X49250Y15455D01*
G01X49225Y15481D01*
G01X49149Y15506D01*
G01X48920Y15506D01*
G01X49098Y15506D02*
G01X49276Y15786D01*
G01X49646Y15252D02*
G01X49443Y15786D01*
G01X49646Y15252D02*
G01X49850Y15786D01*
G01X49519Y15608D02*
G01X49773Y15608D01*
G01X50017Y15252D02*
G01X50144Y15786D01*
G01X50271Y15252D02*
G01X50144Y15786D01*
G01X50271Y15252D02*
G01X50398Y15786D01*
G01X50525Y15252D02*
G01X50398Y15786D01*
G01X46761Y15379D02*
G01X46736Y15328D01*
G01X46685Y15278D01*
G01X46634Y15252D01*
G01X46532Y15252D01*
G01X46482Y15278D01*
G01X46431Y15328D01*
G01X46405Y15379D01*
G01X46380Y15455D01*
G01X46380Y15582D01*
G01X46405Y15659D01*
G01X46431Y15709D01*
G01X46482Y15760D01*
G01X46532Y15786D01*
G01X46634Y15786D01*
G01X46685Y15760D01*
G01X46736Y15709D01*
G01X46761Y15659D01*
G01X46761Y15582D01*
G01X46634Y15582D02*
G01X46761Y15582D01*
G01X46929Y15252D02*
G01X46929Y15786D01*
G01X46929Y15252D02*
G01X47284Y15786D01*
G01X47284Y15252D02*
G01X47284Y15786D01*
G01X47452Y15252D02*
G01X47452Y15786D01*
G01X47452Y15252D02*
G01X47630Y15252D01*
G01X47706Y15278D01*
G01X47757Y15328D01*
G01X47782Y15379D01*
G01X47807Y15455D01*
G01X47807Y15582D01*
G01X47782Y15659D01*
G01X47757Y15709D01*
G01X47706Y15760D01*
G01X47630Y15786D01*
G01X47452Y15786D01*
G01X43840Y15252D02*
G01X43840Y15786D01*
G01X43840Y15252D02*
G01X44069Y15252D01*
G01X44145Y15278D01*
G01X44170Y15303D01*
G01X44196Y15354D01*
G01X44196Y15405D01*
G01X44170Y15455D01*
G01X44145Y15481D01*
G01X44069Y15506D01*
G01X43840Y15506D01*
G01X44018Y15506D02*
G01X44196Y15786D01*
G01X44719Y15328D02*
G01X44668Y15278D01*
G01X44592Y15252D01*
G01X44490Y15252D01*
G01X44414Y15278D01*
G01X44363Y15328D01*
G01X44363Y15379D01*
G01X44389Y15430D01*
G01X44414Y15455D01*
G01X44465Y15481D01*
G01X44617Y15532D01*
G01X44668Y15557D01*
G01X44693Y15582D01*
G01X44719Y15633D01*
G01X44719Y15709D01*
G01X44668Y15760D01*
G01X44592Y15786D01*
G01X44490Y15786D01*
G01X44414Y15760D01*
G01X44363Y15709D01*
G01X45064Y15252D02*
G01X45064Y15786D01*
G01X44886Y15252D02*
G01X45242Y15252D01*
G01X41300Y15252D02*
G01X41503Y15786D01*
G01X41706Y15252D02*
G01X41503Y15786D01*
G01X42255Y15379D02*
G01X42230Y15328D01*
G01X42179Y15278D01*
G01X42128Y15252D01*
G01X42026Y15252D01*
G01X41976Y15278D01*
G01X41925Y15328D01*
G01X41899Y15379D01*
G01X41874Y15455D01*
G01X41874Y15582D01*
G01X41899Y15659D01*
G01X41925Y15709D01*
G01X41976Y15760D01*
G01X42026Y15786D01*
G01X42128Y15786D01*
G01X42179Y15760D01*
G01X42230Y15709D01*
G01X42255Y15659D01*
G01X42804Y15379D02*
G01X42778Y15328D01*
G01X42727Y15278D01*
G01X42677Y15252D01*
G01X42575Y15252D01*
G01X42524Y15278D01*
G01X42473Y15328D01*
G01X42448Y15379D01*
G01X42423Y15455D01*
G01X42423Y15582D01*
G01X42448Y15659D01*
G01X42473Y15709D01*
G01X42524Y15760D01*
G01X42575Y15786D01*
G01X42677Y15786D01*
G01X42727Y15760D01*
G01X42778Y15709D01*
G01X42804Y15659D01*
G01X39291Y15140D02*
G01X39014Y15869D01*
G01X39291Y15140D02*
G01X39568Y15869D01*
G01X39118Y15626D02*
G01X39463Y15626D01*
G01X39865Y15140D02*
G01X40246Y15140D01*
G01X40040Y15417D01*
G01X40144Y15417D01*
G01X40213Y15453D01*
G01X40246Y15488D01*
G01X40281Y15593D01*
G01X40281Y15661D01*
G01X40246Y15765D01*
G01X40177Y15834D01*
G01X40073Y15869D01*
G01X39969Y15869D01*
G01X39865Y15834D01*
G01X39832Y15798D01*
G01X39796Y15730D01*
G01X36751Y15140D02*
G01X36474Y15869D01*
G01X36751Y15140D02*
G01X37028Y15869D01*
G01X36578Y15626D02*
G01X36923Y15626D01*
G01X37292Y15316D02*
G01X37292Y15280D01*
G01X37325Y15212D01*
G01X37360Y15176D01*
G01X37429Y15140D01*
G01X37569Y15140D01*
G01X37637Y15176D01*
G01X37673Y15212D01*
G01X37706Y15280D01*
G01X37706Y15349D01*
G01X37673Y15417D01*
G01X37604Y15521D01*
G01X37256Y15869D01*
G01X37741Y15869D01*
G01X34211Y15140D02*
G01X33934Y15869D01*
G01X34211Y15140D02*
G01X34488Y15869D01*
G01X34038Y15626D02*
G01X34383Y15626D01*
G01X34716Y15280D02*
G01X34785Y15245D01*
G01X34889Y15140D01*
G01X34889Y15869D01*
G01X31671Y15140D02*
G01X31394Y15869D01*
G01X31671Y15140D02*
G01X31948Y15869D01*
G01X31498Y15626D02*
G01X31843Y15626D01*
G01X32385Y15140D02*
G01X32280Y15176D01*
G01X32212Y15280D01*
G01X32176Y15453D01*
G01X32176Y15557D01*
G01X32212Y15730D01*
G01X32280Y15834D01*
G01X32385Y15869D01*
G01X32453Y15869D01*
G01X32557Y15834D01*
G01X32626Y15730D01*
G01X32661Y15557D01*
G01X32661Y15453D01*
G01X32626Y15280D01*
G01X32557Y15176D01*
G01X32453Y15140D01*
G01X32385Y15140D01*
G01X28854Y15280D02*
G01X28922Y15245D01*
G01X29027Y15140D01*
G01X29027Y15869D01*
G01X29672Y15140D02*
G01X29324Y15140D01*
G01X29291Y15453D01*
G01X29324Y15417D01*
G01X29428Y15384D01*
G01X29532Y15384D01*
G01X29636Y15417D01*
G01X29705Y15488D01*
G01X29740Y15593D01*
G01X29740Y15661D01*
G01X29705Y15765D01*
G01X29636Y15834D01*
G01X29532Y15869D01*
G01X29428Y15869D01*
G01X29324Y15834D01*
G01X29291Y15798D01*
G01X29255Y15730D01*
G01X26314Y15280D02*
G01X26382Y15245D01*
G01X26487Y15140D01*
G01X26487Y15869D01*
G01X27063Y15140D02*
G01X26715Y15626D01*
G01X27236Y15626D01*
G01X27063Y15140D02*
G01X27063Y15869D01*
G01X23774Y15280D02*
G01X23842Y15245D01*
G01X23947Y15140D01*
G01X23947Y15869D01*
G01X24592Y15245D02*
G01X24556Y15176D01*
G01X24452Y15140D01*
G01X24384Y15140D01*
G01X24279Y15176D01*
G01X24211Y15280D01*
G01X24175Y15453D01*
G01X24175Y15626D01*
G01X24211Y15765D01*
G01X24279Y15834D01*
G01X24384Y15869D01*
G01X24419Y15869D01*
G01X24523Y15834D01*
G01X24592Y15765D01*
G01X24625Y15661D01*
G01X24625Y15626D01*
G01X24592Y15521D01*
G01X24523Y15453D01*
G01X24419Y15417D01*
G01X24384Y15417D01*
G01X24279Y15453D01*
G01X24211Y15521D01*
G01X24175Y15626D01*
G01X21234Y15280D02*
G01X21302Y15245D01*
G01X21407Y15140D01*
G01X21407Y15869D01*
G01X21844Y15140D02*
G01X21739Y15176D01*
G01X21671Y15280D01*
G01X21635Y15453D01*
G01X21635Y15557D01*
G01X21671Y15730D01*
G01X21739Y15834D01*
G01X21844Y15869D01*
G01X21912Y15869D01*
G01X22016Y15834D01*
G01X22085Y15730D01*
G01X22120Y15557D01*
G01X22120Y15453D01*
G01X22085Y15280D01*
G01X22016Y15176D01*
G01X21912Y15140D01*
G01X21844Y15140D01*
G01X58927Y16637D02*
G01X60017Y16637D01*
G01X58927Y16637D02*
G01X58927Y16169D01*
G01X58978Y16014D01*
G01X59029Y15961D01*
G01X59133Y15910D01*
G01X59237Y15910D01*
G01X59341Y15961D01*
G01X59395Y16014D01*
G01X59446Y16169D01*
G01X59446Y16637D02*
G01X59446Y16169D01*
G01X59499Y16014D01*
G01X59550Y15961D01*
G01X59654Y15910D01*
G01X59809Y15910D01*
G01X59913Y15961D01*
G01X59966Y16014D01*
G01X60017Y16169D01*
G01X60017Y16637D01*
G01X58927Y15567D02*
G01X59705Y15567D01*
G01X59862Y15514D01*
G01X59966Y15410D01*
G01X60017Y15255D01*
G01X60017Y15151D01*
G01X59966Y14996D01*
G01X59862Y14892D01*
G01X59705Y14838D01*
G01X58927Y14838D01*
G01X58927Y13769D02*
G01X60017Y14495D01*
G01X58927Y14495D02*
G01X58927Y13769D01*
G01X60017Y14495D02*
G01X60017Y13769D01*
G01X58927Y12700D02*
G01X60017Y13426D01*
G01X58927Y13426D02*
G01X58927Y12700D01*
G01X60017Y13426D02*
G01X60017Y12700D01*
G01X58927Y12357D02*
G01X60017Y12357D01*
G01X58927Y12357D02*
G01X58927Y11681D01*
G01X59446Y12357D02*
G01X59446Y11940D01*
G01X60017Y12357D02*
G01X60017Y11681D01*
G01X58927Y11338D02*
G01X60017Y11338D01*
G01X58927Y11338D02*
G01X58927Y10871D01*
G01X58978Y10713D01*
G01X59029Y10662D01*
G01X59133Y10609D01*
G01X59237Y10609D01*
G01X59341Y10662D01*
G01X59395Y10713D01*
G01X59446Y10871D01*
G01X59446Y11338D01*
G01X59446Y10972D02*
G01X60017Y10609D01*
G01X59133Y10266D02*
G01X59082Y10162D01*
G01X58927Y10007D01*
G01X60017Y10007D01*
G01X66695Y19303D02*
G01X66695Y18211D01*
G01X66695Y19303D02*
G01X66227Y19303D01*
G01X66073Y19253D01*
G01X66019Y19199D01*
G01X65968Y19095D01*
G01X65968Y18991D01*
G01X66019Y18887D01*
G01X66073Y18836D01*
G01X66227Y18783D01*
G01X66695Y18783D01*
G01X66332Y18783D02*
G01X65968Y18211D01*
G01X65521Y19303D02*
G01X64950Y19303D01*
G01X65260Y18887D01*
G01X65105Y18887D01*
G01X65001Y18836D01*
G01X64950Y18783D01*
G01X64897Y18628D01*
G01X64897Y18524D01*
G01X64950Y18369D01*
G01X65054Y18265D01*
G01X65209Y18211D01*
G01X65364Y18211D01*
G01X65521Y18265D01*
G01X65572Y18315D01*
G01X65626Y18420D01*
G01X66746Y24383D02*
G01X66746Y23291D01*
G01X66746Y24383D02*
G01X66278Y24383D01*
G01X66123Y24333D01*
G01X66070Y24279D01*
G01X66019Y24175D01*
G01X66019Y24071D01*
G01X66070Y23967D01*
G01X66123Y23916D01*
G01X66278Y23863D01*
G01X66746Y23863D01*
G01X66382Y23863D02*
G01X66019Y23291D01*
G01X65156Y24383D02*
G01X65676Y23657D01*
G01X64896Y23657D01*
G01X65156Y24383D02*
G01X65156Y23291D01*
G01X65677Y6497D02*
G01X66769Y6497D01*
G01X65677Y6497D02*
G01X65677Y6029D01*
G01X65727Y5874D01*
G01X65781Y5821D01*
G01X65885Y5770D01*
G01X65989Y5770D01*
G01X66093Y5821D01*
G01X66144Y5874D01*
G01X66197Y6029D01*
G01X66197Y6497D01*
G01X66197Y6133D02*
G01X66769Y5770D01*
G01X65677Y4802D02*
G01X65677Y5323D01*
G01X66144Y5374D01*
G01X66093Y5323D01*
G01X66040Y5166D01*
G01X66040Y5011D01*
G01X66093Y4856D01*
G01X66197Y4752D01*
G01X66352Y4698D01*
G01X66456Y4698D01*
G01X66611Y4752D01*
G01X66715Y4856D01*
G01X66769Y5011D01*
G01X66769Y5166D01*
G01X66715Y5323D01*
G01X66665Y5374D01*
G01X66560Y5427D01*
G01X66695Y21843D02*
G01X66695Y20751D01*
G01X66695Y21843D02*
G01X66227Y21843D01*
G01X66073Y21793D01*
G01X66019Y21739D01*
G01X65968Y21635D01*
G01X65968Y21531D01*
G01X66019Y21427D01*
G01X66073Y21376D01*
G01X66227Y21323D01*
G01X66695Y21323D01*
G01X66332Y21323D02*
G01X65968Y20751D01*
G01X65572Y21584D02*
G01X65572Y21635D01*
G01X65521Y21739D01*
G01X65468Y21793D01*
G01X65364Y21843D01*
G01X65158Y21843D01*
G01X65054Y21793D01*
G01X65001Y21739D01*
G01X64950Y21635D01*
G01X64950Y21531D01*
G01X65001Y21427D01*
G01X65105Y21272D01*
G01X65626Y20751D01*
G01X64897Y20751D01*
G01X16001Y14859D02*
G01X17094Y14859D01*
G01X16001Y14859D02*
G01X16001Y14391D01*
G01X16052Y14236D01*
G01X16106Y14183D01*
G01X16210Y14132D01*
G01X16314Y14132D01*
G01X16418Y14183D01*
G01X16469Y14236D01*
G01X16522Y14391D01*
G01X16522Y14859D01*
G01X16522Y14495D02*
G01X17094Y14132D01*
G01X16210Y13789D02*
G01X16156Y13685D01*
G01X16001Y13528D01*
G01X17094Y13528D01*
G01X27183Y22334D02*
G01X27078Y22387D01*
G01X26974Y22491D01*
G01X26924Y22593D01*
G01X26924Y22801D01*
G01X26974Y22905D01*
G01X27078Y23009D01*
G01X27183Y23063D01*
G01X27340Y23114D01*
G01X27599Y23114D01*
G01X27754Y23063D01*
G01X27858Y23009D01*
G01X27962Y22905D01*
G01X28016Y22801D01*
G01X28016Y22593D01*
G01X27962Y22491D01*
G01X27858Y22387D01*
G01X27754Y22334D01*
G01X26924Y21991D02*
G01X28016Y21991D01*
G01X26924Y21991D02*
G01X28016Y21264D01*
G01X26924Y21264D02*
G01X28016Y21264D01*
G01X27132Y20921D02*
G01X27078Y20817D01*
G01X26924Y20662D01*
G01X28016Y20662D01*
G01X34041Y22461D02*
G01X33936Y22514D01*
G01X33832Y22618D01*
G01X33782Y22720D01*
G01X33782Y22928D01*
G01X33832Y23032D01*
G01X33936Y23136D01*
G01X34041Y23190D01*
G01X34198Y23241D01*
G01X34457Y23241D01*
G01X34612Y23190D01*
G01X34716Y23136D01*
G01X34820Y23032D01*
G01X34874Y22928D01*
G01X34874Y22720D01*
G01X34820Y22618D01*
G01X34716Y22514D01*
G01X34612Y22461D01*
G01X33782Y22118D02*
G01X34874Y22118D01*
G01X33782Y22118D02*
G01X34874Y21391D01*
G01X33782Y21391D02*
G01X34874Y21391D01*
G01X34041Y20995D02*
G01X33990Y20995D01*
G01X33886Y20944D01*
G01X33832Y20891D01*
G01X33782Y20789D01*
G01X33782Y20581D01*
G01X33832Y20477D01*
G01X33886Y20424D01*
G01X33990Y20373D01*
G01X34094Y20373D01*
G01X34198Y20424D01*
G01X34353Y20528D01*
G01X34874Y21048D01*
G01X34874Y20320D01*
G01X53570Y7907D02*
G01X53675Y7853D01*
G01X53779Y7749D01*
G01X53829Y7648D01*
G01X53829Y7439D01*
G01X53779Y7335D01*
G01X53675Y7231D01*
G01X53570Y7178D01*
G01X53413Y7127D01*
G01X53154Y7127D01*
G01X52999Y7178D01*
G01X52895Y7231D01*
G01X52791Y7335D01*
G01X52737Y7439D01*
G01X52737Y7648D01*
G01X52791Y7749D01*
G01X52895Y7853D01*
G01X52999Y7907D01*
G01X53621Y8250D02*
G01X53675Y8354D01*
G01X53829Y8509D01*
G01X52737Y8509D01*
G54D26*
G01X58674Y1053D02*
G01X58674Y98D01*
G01X58674Y1053D02*
G01X58264Y1053D01*
G01X58128Y1007D01*
G01X58083Y962D01*
G01X58037Y871D01*
G01X58037Y780D01*
G01X58083Y689D01*
G01X58128Y644D01*
G01X58264Y598D01*
G01X58674Y598D01*
G01X58355Y598D02*
G01X58037Y98D01*
G01X57737Y1053D02*
G01X57101Y98D01*
G01X57101Y1053D02*
G01X57737Y98D01*
G01X55942Y1053D02*
G01X55942Y98D01*
G01X56261Y1053D02*
G01X55624Y1053D01*
G01X55324Y1053D02*
G01X54688Y98D01*
G01X54688Y1053D02*
G01X55324Y98D01*
G01X56611Y6350D02*
G01X56611Y5395D01*
G01X56611Y6350D02*
G01X56292Y6350D01*
G01X56156Y6304D01*
G01X56065Y6213D01*
G01X56020Y6122D01*
G01X55974Y5986D01*
G01X55974Y5759D01*
G01X56020Y5622D01*
G01X56065Y5531D01*
G01X56156Y5440D01*
G01X56292Y5395D01*
G01X56611Y5395D01*
G01X55356Y6350D02*
G01X55356Y5395D01*
G01X55674Y6350D02*
G01X55038Y6350D01*
G01X54738Y6350D02*
G01X54738Y5395D01*
G01X54738Y6350D02*
G01X54329Y6350D01*
G01X54192Y6304D01*
G01X54147Y6259D01*
G01X54102Y6168D01*
G01X54102Y6077D01*
G01X54147Y5986D01*
G01X54192Y5940D01*
G01X54329Y5895D01*
G01X54738Y5895D01*
G01X54420Y5895D02*
G01X54102Y5395D01*
G01X58895Y6630D02*
G01X58941Y6721D01*
G01X59032Y6812D01*
G01X59122Y6858D01*
G01X59304Y6858D01*
G01X59395Y6812D01*
G01X59486Y6721D01*
G01X59532Y6630D01*
G01X59577Y6494D01*
G01X59577Y6267D01*
G01X59532Y6130D01*
G01X59486Y6039D01*
G01X59395Y5948D01*
G01X59304Y5903D01*
G01X59122Y5903D01*
G01X59032Y5948D01*
G01X58941Y6039D01*
G01X58895Y6130D01*
G01X58895Y6267D01*
G01X59122Y6267D02*
G01X58895Y6267D01*
G01X58595Y6858D02*
G01X58595Y5903D01*
G01X58595Y6858D02*
G01X57959Y5903D01*
G01X57959Y6858D02*
G01X57959Y5903D01*
G01X57659Y6858D02*
G01X57659Y5903D01*
G01X57659Y6858D02*
G01X57341Y6858D01*
G01X57204Y6812D01*
G01X57113Y6721D01*
G01X57068Y6630D01*
G01X57023Y6494D01*
G01X57023Y6267D01*
G01X57068Y6130D01*
G01X57113Y6039D01*
G01X57204Y5948D01*
G01X57341Y5903D01*
G01X57659Y5903D01*
G54D10*
G75*
G01X59944Y4699D02*
G03X59944Y4699I-127J0D01*
G01*
G75*
G01X30582Y2223D02*
G03X30582Y2223I-1016J0D01*
G01*
G75*
G01X33122Y2223D02*
G03X33122Y2223I-1016J0D01*
G01*
G75*
G01X38202Y2223D02*
G03X38202Y2223I-1016J0D01*
G01*
G75*
G01X22962Y2223D02*
G03X22962Y2223I-1016J0D01*
G01*
G75*
G01X23012Y17336D02*
G03X23012Y17336I-1016J0D01*
G01*
G75*
G01X67848Y13461D02*
G03X67848Y13461I-5999J0D01*
G01*
M00*
M02*
