;Layer: Drill PTH
;EasyEDA v6.2.46, 2019-12-20T21:21:12+01:00
;d37f97ebf7a94133afb56d0d7468e1fa,4a9c1d379d7447c5bd0ffc32acf6fcf4,10
;Gerber Generator version 0.2
M48
METRIC,LZ,000.000
;Holesize 1 = 0.600 METRIC
T01C0.600
;Holesize 2 = 0.701 METRIC
T02C0.701
;Holesize 3 = 0.762 METRIC
T03C0.762
;Holesize 4 = 0.900 METRIC
T04C0.900
;Holesize 5 = 1.000 METRIC
T05C1.000
;Holesize 6 = 1.016 METRIC
T06C1.016
;Holesize 7 = 1.200 METRIC
T07C1.200
;Holesize 8 = 1.400 METRIC
T08C1.400
%
G05
G90
T01
X+040767Y+022985G85X+040767Y+022084
X+053766Y+022985G85X+053766Y+022084
T02
X+077006Y+021717
X+075706Y+021717
X+074407Y+021717
X+073107Y+021717
T03
X+022749Y+022606
X+024748Y+022606
X+029988Y+022606
X+031987Y+022606
T04
X+061849Y+010961
X+061849Y+015962
T05
X+060776Y+003164
X+060776Y+005163
X+060776Y+023164
X+060776Y+021163
X+001675Y+002159
X+001675Y+004158
X+001675Y+006158
X+001675Y+008159
X+001675Y+010159
X+001675Y+012159
X+001675Y+014159
X+001675Y+016159
X+001675Y+018158
X+001675Y+020159
X+001675Y+022159
X+001675Y+024159
X+044266Y+022535
X+047267Y+022535
X+050267Y+022535
X+058039Y+004699
X+055499Y+004699
X+058039Y+002159
X+055499Y+002159
T06
X+021945Y+002222
X+024485Y+002222
X+027025Y+002222
X+029565Y+002222
X+032105Y+002222
X+034645Y+002222
X+037185Y+002222
X+039725Y+002222
X+042265Y+002222
X+044805Y+002222
X+047345Y+002222
X+049885Y+002222
X+049936Y+017335
X+047396Y+017335
X+044856Y+017335
X+042316Y+017335
X+039776Y+017335
X+037236Y+017335
X+034696Y+017335
X+032156Y+017335
X+029616Y+017335
X+027076Y+017335
X+024536Y+017335
X+021996Y+017335
T07
X+072684Y+017028
X+077684Y+017028
X+072684Y+002529
X+075184Y+002529
X+077684Y+002529
T08
X+069483Y+009328G85X+069483Y+010728
X+080884Y+009328G85X+080884Y+010728
M30
