G04 Layer: TopSilkLayer*
G04 EasyEDA v6.2.46, 2019-12-20T21:21:12+01:00*
G04 d37f97ebf7a94133afb56d0d7468e1fa,4a9c1d379d7447c5bd0ffc32acf6fcf4,10*
G04 Gerber Generator version 0.2*
G04 Scale: 100 percent, Rotated: No, Reflected: No *
G04 Dimensions in millimeters *
G04 leading zeros omitted , absolute positions ,3 integer and 3 decimal *
%FSLAX33Y33*%
%MOMM*%
G90*
G71D02*

%ADD10C,0.254000*%
%ADD25C,0.152400*%

%LPD*%
G54D10*
G01X76454Y8758D02*
G01X73914Y8758D01*
G01X68934Y3328D02*
G01X68934Y7878D01*
G01X81434Y3328D02*
G01X81434Y7878D01*
G01X68934Y12178D02*
G01X68934Y16728D01*
G01X81434Y12178D02*
G01X81434Y16728D01*
G01X78884Y16728D02*
G01X81434Y16728D01*
G01X78584Y3328D02*
G01X81434Y3328D01*
G01X76103Y3328D02*
G01X76804Y3328D01*
G01X73583Y3328D02*
G01X74284Y3328D01*
G01X68934Y3328D02*
G01X71784Y3328D01*
G01X73909Y16728D02*
G01X76458Y16728D01*
G01X68934Y16728D02*
G01X71484Y16728D01*
G01X77276Y22857D02*
G01X77276Y20627D01*
G01X61976Y1524D02*
G01X475Y1524D01*
G01X475Y24793D01*
G01X61976Y24793D01*
G01X61976Y1524D01*
G54D25*
G01X78577Y15463D02*
G01X78473Y15567D01*
G01X78318Y15621D01*
G01X78110Y15621D01*
G01X77955Y15567D01*
G01X77851Y15463D01*
G01X77851Y15361D01*
G01X77901Y15257D01*
G01X77955Y15204D01*
G01X78059Y15153D01*
G01X78371Y15049D01*
G01X78473Y14996D01*
G01X78526Y14945D01*
G01X78577Y14841D01*
G01X78577Y14686D01*
G01X78473Y14582D01*
G01X78318Y14528D01*
G01X78110Y14528D01*
G01X77955Y14582D01*
G01X77851Y14686D01*
G01X78920Y15621D02*
G01X79181Y14528D01*
G01X79441Y15621D02*
G01X79181Y14528D01*
G01X79441Y15621D02*
G01X79700Y14528D01*
G01X79959Y15621D02*
G01X79700Y14528D01*
G01X80302Y15412D02*
G01X80406Y15463D01*
G01X80563Y15621D01*
G01X80563Y14528D01*
G01X78105Y20447D02*
G01X78105Y19357D01*
G01X78105Y19357D02*
G01X78727Y19357D01*
G01X79070Y20447D02*
G01X79070Y19357D01*
G01X79070Y20447D02*
G01X79745Y20447D01*
G01X79070Y19928D02*
G01X79486Y19928D01*
G01X79070Y19357D02*
G01X79745Y19357D01*
G01X80088Y20447D02*
G01X80088Y19357D01*
G01X80088Y20447D02*
G01X80454Y20447D01*
G01X80609Y20396D01*
G01X80713Y20292D01*
G01X80764Y20187D01*
G01X80817Y20032D01*
G01X80817Y19771D01*
G01X80764Y19616D01*
G01X80713Y19512D01*
G01X80609Y19408D01*
G01X80454Y19357D01*
G01X80088Y19357D01*
G01X81160Y20238D02*
G01X81264Y20292D01*
G01X81419Y20447D01*
G01X81419Y19357D01*
G01X15494Y23749D02*
G01X15494Y22971D01*
G01X15544Y22814D01*
G01X15648Y22710D01*
G01X15806Y22659D01*
G01X15910Y22659D01*
G01X16065Y22710D01*
G01X16169Y22814D01*
G01X16220Y22971D01*
G01X16220Y23749D01*
G01X16616Y23489D02*
G01X16616Y23543D01*
G01X16667Y23647D01*
G01X16720Y23698D01*
G01X16824Y23749D01*
G01X17030Y23749D01*
G01X17134Y23698D01*
G01X17188Y23647D01*
G01X17238Y23543D01*
G01X17238Y23439D01*
G01X17188Y23335D01*
G01X17084Y23177D01*
G01X16563Y22659D01*
G01X17292Y22659D01*
G54D10*
G75*
G01X76454Y8759D02*
G03X73914Y8759I-1270J1270D01*
G01*
G75*
G01X78184Y10029D02*
G03X78184Y10029I-3000J0D01*
G01*
G75*
G01X77557Y21717D02*
G03X77557Y21717I-2500J0D01*
G01*
G75*
G01X77957Y21717D02*
G03X77957Y21717I-2900J0D01*
G01*
M00*
M02*
