G04 Layer: BottomPasteMaskLayer*
G04 EasyEDA v6.2.46, 2019-12-20T21:21:12+01:00*
G04 d37f97ebf7a94133afb56d0d7468e1fa,4a9c1d379d7447c5bd0ffc32acf6fcf4,10*
G04 Gerber Generator version 0.2*
G04 Scale: 100 percent, Rotated: No, Reflected: No *
G04 Dimensions in millimeters *
G04 leading zeros omitted , absolute positions ,3 integer and 3 decimal *
%FSLAX33Y33*%
%MOMM*%
G90*
G71D02*


%LPD*%
G36*
G01X67364Y18071D02*
G01X68525Y18071D01*
G01X68525Y19520D01*
G01X67364Y19520D01*
G01X67364Y18071D01*
G37*
G36*
G01X69396Y18071D02*
G01X70557Y18071D01*
G01X70557Y19520D01*
G01X69396Y19520D01*
G01X69396Y18071D01*
G37*
G36*
G01X67364Y23151D02*
G01X68525Y23151D01*
G01X68525Y24600D01*
G01X67364Y24600D01*
G01X67364Y23151D01*
G37*
G36*
G01X69396Y23151D02*
G01X70557Y23151D01*
G01X70557Y24600D01*
G01X69396Y24600D01*
G01X69396Y23151D01*
G37*
G36*
G01X65113Y3356D02*
G01X65113Y4517D01*
G01X63664Y4517D01*
G01X63664Y3356D01*
G01X65113Y3356D01*
G37*
G36*
G01X65113Y5388D02*
G01X65113Y6549D01*
G01X63664Y6549D01*
G01X63664Y5388D01*
G01X65113Y5388D01*
G37*
G36*
G01X67364Y20611D02*
G01X68525Y20611D01*
G01X68525Y22060D01*
G01X67364Y22060D01*
G01X67364Y20611D01*
G37*
G36*
G01X69396Y20611D02*
G01X70557Y20611D01*
G01X70557Y22060D01*
G01X69396Y22060D01*
G01X69396Y20611D01*
G37*
G36*
G01X19647Y11738D02*
G01X19647Y12899D01*
G01X18198Y12899D01*
G01X18198Y11738D01*
G01X19647Y11738D01*
G37*
G36*
G01X19647Y13770D02*
G01X19647Y14931D01*
G01X18198Y14931D01*
G01X18198Y13770D01*
G01X19647Y13770D01*
G37*
G36*
G01X54393Y9851D02*
G01X54393Y8690D01*
G01X55842Y8690D01*
G01X55842Y9851D01*
G01X54393Y9851D01*
G37*
G36*
G01X54393Y7819D02*
G01X54393Y6658D01*
G01X55842Y6658D01*
G01X55842Y7819D01*
G01X54393Y7819D01*
G37*
M00*
M02*
