G04 Layer: BottomLayer*
G04 EasyEDA v6.2.46, 2019-12-20T21:21:12+01:00*
G04 d37f97ebf7a94133afb56d0d7468e1fa,4a9c1d379d7447c5bd0ffc32acf6fcf4,10*
G04 Gerber Generator version 0.2*
G04 Scale: 100 percent, Rotated: No, Reflected: No *
G04 Dimensions in millimeters *
G04 leading zeros omitted , absolute positions ,3 integer and 3 decimal *
%FSLAX33Y33*%
%MOMM*%
G90*
G71D02*

%ADD10C,0.254000*%
%ADD11C,1.799996*%
%ADD12R,0.999998X0.999998*%
%ADD13C,0.999998*%
%ADD16C,1.599997*%
%ADD17C,1.879600*%
%ADD18C,1.778000*%
%ADD19C,1.524000*%
%ADD20C,2.399995*%
%ADD21C,0.499999*%
%ADD22C,0.699999*%

%LPD*%
G36*
G01X82572Y26032D02*
G01X44872Y26032D01*
G01X44857Y26031D01*
G01X44843Y26028D01*
G01X44830Y26023D01*
G01X44817Y26016D01*
G01X44805Y26007D01*
G01X44795Y25997D01*
G01X44786Y25985D01*
G01X44779Y25973D01*
G01X44774Y25959D01*
G01X44771Y25945D01*
G01X44770Y25930D01*
G01X44771Y25914D01*
G01X44775Y25899D01*
G01X44781Y25884D01*
G01X44790Y25871D01*
G01X44800Y25859D01*
G01X46960Y23699D01*
G01X46972Y23688D01*
G01X46985Y23680D01*
G01X47000Y23674D01*
G01X47016Y23670D01*
G01X47032Y23669D01*
G01X47051Y23671D01*
G01X47104Y23680D01*
G01X47158Y23686D01*
G01X47212Y23690D01*
G01X47267Y23691D01*
G01X47316Y23690D01*
G01X47365Y23687D01*
G01X47414Y23682D01*
G01X47462Y23675D01*
G01X47510Y23665D01*
G01X47558Y23654D01*
G01X47605Y23640D01*
G01X47652Y23625D01*
G01X47698Y23608D01*
G01X47743Y23589D01*
G01X47787Y23567D01*
G01X47831Y23544D01*
G01X47873Y23519D01*
G01X47914Y23493D01*
G01X47954Y23464D01*
G01X47993Y23434D01*
G01X48031Y23403D01*
G01X48067Y23370D01*
G01X48102Y23335D01*
G01X48135Y23299D01*
G01X48166Y23261D01*
G01X48196Y23222D01*
G01X48225Y23182D01*
G01X48251Y23141D01*
G01X48276Y23099D01*
G01X48299Y23055D01*
G01X48320Y23011D01*
G01X48340Y22966D01*
G01X48357Y22920D01*
G01X48372Y22873D01*
G01X48386Y22826D01*
G01X48397Y22778D01*
G01X48407Y22730D01*
G01X48414Y22682D01*
G01X48419Y22633D01*
G01X48422Y22584D01*
G01X48423Y22535D01*
G01X48422Y22486D01*
G01X48419Y22437D01*
G01X48414Y22388D01*
G01X48407Y22339D01*
G01X48397Y22291D01*
G01X48386Y22243D01*
G01X48372Y22196D01*
G01X48357Y22149D01*
G01X48340Y22103D01*
G01X48320Y22058D01*
G01X48299Y22014D01*
G01X48276Y21971D01*
G01X48251Y21928D01*
G01X48225Y21887D01*
G01X48196Y21847D01*
G01X48166Y21808D01*
G01X48135Y21771D01*
G01X48102Y21734D01*
G01X48067Y21700D01*
G01X48031Y21666D01*
G01X47993Y21635D01*
G01X47954Y21605D01*
G01X47914Y21576D01*
G01X47873Y21550D01*
G01X47831Y21525D01*
G01X47787Y21502D01*
G01X47743Y21481D01*
G01X47698Y21461D01*
G01X47652Y21444D01*
G01X47605Y21429D01*
G01X47558Y21415D01*
G01X47510Y21404D01*
G01X47462Y21395D01*
G01X47414Y21387D01*
G01X47365Y21382D01*
G01X47316Y21379D01*
G01X47267Y21378D01*
G01X47218Y21379D01*
G01X47169Y21382D01*
G01X47120Y21387D01*
G01X47071Y21395D01*
G01X47023Y21404D01*
G01X46975Y21415D01*
G01X46928Y21429D01*
G01X46881Y21444D01*
G01X46835Y21461D01*
G01X46790Y21481D01*
G01X46746Y21502D01*
G01X46703Y21525D01*
G01X46660Y21550D01*
G01X46619Y21576D01*
G01X46579Y21605D01*
G01X46540Y21635D01*
G01X46503Y21666D01*
G01X46466Y21700D01*
G01X46432Y21734D01*
G01X46398Y21771D01*
G01X46367Y21808D01*
G01X46337Y21847D01*
G01X46308Y21887D01*
G01X46282Y21928D01*
G01X46257Y21971D01*
G01X46234Y22014D01*
G01X46213Y22058D01*
G01X46193Y22103D01*
G01X46176Y22149D01*
G01X46161Y22196D01*
G01X46147Y22243D01*
G01X46136Y22291D01*
G01X46127Y22339D01*
G01X46119Y22388D01*
G01X46114Y22437D01*
G01X46111Y22486D01*
G01X46110Y22535D01*
G01X46111Y22589D01*
G01X46115Y22643D01*
G01X46121Y22697D01*
G01X46130Y22750D01*
G01X46132Y22769D01*
G01X46131Y22785D01*
G01X46127Y22800D01*
G01X46121Y22815D01*
G01X46113Y22829D01*
G01X46102Y22841D01*
G01X44053Y24890D01*
G01X44041Y24901D01*
G01X44027Y24909D01*
G01X44012Y24915D01*
G01X43997Y24919D01*
G01X43981Y24920D01*
G01X42984Y24920D01*
G01X42970Y24919D01*
G01X42955Y24916D01*
G01X42942Y24911D01*
G01X42929Y24904D01*
G01X42918Y24895D01*
G01X42907Y24885D01*
G01X42899Y24873D01*
G01X42892Y24861D01*
G01X42887Y24847D01*
G01X42884Y24833D01*
G01X42883Y24818D01*
G01X42884Y24802D01*
G01X42887Y24787D01*
G01X42894Y24772D01*
G01X42902Y24759D01*
G01X42912Y24747D01*
G01X43960Y23699D01*
G01X43972Y23688D01*
G01X43986Y23680D01*
G01X44000Y23674D01*
G01X44016Y23670D01*
G01X44032Y23669D01*
G01X44051Y23671D01*
G01X44104Y23680D01*
G01X44158Y23686D01*
G01X44212Y23690D01*
G01X44267Y23691D01*
G01X44316Y23690D01*
G01X44365Y23687D01*
G01X44414Y23682D01*
G01X44462Y23675D01*
G01X44510Y23665D01*
G01X44558Y23654D01*
G01X44605Y23640D01*
G01X44652Y23625D01*
G01X44698Y23608D01*
G01X44743Y23589D01*
G01X44787Y23567D01*
G01X44831Y23544D01*
G01X44873Y23519D01*
G01X44914Y23493D01*
G01X44954Y23464D01*
G01X44993Y23434D01*
G01X45031Y23403D01*
G01X45067Y23370D01*
G01X45102Y23335D01*
G01X45135Y23299D01*
G01X45166Y23261D01*
G01X45196Y23222D01*
G01X45225Y23182D01*
G01X45251Y23141D01*
G01X45276Y23099D01*
G01X45299Y23055D01*
G01X45320Y23011D01*
G01X45340Y22966D01*
G01X45357Y22920D01*
G01X45372Y22873D01*
G01X45386Y22826D01*
G01X45397Y22778D01*
G01X45407Y22730D01*
G01X45414Y22682D01*
G01X45419Y22633D01*
G01X45422Y22584D01*
G01X45423Y22535D01*
G01X45422Y22486D01*
G01X45419Y22437D01*
G01X45414Y22388D01*
G01X45407Y22339D01*
G01X45397Y22291D01*
G01X45386Y22243D01*
G01X45372Y22196D01*
G01X45357Y22149D01*
G01X45340Y22103D01*
G01X45320Y22058D01*
G01X45299Y22014D01*
G01X45276Y21971D01*
G01X45251Y21928D01*
G01X45225Y21887D01*
G01X45196Y21847D01*
G01X45166Y21808D01*
G01X45135Y21771D01*
G01X45102Y21734D01*
G01X45067Y21700D01*
G01X45031Y21666D01*
G01X44993Y21635D01*
G01X44954Y21605D01*
G01X44914Y21576D01*
G01X44873Y21550D01*
G01X44831Y21525D01*
G01X44787Y21502D01*
G01X44743Y21481D01*
G01X44698Y21461D01*
G01X44652Y21444D01*
G01X44605Y21429D01*
G01X44558Y21415D01*
G01X44510Y21404D01*
G01X44462Y21395D01*
G01X44414Y21387D01*
G01X44365Y21382D01*
G01X44316Y21379D01*
G01X44267Y21378D01*
G01X44218Y21379D01*
G01X44169Y21382D01*
G01X44120Y21387D01*
G01X44071Y21395D01*
G01X44023Y21404D01*
G01X43975Y21415D01*
G01X43928Y21429D01*
G01X43881Y21444D01*
G01X43835Y21461D01*
G01X43790Y21481D01*
G01X43746Y21502D01*
G01X43703Y21525D01*
G01X43660Y21550D01*
G01X43619Y21576D01*
G01X43579Y21605D01*
G01X43540Y21635D01*
G01X43503Y21666D01*
G01X43466Y21700D01*
G01X43432Y21734D01*
G01X43398Y21771D01*
G01X43367Y21808D01*
G01X43337Y21847D01*
G01X43308Y21887D01*
G01X43282Y21928D01*
G01X43257Y21971D01*
G01X43234Y22014D01*
G01X43213Y22058D01*
G01X43193Y22103D01*
G01X43176Y22149D01*
G01X43161Y22196D01*
G01X43147Y22243D01*
G01X43136Y22291D01*
G01X43127Y22339D01*
G01X43119Y22388D01*
G01X43114Y22437D01*
G01X43111Y22486D01*
G01X43110Y22535D01*
G01X43111Y22589D01*
G01X43115Y22643D01*
G01X43121Y22697D01*
G01X43130Y22750D01*
G01X43132Y22769D01*
G01X43131Y22785D01*
G01X43127Y22800D01*
G01X43121Y22815D01*
G01X43113Y22829D01*
G01X43102Y22841D01*
G01X42069Y23874D01*
G01X42057Y23885D01*
G01X42043Y23893D01*
G01X42029Y23899D01*
G01X42013Y23903D01*
G01X41997Y23904D01*
G01X41833Y23904D01*
G01X41818Y23903D01*
G01X41804Y23900D01*
G01X41791Y23895D01*
G01X41778Y23888D01*
G01X41766Y23879D01*
G01X41756Y23869D01*
G01X41747Y23857D01*
G01X41740Y23845D01*
G01X41735Y23831D01*
G01X41732Y23817D01*
G01X41731Y23802D01*
G01X41733Y23786D01*
G01X41737Y23770D01*
G01X41743Y23755D01*
G01X41754Y23732D01*
G01X41762Y23709D01*
G01X41768Y23684D01*
G01X41772Y23659D01*
G01X41773Y23635D01*
G01X41773Y21435D01*
G01X41772Y21411D01*
G01X41769Y21387D01*
G01X41763Y21364D01*
G01X41756Y21342D01*
G01X41746Y21320D01*
G01X41735Y21299D01*
G01X41721Y21280D01*
G01X41706Y21262D01*
G01X41689Y21245D01*
G01X41671Y21230D01*
G01X41652Y21216D01*
G01X41631Y21205D01*
G01X41609Y21195D01*
G01X41587Y21188D01*
G01X41564Y21182D01*
G01X41540Y21179D01*
G01X41517Y21178D01*
G01X40016Y21178D01*
G01X39993Y21179D01*
G01X39969Y21182D01*
G01X39946Y21188D01*
G01X39924Y21195D01*
G01X39902Y21205D01*
G01X39881Y21216D01*
G01X39862Y21230D01*
G01X39844Y21245D01*
G01X39827Y21262D01*
G01X39812Y21280D01*
G01X39798Y21299D01*
G01X39787Y21320D01*
G01X39777Y21342D01*
G01X39770Y21364D01*
G01X39764Y21387D01*
G01X39761Y21411D01*
G01X39760Y21435D01*
G01X39760Y23635D01*
G01X39761Y23659D01*
G01X39765Y23684D01*
G01X39771Y23709D01*
G01X39779Y23732D01*
G01X39790Y23755D01*
G01X39796Y23770D01*
G01X39800Y23786D01*
G01X39802Y23802D01*
G01X39801Y23817D01*
G01X39798Y23831D01*
G01X39793Y23845D01*
G01X39786Y23857D01*
G01X39777Y23869D01*
G01X39767Y23879D01*
G01X39755Y23888D01*
G01X39742Y23895D01*
G01X39729Y23900D01*
G01X39715Y23903D01*
G01X39700Y23904D01*
G01X32195Y23904D01*
G01X32179Y23903D01*
G01X32164Y23899D01*
G01X32149Y23893D01*
G01X32136Y23885D01*
G01X32123Y23874D01*
G01X31573Y23324D01*
G01X31562Y23311D01*
G01X31554Y23298D01*
G01X31548Y23283D01*
G01X31544Y23268D01*
G01X31543Y23252D01*
G01X31543Y23050D01*
G01X31341Y23050D01*
G01X31325Y23049D01*
G01X31310Y23045D01*
G01X31295Y23039D01*
G01X31282Y23031D01*
G01X31269Y23020D01*
G01X31031Y22782D01*
G01X31021Y22770D01*
G01X31012Y22756D01*
G01X31006Y22741D01*
G01X31002Y22726D01*
G01X31001Y22710D01*
G01X31002Y22700D01*
G01X31005Y22653D01*
G01X31006Y22605D01*
G01X31005Y22553D01*
G01X31001Y22500D01*
G01X30994Y22448D01*
G01X30984Y22396D01*
G01X30972Y22344D01*
G01X30957Y22294D01*
G01X30953Y22278D01*
G01X30952Y22263D01*
G01X30954Y22246D01*
G01X30958Y22230D01*
G01X30964Y22215D01*
G01X30973Y22201D01*
G01X30957Y22198D01*
G01X30942Y22192D01*
G01X30928Y22183D01*
G01X30916Y22173D01*
G01X30905Y22160D01*
G01X30897Y22147D01*
G01X30874Y22103D01*
G01X30848Y22061D01*
G01X30821Y22020D01*
G01X30792Y21980D01*
G01X30760Y21942D01*
G01X30727Y21906D01*
G01X30693Y21871D01*
G01X30656Y21837D01*
G01X30618Y21806D01*
G01X30579Y21776D01*
G01X30567Y21766D01*
G01X30556Y21754D01*
G01X30548Y21740D01*
G01X30542Y21725D01*
G01X30538Y21710D01*
G01X30536Y21694D01*
G01X30537Y21679D01*
G01X30541Y21665D01*
G01X30546Y21651D01*
G01X30553Y21639D01*
G01X30561Y21627D01*
G01X30572Y21617D01*
G01X30583Y21608D01*
G01X30596Y21601D01*
G01X30609Y21596D01*
G01X30624Y21593D01*
G01X30638Y21592D01*
G01X31337Y21592D01*
G01X31351Y21593D01*
G01X31366Y21596D01*
G01X31379Y21601D01*
G01X31392Y21608D01*
G01X31403Y21617D01*
G01X31414Y21627D01*
G01X31422Y21639D01*
G01X31429Y21651D01*
G01X31434Y21665D01*
G01X31438Y21679D01*
G01X31439Y21694D01*
G01X31437Y21710D01*
G01X31433Y21725D01*
G01X31427Y21740D01*
G01X31419Y21754D01*
G01X31408Y21766D01*
G01X31396Y21776D01*
G01X31357Y21806D01*
G01X31319Y21837D01*
G01X31282Y21871D01*
G01X31248Y21906D01*
G01X31215Y21942D01*
G01X31183Y21980D01*
G01X31154Y22020D01*
G01X31127Y22061D01*
G01X31101Y22103D01*
G01X31078Y22147D01*
G01X31069Y22161D01*
G01X31543Y22161D01*
G01X31543Y21694D01*
G01X31544Y21679D01*
G01X31547Y21665D01*
G01X31552Y21651D01*
G01X31559Y21639D01*
G01X31568Y21627D01*
G01X31578Y21617D01*
G01X31590Y21608D01*
G01X31602Y21601D01*
G01X31616Y21596D01*
G01X31630Y21593D01*
G01X31645Y21592D01*
G01X32330Y21592D01*
G01X32345Y21593D01*
G01X32359Y21596D01*
G01X32373Y21601D01*
G01X32385Y21608D01*
G01X32397Y21617D01*
G01X32407Y21627D01*
G01X32416Y21639D01*
G01X32423Y21651D01*
G01X32428Y21665D01*
G01X32431Y21679D01*
G01X32432Y21694D01*
G01X32432Y22161D01*
G01X32904Y22161D01*
G01X32883Y22120D01*
G01X32860Y22080D01*
G01X32835Y22041D01*
G01X32809Y22003D01*
G01X32780Y21966D01*
G01X32751Y21931D01*
G01X32719Y21897D01*
G01X32686Y21864D01*
G01X32652Y21833D01*
G01X32616Y21804D01*
G01X32579Y21776D01*
G01X32567Y21766D01*
G01X32556Y21754D01*
G01X32548Y21740D01*
G01X32542Y21725D01*
G01X32538Y21710D01*
G01X32536Y21694D01*
G01X32537Y21679D01*
G01X32541Y21665D01*
G01X32546Y21651D01*
G01X32553Y21639D01*
G01X32561Y21627D01*
G01X32572Y21617D01*
G01X32583Y21608D01*
G01X32596Y21601D01*
G01X32609Y21596D01*
G01X32624Y21593D01*
G01X32638Y21592D01*
G01X33362Y21592D01*
G01X33392Y21591D01*
G01X33422Y21587D01*
G01X33452Y21581D01*
G01X33481Y21573D01*
G01X33509Y21563D01*
G01X33537Y21550D01*
G01X33563Y21536D01*
G01X33588Y21519D01*
G01X33611Y21500D01*
G01X33634Y21480D01*
G01X36656Y18457D01*
G01X36668Y18447D01*
G01X36682Y18439D01*
G01X36696Y18433D01*
G01X36712Y18429D01*
G01X36728Y18428D01*
G01X36748Y18430D01*
G01X36767Y18436D01*
G01X36817Y18456D01*
G01X36868Y18473D01*
G01X36919Y18489D01*
G01X36971Y18502D01*
G01X37023Y18512D01*
G01X37076Y18521D01*
G01X37129Y18527D01*
G01X37182Y18530D01*
G01X37236Y18531D01*
G01X37286Y18530D01*
G01X37336Y18527D01*
G01X37386Y18522D01*
G01X37436Y18514D01*
G01X37485Y18505D01*
G01X37534Y18494D01*
G01X37583Y18480D01*
G01X37630Y18464D01*
G01X37677Y18447D01*
G01X37724Y18427D01*
G01X37769Y18406D01*
G01X37814Y18383D01*
G01X37857Y18357D01*
G01X37900Y18330D01*
G01X37941Y18302D01*
G01X37981Y18271D01*
G01X38019Y18239D01*
G01X38031Y18230D01*
G01X38044Y18223D01*
G01X38057Y18218D01*
G01X38072Y18215D01*
G01X38086Y18214D01*
G01X38102Y18215D01*
G01X38118Y18219D01*
G01X38132Y18225D01*
G01X38146Y18234D01*
G01X38158Y18244D01*
G01X38169Y18257D01*
G01X38188Y18282D01*
G01X38209Y18305D01*
G01X38971Y19067D01*
G01X38993Y19087D01*
G01X39017Y19106D01*
G01X39042Y19123D01*
G01X39068Y19137D01*
G01X39096Y19150D01*
G01X39124Y19160D01*
G01X39153Y19168D01*
G01X39183Y19174D01*
G01X39212Y19178D01*
G01X39243Y19179D01*
G01X47879Y19179D01*
G01X47909Y19178D01*
G01X47938Y19174D01*
G01X47968Y19168D01*
G01X47997Y19160D01*
G01X48025Y19150D01*
G01X48053Y19137D01*
G01X48079Y19123D01*
G01X48104Y19106D01*
G01X48128Y19087D01*
G01X48150Y19067D01*
G01X48912Y18305D01*
G01X48932Y18283D01*
G01X48951Y18259D01*
G01X48967Y18234D01*
G01X48976Y18222D01*
G01X48986Y18211D01*
G01X48998Y18202D01*
G01X49011Y18195D01*
G01X49025Y18190D01*
G01X49039Y18187D01*
G01X49054Y18186D01*
G01X49069Y18187D01*
G01X49084Y18190D01*
G01X49098Y18196D01*
G01X49111Y18203D01*
G01X49123Y18213D01*
G01X49163Y18249D01*
G01X49206Y18283D01*
G01X49249Y18315D01*
G01X49294Y18345D01*
G01X49340Y18373D01*
G01X49388Y18398D01*
G01X49436Y18422D01*
G01X49486Y18444D01*
G01X49537Y18463D01*
G01X49588Y18480D01*
G01X49601Y18485D01*
G01X49614Y18492D01*
G01X49625Y18500D01*
G01X49636Y18511D01*
G01X49644Y18522D01*
G01X49651Y18535D01*
G01X49656Y18548D01*
G01X49659Y18562D01*
G01X49660Y18577D01*
G01X49660Y21495D01*
G01X49659Y21511D01*
G01X49655Y21527D01*
G01X49648Y21542D01*
G01X49639Y21556D01*
G01X49628Y21568D01*
G01X49616Y21579D01*
G01X49576Y21607D01*
G01X49537Y21637D01*
G01X49500Y21669D01*
G01X49464Y21702D01*
G01X49429Y21737D01*
G01X49396Y21773D01*
G01X49365Y21810D01*
G01X49335Y21849D01*
G01X49307Y21889D01*
G01X49281Y21930D01*
G01X49256Y21972D01*
G01X49233Y22016D01*
G01X49212Y22060D01*
G01X49193Y22105D01*
G01X49176Y22151D01*
G01X49160Y22197D01*
G01X49147Y22244D01*
G01X49136Y22292D01*
G01X49127Y22340D01*
G01X49119Y22388D01*
G01X49114Y22437D01*
G01X49111Y22486D01*
G01X49110Y22535D01*
G01X49111Y22584D01*
G01X49114Y22633D01*
G01X49119Y22682D01*
G01X49127Y22730D01*
G01X49136Y22778D01*
G01X49147Y22826D01*
G01X49161Y22873D01*
G01X49176Y22920D01*
G01X49193Y22966D01*
G01X49213Y23011D01*
G01X49234Y23055D01*
G01X49257Y23099D01*
G01X49282Y23141D01*
G01X49308Y23182D01*
G01X49337Y23222D01*
G01X49367Y23261D01*
G01X49398Y23299D01*
G01X49432Y23335D01*
G01X49466Y23370D01*
G01X49503Y23403D01*
G01X49540Y23434D01*
G01X49579Y23464D01*
G01X49619Y23493D01*
G01X49660Y23519D01*
G01X49703Y23544D01*
G01X49746Y23567D01*
G01X49790Y23589D01*
G01X49835Y23608D01*
G01X49881Y23625D01*
G01X49928Y23640D01*
G01X49975Y23654D01*
G01X50023Y23665D01*
G01X50071Y23675D01*
G01X50120Y23682D01*
G01X50169Y23687D01*
G01X50218Y23690D01*
G01X50267Y23691D01*
G01X50316Y23690D01*
G01X50365Y23687D01*
G01X50414Y23682D01*
G01X50462Y23675D01*
G01X50510Y23665D01*
G01X50558Y23654D01*
G01X50605Y23640D01*
G01X50652Y23625D01*
G01X50698Y23608D01*
G01X50743Y23589D01*
G01X50787Y23567D01*
G01X50831Y23544D01*
G01X50873Y23519D01*
G01X50914Y23493D01*
G01X50954Y23464D01*
G01X50993Y23434D01*
G01X51031Y23403D01*
G01X51067Y23370D01*
G01X51102Y23335D01*
G01X51135Y23299D01*
G01X51166Y23261D01*
G01X51196Y23222D01*
G01X51225Y23182D01*
G01X51251Y23141D01*
G01X51276Y23099D01*
G01X51299Y23055D01*
G01X51320Y23011D01*
G01X51340Y22966D01*
G01X51357Y22920D01*
G01X51372Y22873D01*
G01X51386Y22826D01*
G01X51397Y22778D01*
G01X51407Y22730D01*
G01X51414Y22682D01*
G01X51419Y22633D01*
G01X51422Y22584D01*
G01X51423Y22535D01*
G01X51422Y22486D01*
G01X51419Y22437D01*
G01X51414Y22388D01*
G01X51407Y22340D01*
G01X51397Y22292D01*
G01X51386Y22244D01*
G01X51373Y22197D01*
G01X51358Y22151D01*
G01X51340Y22105D01*
G01X51321Y22060D01*
G01X51300Y22016D01*
G01X51277Y21972D01*
G01X51253Y21930D01*
G01X51226Y21889D01*
G01X51198Y21849D01*
G01X51168Y21810D01*
G01X51137Y21773D01*
G01X51104Y21737D01*
G01X51069Y21702D01*
G01X51033Y21669D01*
G01X50996Y21637D01*
G01X50957Y21607D01*
G01X50918Y21579D01*
G01X50905Y21568D01*
G01X50894Y21556D01*
G01X50885Y21542D01*
G01X50878Y21527D01*
G01X50874Y21511D01*
G01X50873Y21495D01*
G01X50873Y18113D01*
G01X50874Y18097D01*
G01X50878Y18081D01*
G01X50885Y18066D01*
G01X50893Y18052D01*
G01X50923Y18011D01*
G01X50951Y17968D01*
G01X50977Y17924D01*
G01X51002Y17878D01*
G01X51024Y17832D01*
G01X51044Y17785D01*
G01X51063Y17737D01*
G01X51079Y17689D01*
G01X51093Y17639D01*
G01X51105Y17589D01*
G01X51115Y17539D01*
G01X51122Y17488D01*
G01X51128Y17437D01*
G01X51131Y17386D01*
G01X51132Y17335D01*
G01X51131Y17285D01*
G01X51128Y17235D01*
G01X51123Y17185D01*
G01X51115Y17135D01*
G01X51106Y17086D01*
G01X51095Y17037D01*
G01X51081Y16989D01*
G01X51066Y16941D01*
G01X51048Y16894D01*
G01X51029Y16848D01*
G01X51007Y16803D01*
G01X50984Y16758D01*
G01X50959Y16715D01*
G01X50932Y16673D01*
G01X50904Y16632D01*
G01X50873Y16592D01*
G01X50841Y16553D01*
G01X50833Y16541D01*
G01X50826Y16529D01*
G01X50821Y16515D01*
G01X50818Y16501D01*
G01X50817Y16487D01*
G01X50818Y16472D01*
G01X50821Y16458D01*
G01X50826Y16444D01*
G01X50833Y16432D01*
G01X50841Y16420D01*
G01X50852Y16410D01*
G01X50863Y16401D01*
G01X50876Y16394D01*
G01X50890Y16389D01*
G01X50904Y16386D01*
G01X50918Y16385D01*
G01X60717Y16385D01*
G01X60731Y16386D01*
G01X60746Y16389D01*
G01X60759Y16394D01*
G01X60772Y16401D01*
G01X60783Y16410D01*
G01X60794Y16420D01*
G01X60802Y16431D01*
G01X60809Y16444D01*
G01X60831Y16489D01*
G01X60855Y16533D01*
G01X60881Y16576D01*
G01X60909Y16617D01*
G01X60938Y16658D01*
G01X60970Y16697D01*
G01X61003Y16735D01*
G01X61037Y16771D01*
G01X61073Y16806D01*
G01X61111Y16839D01*
G01X61150Y16870D01*
G01X61190Y16900D01*
G01X61232Y16928D01*
G01X61275Y16954D01*
G01X61319Y16978D01*
G01X61363Y17000D01*
G01X61409Y17020D01*
G01X61456Y17038D01*
G01X61503Y17054D01*
G01X61551Y17068D01*
G01X61600Y17080D01*
G01X61649Y17090D01*
G01X61699Y17098D01*
G01X61748Y17103D01*
G01X61798Y17107D01*
G01X61849Y17108D01*
G01X61897Y17107D01*
G01X61945Y17104D01*
G01X61993Y17099D01*
G01X62041Y17091D01*
G01X62088Y17082D01*
G01X62135Y17071D01*
G01X62182Y17058D01*
G01X62228Y17043D01*
G01X62273Y17026D01*
G01X62317Y17007D01*
G01X62361Y16987D01*
G01X62404Y16964D01*
G01X62445Y16940D01*
G01X62486Y16914D01*
G01X62526Y16886D01*
G01X62564Y16857D01*
G01X62601Y16826D01*
G01X62637Y16793D01*
G01X62671Y16759D01*
G01X62704Y16724D01*
G01X62735Y16687D01*
G01X62765Y16649D01*
G01X62793Y16610D01*
G01X62820Y16569D01*
G01X62845Y16528D01*
G01X62867Y16486D01*
G01X62889Y16442D01*
G01X62908Y16398D01*
G01X62925Y16353D01*
G01X62941Y16307D01*
G01X62954Y16261D01*
G01X62966Y16214D01*
G01X62976Y16166D01*
G01X62983Y16119D01*
G01X62989Y16071D01*
G01X62992Y16023D01*
G01X62994Y16007D01*
G01X62999Y15993D01*
G01X63005Y15979D01*
G01X63014Y15966D01*
G01X63024Y15954D01*
G01X63036Y15945D01*
G01X63049Y15937D01*
G01X63064Y15931D01*
G01X63079Y15928D01*
G01X63094Y15926D01*
G01X63110Y15928D01*
G01X63125Y15931D01*
G01X63140Y15937D01*
G01X63154Y15946D01*
G01X63166Y15956D01*
G01X63594Y16385D01*
G01X63605Y16397D01*
G01X63613Y16410D01*
G01X63619Y16425D01*
G01X63623Y16441D01*
G01X63624Y16456D01*
G01X63624Y22606D01*
G01X63625Y22636D01*
G01X63629Y22665D01*
G01X63635Y22695D01*
G01X63643Y22724D01*
G01X63653Y22752D01*
G01X63666Y22780D01*
G01X63680Y22806D01*
G01X63697Y22831D01*
G01X63716Y22855D01*
G01X63736Y22877D01*
G01X66530Y25671D01*
G01X66552Y25691D01*
G01X66576Y25710D01*
G01X66601Y25727D01*
G01X66627Y25741D01*
G01X66655Y25754D01*
G01X66683Y25764D01*
G01X66712Y25772D01*
G01X66742Y25778D01*
G01X66771Y25782D01*
G01X66802Y25783D01*
G01X72023Y25783D01*
G01X72054Y25782D01*
G01X72083Y25778D01*
G01X72113Y25772D01*
G01X72142Y25764D01*
G01X72170Y25754D01*
G01X72198Y25741D01*
G01X72224Y25727D01*
G01X72249Y25710D01*
G01X72273Y25691D01*
G01X72295Y25671D01*
G01X75477Y22488D01*
G01X75489Y22478D01*
G01X75503Y22470D01*
G01X75518Y22463D01*
G01X75533Y22460D01*
G01X75549Y22458D01*
G01X75568Y22460D01*
G01X75614Y22467D01*
G01X75660Y22472D01*
G01X75706Y22473D01*
G01X75746Y22472D01*
G01X75785Y22469D01*
G01X75824Y22464D01*
G01X75863Y22457D01*
G01X75901Y22448D01*
G01X75938Y22437D01*
G01X75975Y22424D01*
G01X76012Y22409D01*
G01X76047Y22392D01*
G01X76082Y22373D01*
G01X76116Y22353D01*
G01X76148Y22331D01*
G01X76162Y22323D01*
G01X76176Y22317D01*
G01X76192Y22313D01*
G01X76207Y22312D01*
G01X76224Y22313D01*
G01X76240Y22317D01*
G01X76256Y22324D01*
G01X76270Y22333D01*
G01X76282Y22344D01*
G01X76292Y22357D01*
G01X76306Y22376D01*
G01X76321Y22394D01*
G01X76338Y22410D01*
G01X76356Y22424D01*
G01X76375Y22437D01*
G01X76395Y22448D01*
G01X76416Y22457D01*
G01X76438Y22464D01*
G01X76461Y22469D01*
G01X76483Y22472D01*
G01X76507Y22473D01*
G01X77507Y22473D01*
G01X77530Y22472D01*
G01X77554Y22469D01*
G01X77577Y22463D01*
G01X77599Y22456D01*
G01X77621Y22446D01*
G01X77642Y22435D01*
G01X77661Y22421D01*
G01X77679Y22406D01*
G01X77696Y22389D01*
G01X77711Y22371D01*
G01X77725Y22352D01*
G01X77736Y22331D01*
G01X77746Y22309D01*
G01X77753Y22287D01*
G01X77759Y22264D01*
G01X77762Y22240D01*
G01X77763Y22216D01*
G01X77763Y21217D01*
G01X77762Y21193D01*
G01X77759Y21169D01*
G01X77753Y21146D01*
G01X77746Y21124D01*
G01X77736Y21102D01*
G01X77725Y21081D01*
G01X77711Y21062D01*
G01X77696Y21044D01*
G01X77679Y21027D01*
G01X77661Y21012D01*
G01X77642Y20998D01*
G01X77621Y20987D01*
G01X77599Y20977D01*
G01X77577Y20970D01*
G01X77554Y20964D01*
G01X77530Y20961D01*
G01X77507Y20960D01*
G01X76834Y20960D01*
G01X76819Y20959D01*
G01X76803Y20955D01*
G01X76788Y20949D01*
G01X76775Y20941D01*
G01X76763Y20930D01*
G01X74357Y18524D01*
G01X74335Y18504D01*
G01X74311Y18485D01*
G01X74286Y18468D01*
G01X74260Y18454D01*
G01X74232Y18441D01*
G01X74204Y18431D01*
G01X74175Y18423D01*
G01X74145Y18417D01*
G01X74116Y18413D01*
G01X74085Y18412D01*
G01X70915Y18412D01*
G01X70900Y18411D01*
G01X70886Y18408D01*
G01X70872Y18403D01*
G01X70860Y18396D01*
G01X70848Y18387D01*
G01X70838Y18377D01*
G01X70829Y18365D01*
G01X70822Y18353D01*
G01X70817Y18339D01*
G01X70814Y18325D01*
G01X70813Y18310D01*
G01X70813Y18071D01*
G01X70812Y18047D01*
G01X70809Y18023D01*
G01X70803Y18000D01*
G01X70796Y17978D01*
G01X70786Y17956D01*
G01X70775Y17935D01*
G01X70761Y17916D01*
G01X70746Y17898D01*
G01X70729Y17881D01*
G01X70711Y17866D01*
G01X70692Y17852D01*
G01X70671Y17841D01*
G01X70649Y17831D01*
G01X70627Y17824D01*
G01X70604Y17818D01*
G01X70580Y17815D01*
G01X70557Y17814D01*
G01X69714Y17814D01*
G01X69699Y17813D01*
G01X69685Y17810D01*
G01X69672Y17805D01*
G01X69659Y17798D01*
G01X69647Y17789D01*
G01X69637Y17779D01*
G01X69628Y17767D01*
G01X69621Y17755D01*
G01X69616Y17741D01*
G01X69613Y17727D01*
G01X69612Y17712D01*
G01X69613Y17696D01*
G01X69617Y17681D01*
G01X69623Y17666D01*
G01X69632Y17653D01*
G01X69642Y17641D01*
G01X71249Y16034D01*
G01X71261Y16023D01*
G01X71274Y16015D01*
G01X71289Y16009D01*
G01X71305Y16005D01*
G01X71320Y16004D01*
G01X71828Y16004D01*
G01X71843Y16005D01*
G01X71857Y16008D01*
G01X71871Y16013D01*
G01X71883Y16020D01*
G01X71895Y16029D01*
G01X71905Y16039D01*
G01X71914Y16051D01*
G01X71921Y16063D01*
G01X71926Y16077D01*
G01X71929Y16091D01*
G01X71930Y16106D01*
G01X71929Y16122D01*
G01X71925Y16139D01*
G01X71918Y16154D01*
G01X71909Y16168D01*
G01X71860Y16217D01*
G01X71824Y16255D01*
G01X71790Y16295D01*
G01X71757Y16336D01*
G01X71727Y16379D01*
G01X71698Y16423D01*
G01X71672Y16468D01*
G01X71647Y16515D01*
G01X72170Y16515D01*
G01X72170Y16106D01*
G01X72171Y16091D01*
G01X72174Y16077D01*
G01X72179Y16063D01*
G01X72186Y16051D01*
G01X72195Y16039D01*
G01X72205Y16029D01*
G01X72217Y16020D01*
G01X72230Y16013D01*
G01X72243Y16008D01*
G01X72257Y16005D01*
G01X72272Y16004D01*
G01X73096Y16004D01*
G01X73110Y16005D01*
G01X73124Y16008D01*
G01X73138Y16013D01*
G01X73150Y16020D01*
G01X73162Y16029D01*
G01X73172Y16039D01*
G01X73181Y16051D01*
G01X73188Y16063D01*
G01X73193Y16077D01*
G01X73196Y16091D01*
G01X73197Y16106D01*
G01X73197Y16515D01*
G01X73720Y16515D01*
G01X73696Y16468D01*
G01X73669Y16423D01*
G01X73641Y16379D01*
G01X73610Y16336D01*
G01X73578Y16295D01*
G01X73543Y16255D01*
G01X73507Y16217D01*
G01X73458Y16168D01*
G01X73449Y16154D01*
G01X73443Y16139D01*
G01X73439Y16122D01*
G01X73437Y16106D01*
G01X73438Y16091D01*
G01X73441Y16077D01*
G01X73446Y16063D01*
G01X73453Y16051D01*
G01X73462Y16039D01*
G01X73472Y16029D01*
G01X73484Y16020D01*
G01X73497Y16013D01*
G01X73510Y16008D01*
G01X73524Y16005D01*
G01X73539Y16004D01*
G01X76075Y16004D01*
G01X76091Y16005D01*
G01X76106Y16009D01*
G01X76121Y16015D01*
G01X76134Y16023D01*
G01X76147Y16034D01*
G01X76592Y16479D01*
G01X76602Y16491D01*
G01X76610Y16505D01*
G01X76616Y16519D01*
G01X76620Y16535D01*
G01X76621Y16551D01*
G01X76619Y16570D01*
G01X76614Y16589D01*
G01X76596Y16636D01*
G01X76580Y16683D01*
G01X76566Y16731D01*
G01X76554Y16780D01*
G01X76544Y16829D01*
G01X76537Y16879D01*
G01X76531Y16928D01*
G01X76528Y16978D01*
G01X76527Y17028D01*
G01X76528Y17078D01*
G01X76531Y17127D01*
G01X76536Y17175D01*
G01X76544Y17224D01*
G01X76553Y17272D01*
G01X76564Y17320D01*
G01X76578Y17367D01*
G01X76593Y17414D01*
G01X76610Y17460D01*
G01X76630Y17505D01*
G01X76651Y17549D01*
G01X76674Y17592D01*
G01X76699Y17635D01*
G01X76725Y17676D01*
G01X76754Y17716D01*
G01X76784Y17755D01*
G01X76815Y17793D01*
G01X76849Y17829D01*
G01X76883Y17863D01*
G01X76920Y17897D01*
G01X76957Y17928D01*
G01X76996Y17958D01*
G01X77036Y17987D01*
G01X77077Y18013D01*
G01X77120Y18038D01*
G01X77163Y18061D01*
G01X77207Y18082D01*
G01X77252Y18102D01*
G01X77298Y18119D01*
G01X77345Y18134D01*
G01X77392Y18148D01*
G01X77440Y18159D01*
G01X77488Y18168D01*
G01X77537Y18176D01*
G01X77586Y18181D01*
G01X77635Y18184D01*
G01X77684Y18185D01*
G01X77733Y18184D01*
G01X77782Y18181D01*
G01X77831Y18176D01*
G01X77879Y18168D01*
G01X77927Y18159D01*
G01X77975Y18148D01*
G01X78022Y18134D01*
G01X78069Y18119D01*
G01X78115Y18102D01*
G01X78160Y18082D01*
G01X78204Y18061D01*
G01X78248Y18038D01*
G01X78290Y18013D01*
G01X78331Y17987D01*
G01X78371Y17958D01*
G01X78410Y17928D01*
G01X78448Y17897D01*
G01X78484Y17863D01*
G01X78519Y17829D01*
G01X78552Y17793D01*
G01X78583Y17755D01*
G01X78613Y17716D01*
G01X78642Y17676D01*
G01X78668Y17635D01*
G01X78693Y17592D01*
G01X78716Y17549D01*
G01X78737Y17505D01*
G01X78757Y17460D01*
G01X78774Y17414D01*
G01X78789Y17367D01*
G01X78803Y17320D01*
G01X78814Y17272D01*
G01X78824Y17224D01*
G01X78831Y17175D01*
G01X78836Y17127D01*
G01X78839Y17078D01*
G01X78840Y17028D01*
G01X78839Y16979D01*
G01X78836Y16930D01*
G01X78831Y16882D01*
G01X78824Y16833D01*
G01X78814Y16785D01*
G01X78803Y16737D01*
G01X78789Y16690D01*
G01X78774Y16643D01*
G01X78757Y16597D01*
G01X78737Y16552D01*
G01X78716Y16508D01*
G01X78693Y16464D01*
G01X78668Y16422D01*
G01X78642Y16381D01*
G01X78613Y16341D01*
G01X78583Y16302D01*
G01X78552Y16264D01*
G01X78519Y16228D01*
G01X78484Y16193D01*
G01X78448Y16160D01*
G01X78410Y16129D01*
G01X78371Y16099D01*
G01X78331Y16070D01*
G01X78290Y16044D01*
G01X78248Y16019D01*
G01X78204Y15996D01*
G01X78160Y15975D01*
G01X78115Y15955D01*
G01X78069Y15938D01*
G01X78022Y15923D01*
G01X77975Y15909D01*
G01X77927Y15898D01*
G01X77879Y15889D01*
G01X77831Y15881D01*
G01X77782Y15876D01*
G01X77733Y15873D01*
G01X77684Y15872D01*
G01X77634Y15873D01*
G01X77584Y15876D01*
G01X77534Y15882D01*
G01X77484Y15889D01*
G01X77435Y15899D01*
G01X77387Y15911D01*
G01X77339Y15925D01*
G01X77291Y15941D01*
G01X77244Y15959D01*
G01X77225Y15964D01*
G01X77206Y15966D01*
G01X77190Y15965D01*
G01X77174Y15961D01*
G01X77160Y15955D01*
G01X77146Y15947D01*
G01X77134Y15936D01*
G01X76547Y15349D01*
G01X76525Y15329D01*
G01X76501Y15310D01*
G01X76476Y15293D01*
G01X76450Y15279D01*
G01X76422Y15266D01*
G01X76394Y15256D01*
G01X76365Y15248D01*
G01X76336Y15242D01*
G01X76306Y15238D01*
G01X76276Y15237D01*
G01X71120Y15237D01*
G01X71089Y15238D01*
G01X71060Y15242D01*
G01X71030Y15248D01*
G01X71001Y15256D01*
G01X70973Y15266D01*
G01X70945Y15279D01*
G01X70919Y15293D01*
G01X70894Y15310D01*
G01X70870Y15329D01*
G01X70848Y15349D01*
G01X68816Y17381D01*
G01X68796Y17403D01*
G01X68777Y17427D01*
G01X68760Y17452D01*
G01X68746Y17478D01*
G01X68733Y17506D01*
G01X68723Y17534D01*
G01X68715Y17563D01*
G01X68709Y17593D01*
G01X68705Y17622D01*
G01X68704Y17653D01*
G01X68704Y17721D01*
G01X68703Y17735D01*
G01X68700Y17750D01*
G01X68695Y17763D01*
G01X68688Y17776D01*
G01X68679Y17787D01*
G01X68669Y17798D01*
G01X68657Y17806D01*
G01X68645Y17813D01*
G01X68631Y17818D01*
G01X68617Y17821D01*
G01X68602Y17823D01*
G01X68580Y17820D01*
G01X68548Y17815D01*
G01X68533Y17813D01*
G01X68518Y17808D01*
G01X68505Y17801D01*
G01X68493Y17793D01*
G01X68482Y17782D01*
G01X68472Y17771D01*
G01X68465Y17757D01*
G01X68459Y17743D01*
G01X68456Y17729D01*
G01X68455Y17714D01*
G01X68455Y17144D01*
G01X68454Y17114D01*
G01X68450Y17085D01*
G01X68444Y17055D01*
G01X68436Y17026D01*
G01X68426Y16998D01*
G01X68413Y16970D01*
G01X68399Y16944D01*
G01X68382Y16919D01*
G01X68363Y16895D01*
G01X68343Y16873D01*
G01X63898Y12428D01*
G01X63876Y12408D01*
G01X63852Y12389D01*
G01X63827Y12372D01*
G01X63801Y12358D01*
G01X63773Y12345D01*
G01X63745Y12335D01*
G01X63716Y12327D01*
G01X63686Y12321D01*
G01X63657Y12317D01*
G01X63627Y12316D01*
G01X63020Y12316D01*
G01X63005Y12315D01*
G01X62991Y12312D01*
G01X62978Y12307D01*
G01X62965Y12300D01*
G01X62953Y12291D01*
G01X62943Y12281D01*
G01X62934Y12269D01*
G01X62927Y12257D01*
G01X62922Y12243D01*
G01X62919Y12229D01*
G01X62918Y12214D01*
G01X62919Y12198D01*
G01X62923Y12183D01*
G01X62929Y12168D01*
G01X62938Y12155D01*
G01X62948Y12143D01*
G01X68963Y6128D01*
G01X68975Y6117D01*
G01X68988Y6109D01*
G01X69003Y6103D01*
G01X69019Y6099D01*
G01X69034Y6098D01*
G01X74549Y6098D01*
G01X74579Y6097D01*
G01X74608Y6093D01*
G01X74638Y6087D01*
G01X74667Y6079D01*
G01X74695Y6069D01*
G01X74723Y6056D01*
G01X74749Y6042D01*
G01X74774Y6025D01*
G01X74798Y6006D01*
G01X74820Y5986D01*
G01X77170Y3635D01*
G01X77183Y3625D01*
G01X77196Y3616D01*
G01X77211Y3610D01*
G01X77226Y3606D01*
G01X77242Y3605D01*
G01X77260Y3607D01*
G01X77278Y3612D01*
G01X77327Y3629D01*
G01X77376Y3644D01*
G01X77427Y3656D01*
G01X77477Y3667D01*
G01X77529Y3675D01*
G01X77580Y3680D01*
G01X77632Y3684D01*
G01X77684Y3685D01*
G01X77733Y3684D01*
G01X77782Y3681D01*
G01X77831Y3676D01*
G01X77879Y3668D01*
G01X77927Y3659D01*
G01X77975Y3648D01*
G01X78022Y3634D01*
G01X78069Y3619D01*
G01X78115Y3602D01*
G01X78160Y3582D01*
G01X78204Y3561D01*
G01X78248Y3538D01*
G01X78290Y3513D01*
G01X78331Y3487D01*
G01X78371Y3458D01*
G01X78410Y3428D01*
G01X78448Y3397D01*
G01X78484Y3364D01*
G01X78519Y3329D01*
G01X78552Y3293D01*
G01X78583Y3255D01*
G01X78613Y3216D01*
G01X78642Y3176D01*
G01X78668Y3135D01*
G01X78693Y3093D01*
G01X78716Y3049D01*
G01X78737Y3005D01*
G01X78757Y2960D01*
G01X78774Y2914D01*
G01X78789Y2867D01*
G01X78803Y2820D01*
G01X78814Y2772D01*
G01X78824Y2724D01*
G01X78831Y2675D01*
G01X78836Y2627D01*
G01X78839Y2578D01*
G01X78840Y2529D01*
G01X78839Y2479D01*
G01X78836Y2430D01*
G01X78831Y2382D01*
G01X78824Y2333D01*
G01X78814Y2285D01*
G01X78803Y2237D01*
G01X78789Y2190D01*
G01X78774Y2143D01*
G01X78757Y2097D01*
G01X78737Y2052D01*
G01X78716Y2008D01*
G01X78693Y1965D01*
G01X78668Y1922D01*
G01X78642Y1881D01*
G01X78613Y1841D01*
G01X78583Y1802D01*
G01X78552Y1764D01*
G01X78519Y1728D01*
G01X78484Y1694D01*
G01X78448Y1660D01*
G01X78410Y1629D01*
G01X78371Y1599D01*
G01X78331Y1570D01*
G01X78290Y1544D01*
G01X78248Y1519D01*
G01X78204Y1496D01*
G01X78160Y1475D01*
G01X78115Y1455D01*
G01X78069Y1438D01*
G01X78022Y1423D01*
G01X77975Y1409D01*
G01X77927Y1398D01*
G01X77879Y1389D01*
G01X77831Y1381D01*
G01X77782Y1376D01*
G01X77733Y1373D01*
G01X77684Y1372D01*
G01X77634Y1373D01*
G01X77585Y1376D01*
G01X77535Y1382D01*
G01X77486Y1389D01*
G01X77438Y1399D01*
G01X77389Y1410D01*
G01X77342Y1424D01*
G01X77295Y1439D01*
G01X77248Y1457D01*
G01X77203Y1477D01*
G01X77158Y1498D01*
G01X77115Y1522D01*
G01X77072Y1547D01*
G01X77030Y1574D01*
G01X76990Y1603D01*
G01X76951Y1634D01*
G01X76913Y1666D01*
G01X76877Y1700D01*
G01X76842Y1735D01*
G01X76809Y1772D01*
G01X76778Y1810D01*
G01X76748Y1849D01*
G01X76719Y1890D01*
G01X76693Y1932D01*
G01X76668Y1975D01*
G01X76645Y2019D01*
G01X76625Y2064D01*
G01X76606Y2110D01*
G01X76589Y2156D01*
G01X76574Y2204D01*
G01X76561Y2251D01*
G01X76550Y2300D01*
G01X76541Y2349D01*
G01X76535Y2398D01*
G01X76529Y2463D01*
G01X76527Y2529D01*
G01X76529Y2594D01*
G01X76535Y2659D01*
G01X76541Y2710D01*
G01X76550Y2760D01*
G01X76562Y2809D01*
G01X76575Y2858D01*
G01X76590Y2906D01*
G01X76608Y2954D01*
G01X76628Y3000D01*
G01X76634Y3021D01*
G01X76637Y3042D01*
G01X76635Y3058D01*
G01X76632Y3073D01*
G01X76626Y3088D01*
G01X76617Y3102D01*
G01X76607Y3114D01*
G01X74419Y5301D01*
G01X74407Y5312D01*
G01X74394Y5320D01*
G01X74379Y5326D01*
G01X74363Y5330D01*
G01X74348Y5331D01*
G01X70669Y5331D01*
G01X70654Y5330D01*
G01X70640Y5327D01*
G01X70627Y5322D01*
G01X70614Y5315D01*
G01X70602Y5306D01*
G01X70592Y5296D01*
G01X70583Y5284D01*
G01X70577Y5272D01*
G01X70571Y5258D01*
G01X70568Y5244D01*
G01X70567Y5229D01*
G01X70569Y5213D01*
G01X70572Y5198D01*
G01X70578Y5183D01*
G01X70587Y5170D01*
G01X70597Y5158D01*
G01X72134Y3621D01*
G01X72146Y3610D01*
G01X72160Y3602D01*
G01X72174Y3596D01*
G01X72190Y3592D01*
G01X72206Y3591D01*
G01X72226Y3593D01*
G01X72244Y3598D01*
G01X72291Y3616D01*
G01X72339Y3632D01*
G01X72387Y3646D01*
G01X72435Y3658D01*
G01X72484Y3668D01*
G01X72534Y3675D01*
G01X72584Y3681D01*
G01X72634Y3684D01*
G01X72684Y3685D01*
G01X72733Y3684D01*
G01X72783Y3681D01*
G01X72832Y3676D01*
G01X72881Y3668D01*
G01X72929Y3659D01*
G01X72978Y3647D01*
G01X73025Y3634D01*
G01X73072Y3618D01*
G01X73119Y3600D01*
G01X73164Y3581D01*
G01X73209Y3559D01*
G01X73252Y3536D01*
G01X73295Y3510D01*
G01X73336Y3483D01*
G01X73377Y3454D01*
G01X73416Y3424D01*
G01X73453Y3392D01*
G01X73490Y3358D01*
G01X73524Y3323D01*
G01X73558Y3286D01*
G01X73589Y3248D01*
G01X73619Y3208D01*
G01X73648Y3168D01*
G01X73674Y3126D01*
G01X73699Y3083D01*
G01X73721Y3039D01*
G01X73742Y2994D01*
G01X73761Y2948D01*
G01X73778Y2902D01*
G01X73793Y2854D01*
G01X73806Y2807D01*
G01X73817Y2758D01*
G01X73826Y2710D01*
G01X73833Y2660D01*
G01X73838Y2595D01*
G01X73840Y2529D01*
G01X73838Y2463D01*
G01X73833Y2397D01*
G01X73826Y2348D01*
G01X73817Y2299D01*
G01X73806Y2251D01*
G01X73793Y2203D01*
G01X73778Y2155D01*
G01X73761Y2109D01*
G01X73742Y2063D01*
G01X73721Y2018D01*
G01X73699Y1974D01*
G01X73674Y1931D01*
G01X73648Y1889D01*
G01X73619Y1849D01*
G01X73589Y1809D01*
G01X73558Y1771D01*
G01X73524Y1734D01*
G01X73490Y1699D01*
G01X73453Y1665D01*
G01X73416Y1633D01*
G01X73377Y1603D01*
G01X73336Y1574D01*
G01X73295Y1547D01*
G01X73252Y1522D01*
G01X73209Y1498D01*
G01X73164Y1477D01*
G01X73119Y1457D01*
G01X73072Y1439D01*
G01X73025Y1424D01*
G01X72978Y1410D01*
G01X72929Y1398D01*
G01X72881Y1389D01*
G01X72832Y1382D01*
G01X72783Y1376D01*
G01X72733Y1373D01*
G01X72684Y1372D01*
G01X72635Y1373D01*
G01X72586Y1376D01*
G01X72537Y1381D01*
G01X72488Y1389D01*
G01X72440Y1398D01*
G01X72392Y1409D01*
G01X72345Y1423D01*
G01X72298Y1438D01*
G01X72252Y1455D01*
G01X72207Y1475D01*
G01X72163Y1496D01*
G01X72120Y1519D01*
G01X72077Y1544D01*
G01X72036Y1570D01*
G01X71996Y1599D01*
G01X71957Y1629D01*
G01X71920Y1660D01*
G01X71883Y1694D01*
G01X71849Y1728D01*
G01X71815Y1764D01*
G01X71784Y1802D01*
G01X71754Y1841D01*
G01X71725Y1881D01*
G01X71699Y1922D01*
G01X71674Y1965D01*
G01X71651Y2008D01*
G01X71630Y2052D01*
G01X71610Y2097D01*
G01X71593Y2143D01*
G01X71578Y2190D01*
G01X71564Y2237D01*
G01X71553Y2285D01*
G01X71544Y2333D01*
G01X71536Y2382D01*
G01X71531Y2430D01*
G01X71528Y2479D01*
G01X71527Y2529D01*
G01X71528Y2579D01*
G01X71531Y2629D01*
G01X71537Y2678D01*
G01X71544Y2728D01*
G01X71554Y2777D01*
G01X71566Y2826D01*
G01X71580Y2874D01*
G01X71596Y2921D01*
G01X71614Y2968D01*
G01X71619Y2987D01*
G01X71621Y3006D01*
G01X71620Y3022D01*
G01X71616Y3038D01*
G01X71610Y3052D01*
G01X71602Y3066D01*
G01X71592Y3078D01*
G01X70131Y4539D01*
G01X70118Y4550D01*
G01X70105Y4558D01*
G01X70090Y4564D01*
G01X70075Y4568D01*
G01X70059Y4569D01*
G01X65472Y4569D01*
G01X65457Y4568D01*
G01X65443Y4565D01*
G01X65429Y4560D01*
G01X65417Y4553D01*
G01X65405Y4544D01*
G01X65395Y4534D01*
G01X65386Y4522D01*
G01X65379Y4510D01*
G01X65374Y4496D01*
G01X65371Y4482D01*
G01X65370Y4467D01*
G01X65370Y3356D01*
G01X65369Y3333D01*
G01X65366Y3309D01*
G01X65360Y3286D01*
G01X65353Y3264D01*
G01X65343Y3242D01*
G01X65332Y3221D01*
G01X65318Y3202D01*
G01X65303Y3184D01*
G01X65286Y3167D01*
G01X65268Y3152D01*
G01X65249Y3138D01*
G01X65228Y3127D01*
G01X65206Y3117D01*
G01X65184Y3110D01*
G01X65161Y3104D01*
G01X65137Y3101D01*
G01X65113Y3100D01*
G01X64747Y3100D01*
G01X64732Y3099D01*
G01X64718Y3096D01*
G01X64704Y3091D01*
G01X64692Y3084D01*
G01X64680Y3075D01*
G01X64670Y3065D01*
G01X64661Y3053D01*
G01X64654Y3041D01*
G01X64649Y3027D01*
G01X64646Y3013D01*
G01X64645Y2998D01*
G01X64645Y1904D01*
G01X64644Y1874D01*
G01X64640Y1845D01*
G01X64634Y1815D01*
G01X64626Y1786D01*
G01X64616Y1758D01*
G01X64603Y1730D01*
G01X64589Y1704D01*
G01X64572Y1679D01*
G01X64553Y1655D01*
G01X64533Y1633D01*
G01X63329Y429D01*
G01X63319Y417D01*
G01X63310Y404D01*
G01X63304Y389D01*
G01X63300Y374D01*
G01X63299Y358D01*
G01X63300Y343D01*
G01X63303Y329D01*
G01X63308Y315D01*
G01X63315Y303D01*
G01X63324Y291D01*
G01X63334Y281D01*
G01X63346Y272D01*
G01X63359Y265D01*
G01X63372Y260D01*
G01X63386Y257D01*
G01X63401Y256D01*
G01X82572Y256D01*
G01X82587Y257D01*
G01X82601Y260D01*
G01X82615Y265D01*
G01X82627Y272D01*
G01X82639Y281D01*
G01X82649Y291D01*
G01X82658Y303D01*
G01X82665Y315D01*
G01X82670Y329D01*
G01X82673Y343D01*
G01X82674Y358D01*
G01X82674Y25930D01*
G01X82673Y25945D01*
G01X82670Y25959D01*
G01X82665Y25973D01*
G01X82658Y25985D01*
G01X82649Y25997D01*
G01X82639Y26007D01*
G01X82627Y26016D01*
G01X82615Y26023D01*
G01X82601Y26028D01*
G01X82587Y26031D01*
G01X82572Y26032D01*
G37*

%LPC*%
G36*
G01X61976Y24220D02*
G01X60776Y24220D01*
G01X60750Y24219D01*
G01X60725Y24215D01*
G01X60419Y24154D01*
G01X60395Y24148D01*
G01X60372Y24140D01*
G01X60349Y24129D01*
G01X60327Y24116D01*
G01X60067Y23943D01*
G01X60047Y23928D01*
G01X60028Y23911D01*
G01X60011Y23892D01*
G01X59996Y23872D01*
G01X59823Y23612D01*
G01X59810Y23590D01*
G01X59799Y23568D01*
G01X59791Y23544D01*
G01X59785Y23520D01*
G01X59724Y23214D01*
G01X59720Y23189D01*
G01X59719Y23164D01*
G01X59720Y23138D01*
G01X59724Y23113D01*
G01X59785Y22807D01*
G01X59791Y22783D01*
G01X59799Y22760D01*
G01X59810Y22737D01*
G01X59823Y22715D01*
G01X59996Y22455D01*
G01X60011Y22435D01*
G01X60028Y22416D01*
G01X60047Y22399D01*
G01X60067Y22384D01*
G01X60272Y22248D01*
G01X60285Y22238D01*
G01X60296Y22225D01*
G01X60305Y22211D01*
G01X60311Y22196D01*
G01X60316Y22180D01*
G01X60317Y22164D01*
G01X60316Y22147D01*
G01X60311Y22131D01*
G01X60305Y22116D01*
G01X60296Y22102D01*
G01X60285Y22089D01*
G01X60272Y22079D01*
G01X60067Y21943D01*
G01X60047Y21928D01*
G01X60028Y21911D01*
G01X60011Y21892D01*
G01X59996Y21872D01*
G01X59823Y21612D01*
G01X59810Y21590D01*
G01X59799Y21567D01*
G01X59791Y21544D01*
G01X59785Y21520D01*
G01X59724Y21214D01*
G01X59720Y21189D01*
G01X59719Y21163D01*
G01X59720Y21138D01*
G01X59724Y21113D01*
G01X59785Y20807D01*
G01X59791Y20783D01*
G01X59799Y20759D01*
G01X59810Y20737D01*
G01X59823Y20715D01*
G01X59996Y20455D01*
G01X60011Y20435D01*
G01X60028Y20416D01*
G01X60047Y20399D01*
G01X60067Y20384D01*
G01X60327Y20211D01*
G01X60349Y20198D01*
G01X60372Y20187D01*
G01X60395Y20179D01*
G01X60419Y20173D01*
G01X60725Y20112D01*
G01X60750Y20108D01*
G01X60776Y20107D01*
G01X61976Y20107D01*
G01X61999Y20108D01*
G01X62023Y20111D01*
G01X62046Y20117D01*
G01X62068Y20124D01*
G01X62090Y20134D01*
G01X62111Y20145D01*
G01X62130Y20159D01*
G01X62148Y20174D01*
G01X62165Y20191D01*
G01X62180Y20209D01*
G01X62194Y20228D01*
G01X62205Y20249D01*
G01X62215Y20271D01*
G01X62222Y20293D01*
G01X62228Y20316D01*
G01X62231Y20340D01*
G01X62232Y20363D01*
G01X62232Y21963D01*
G01X62231Y21989D01*
G01X62227Y22014D01*
G01X62221Y22038D01*
G01X62212Y22062D01*
G01X62201Y22085D01*
G01X62188Y22107D01*
G01X62181Y22120D01*
G01X62175Y22134D01*
G01X62172Y22149D01*
G01X62171Y22164D01*
G01X62172Y22178D01*
G01X62175Y22193D01*
G01X62181Y22207D01*
G01X62188Y22220D01*
G01X62201Y22242D01*
G01X62212Y22265D01*
G01X62221Y22289D01*
G01X62227Y22313D01*
G01X62231Y22338D01*
G01X62232Y22364D01*
G01X62232Y23964D01*
G01X62231Y23987D01*
G01X62228Y24011D01*
G01X62222Y24034D01*
G01X62215Y24056D01*
G01X62205Y24078D01*
G01X62194Y24099D01*
G01X62180Y24118D01*
G01X62165Y24136D01*
G01X62148Y24153D01*
G01X62130Y24168D01*
G01X62111Y24182D01*
G01X62090Y24193D01*
G01X62068Y24203D01*
G01X62046Y24210D01*
G01X62023Y24216D01*
G01X61999Y24219D01*
G01X61976Y24220D01*
G37*
G36*
G01X54517Y23891D02*
G01X53016Y23891D01*
G01X52993Y23890D01*
G01X52969Y23887D01*
G01X52946Y23881D01*
G01X52924Y23874D01*
G01X52902Y23864D01*
G01X52881Y23853D01*
G01X52862Y23839D01*
G01X52844Y23824D01*
G01X52827Y23807D01*
G01X52812Y23789D01*
G01X52798Y23770D01*
G01X52787Y23749D01*
G01X52777Y23727D01*
G01X52770Y23705D01*
G01X52764Y23682D01*
G01X52761Y23658D01*
G01X52760Y23635D01*
G01X52760Y21435D01*
G01X52761Y21411D01*
G01X52764Y21387D01*
G01X52770Y21364D01*
G01X52777Y21342D01*
G01X52787Y21320D01*
G01X52798Y21299D01*
G01X52812Y21280D01*
G01X52827Y21262D01*
G01X52844Y21245D01*
G01X52862Y21230D01*
G01X52881Y21216D01*
G01X52902Y21205D01*
G01X52924Y21195D01*
G01X52946Y21188D01*
G01X52969Y21182D01*
G01X52993Y21179D01*
G01X53016Y21178D01*
G01X54517Y21178D01*
G01X54540Y21179D01*
G01X54564Y21182D01*
G01X54587Y21188D01*
G01X54609Y21195D01*
G01X54631Y21205D01*
G01X54652Y21216D01*
G01X54671Y21230D01*
G01X54689Y21245D01*
G01X54706Y21262D01*
G01X54721Y21280D01*
G01X54735Y21299D01*
G01X54746Y21320D01*
G01X54756Y21342D01*
G01X54763Y21364D01*
G01X54769Y21387D01*
G01X54772Y21411D01*
G01X54773Y21435D01*
G01X54773Y23635D01*
G01X54772Y23658D01*
G01X54769Y23682D01*
G01X54763Y23705D01*
G01X54756Y23727D01*
G01X54746Y23749D01*
G01X54735Y23770D01*
G01X54721Y23789D01*
G01X54706Y23807D01*
G01X54689Y23824D01*
G01X54671Y23839D01*
G01X54652Y23853D01*
G01X54631Y23864D01*
G01X54609Y23874D01*
G01X54587Y23881D01*
G01X54564Y23887D01*
G01X54540Y23890D01*
G01X54517Y23891D01*
G37*
G36*
G01X80220Y11013D02*
G01X80220Y12025D01*
G01X80172Y11999D01*
G01X80125Y11972D01*
G01X80078Y11942D01*
G01X80033Y11911D01*
G01X79990Y11878D01*
G01X79947Y11844D01*
G01X79906Y11808D01*
G01X79866Y11771D01*
G01X79828Y11732D01*
G01X79791Y11691D01*
G01X79755Y11650D01*
G01X79721Y11607D01*
G01X79689Y11562D01*
G01X79659Y11517D01*
G01X79630Y11470D01*
G01X79603Y11423D01*
G01X79578Y11374D01*
G01X79555Y11325D01*
G01X79533Y11274D01*
G01X79514Y11223D01*
G01X79496Y11171D01*
G01X79480Y11119D01*
G01X79467Y11066D01*
G01X79455Y11013D01*
G01X80220Y11013D01*
G37*
G36*
G01X70912Y9044D02*
G01X70147Y9044D01*
G01X70147Y8032D01*
G01X70195Y8058D01*
G01X70242Y8085D01*
G01X70289Y8115D01*
G01X70334Y8146D01*
G01X70377Y8178D01*
G01X70420Y8213D01*
G01X70461Y8249D01*
G01X70501Y8286D01*
G01X70539Y8325D01*
G01X70576Y8366D01*
G01X70612Y8407D01*
G01X70646Y8450D01*
G01X70678Y8495D01*
G01X70708Y8540D01*
G01X70737Y8587D01*
G01X70764Y8634D01*
G01X70789Y8683D01*
G01X70812Y8732D01*
G01X70834Y8783D01*
G01X70853Y8834D01*
G01X70871Y8885D01*
G01X70887Y8938D01*
G01X70900Y8991D01*
G01X70912Y9044D01*
G37*
G36*
G01X82312Y9044D02*
G01X81547Y9044D01*
G01X81547Y8032D01*
G01X81595Y8058D01*
G01X81642Y8085D01*
G01X81689Y8115D01*
G01X81734Y8146D01*
G01X81777Y8178D01*
G01X81820Y8213D01*
G01X81861Y8249D01*
G01X81901Y8286D01*
G01X81939Y8325D01*
G01X81976Y8366D01*
G01X82012Y8407D01*
G01X82046Y8450D01*
G01X82078Y8495D01*
G01X82108Y8540D01*
G01X82137Y8587D01*
G01X82164Y8634D01*
G01X82189Y8683D01*
G01X82212Y8732D01*
G01X82234Y8783D01*
G01X82253Y8834D01*
G01X82271Y8885D01*
G01X82287Y8938D01*
G01X82300Y8991D01*
G01X82312Y9044D01*
G37*
G36*
G01X68820Y9044D02*
G01X68055Y9044D01*
G01X68067Y8991D01*
G01X68080Y8938D01*
G01X68096Y8885D01*
G01X68114Y8834D01*
G01X68133Y8783D01*
G01X68155Y8732D01*
G01X68178Y8683D01*
G01X68203Y8634D01*
G01X68230Y8587D01*
G01X68259Y8540D01*
G01X68289Y8495D01*
G01X68321Y8450D01*
G01X68355Y8407D01*
G01X68391Y8366D01*
G01X68428Y8325D01*
G01X68466Y8286D01*
G01X68506Y8249D01*
G01X68547Y8213D01*
G01X68590Y8178D01*
G01X68633Y8146D01*
G01X68678Y8115D01*
G01X68725Y8085D01*
G01X68772Y8058D01*
G01X68820Y8032D01*
G01X68820Y9044D01*
G37*
G36*
G01X68820Y11013D02*
G01X68820Y12025D01*
G01X68772Y11999D01*
G01X68725Y11972D01*
G01X68678Y11942D01*
G01X68633Y11911D01*
G01X68590Y11878D01*
G01X68547Y11844D01*
G01X68506Y11808D01*
G01X68466Y11771D01*
G01X68428Y11732D01*
G01X68391Y11691D01*
G01X68355Y11650D01*
G01X68321Y11607D01*
G01X68289Y11562D01*
G01X68259Y11517D01*
G01X68230Y11470D01*
G01X68203Y11423D01*
G01X68178Y11374D01*
G01X68155Y11325D01*
G01X68133Y11274D01*
G01X68114Y11223D01*
G01X68096Y11171D01*
G01X68080Y11119D01*
G01X68067Y11066D01*
G01X68055Y11013D01*
G01X68820Y11013D01*
G37*
G36*
G01X81595Y11999D02*
G01X81547Y12025D01*
G01X81547Y11013D01*
G01X82312Y11013D01*
G01X82300Y11066D01*
G01X82287Y11119D01*
G01X82271Y11171D01*
G01X82253Y11223D01*
G01X82234Y11274D01*
G01X82212Y11325D01*
G01X82189Y11374D01*
G01X82164Y11423D01*
G01X82137Y11470D01*
G01X82108Y11517D01*
G01X82078Y11562D01*
G01X82046Y11607D01*
G01X82012Y11650D01*
G01X81976Y11691D01*
G01X81939Y11732D01*
G01X81901Y11771D01*
G01X81861Y11808D01*
G01X81820Y11844D01*
G01X81777Y11878D01*
G01X81734Y11911D01*
G01X81689Y11942D01*
G01X81642Y11972D01*
G01X81595Y11999D01*
G37*
G36*
G01X80220Y9044D02*
G01X79455Y9044D01*
G01X79467Y8991D01*
G01X79480Y8938D01*
G01X79496Y8885D01*
G01X79514Y8834D01*
G01X79533Y8783D01*
G01X79555Y8732D01*
G01X79578Y8683D01*
G01X79603Y8634D01*
G01X79630Y8587D01*
G01X79659Y8540D01*
G01X79689Y8495D01*
G01X79721Y8450D01*
G01X79755Y8407D01*
G01X79791Y8366D01*
G01X79828Y8325D01*
G01X79866Y8286D01*
G01X79906Y8249D01*
G01X79947Y8213D01*
G01X79990Y8178D01*
G01X80033Y8146D01*
G01X80078Y8115D01*
G01X80125Y8085D01*
G01X80172Y8058D01*
G01X80220Y8032D01*
G01X80220Y9044D01*
G37*
G36*
G01X70195Y11999D02*
G01X70147Y12025D01*
G01X70147Y11013D01*
G01X70912Y11013D01*
G01X70900Y11066D01*
G01X70887Y11119D01*
G01X70871Y11171D01*
G01X70853Y11223D01*
G01X70834Y11274D01*
G01X70812Y11325D01*
G01X70789Y11374D01*
G01X70764Y11423D01*
G01X70737Y11470D01*
G01X70708Y11517D01*
G01X70678Y11562D01*
G01X70646Y11607D01*
G01X70612Y11650D01*
G01X70576Y11691D01*
G01X70539Y11732D01*
G01X70501Y11771D01*
G01X70461Y11808D01*
G01X70420Y11844D01*
G01X70377Y11878D01*
G01X70334Y11911D01*
G01X70289Y11942D01*
G01X70242Y11972D01*
G01X70195Y11999D01*
G37*
G36*
G01X74670Y3042D02*
G01X74670Y3565D01*
G01X74626Y3542D01*
G01X74582Y3516D01*
G01X74540Y3489D01*
G01X74499Y3461D01*
G01X74459Y3430D01*
G01X74421Y3398D01*
G01X74384Y3364D01*
G01X74348Y3328D01*
G01X74314Y3291D01*
G01X74282Y3253D01*
G01X74251Y3213D01*
G01X74223Y3172D01*
G01X74196Y3130D01*
G01X74170Y3087D01*
G01X74147Y3042D01*
G01X74670Y3042D01*
G37*
G36*
G01X76220Y2015D02*
G01X75697Y2015D01*
G01X75697Y1492D01*
G01X75741Y1516D01*
G01X75785Y1541D01*
G01X75827Y1568D01*
G01X75868Y1597D01*
G01X75908Y1627D01*
G01X75946Y1659D01*
G01X75983Y1693D01*
G01X76019Y1729D01*
G01X76053Y1766D01*
G01X76085Y1804D01*
G01X76116Y1844D01*
G01X76144Y1885D01*
G01X76171Y1927D01*
G01X76197Y1971D01*
G01X76220Y2015D01*
G37*
G36*
G01X72170Y17542D02*
G01X72170Y18065D01*
G01X72126Y18041D01*
G01X72082Y18016D01*
G01X72040Y17989D01*
G01X71999Y17960D01*
G01X71959Y17930D01*
G01X71921Y17898D01*
G01X71884Y17864D01*
G01X71848Y17828D01*
G01X71814Y17791D01*
G01X71782Y17753D01*
G01X71752Y17713D01*
G01X71723Y17672D01*
G01X71696Y17630D01*
G01X71671Y17586D01*
G01X71647Y17542D01*
G01X72170Y17542D01*
G37*
G36*
G01X73242Y18041D02*
G01X73197Y18065D01*
G01X73197Y17542D01*
G01X73720Y17542D01*
G01X73697Y17586D01*
G01X73672Y17630D01*
G01X73645Y17672D01*
G01X73616Y17713D01*
G01X73585Y17753D01*
G01X73553Y17791D01*
G01X73519Y17828D01*
G01X73483Y17864D01*
G01X73447Y17898D01*
G01X73408Y17930D01*
G01X73368Y17960D01*
G01X73327Y17989D01*
G01X73285Y18016D01*
G01X73242Y18041D01*
G37*
G36*
G01X75741Y3542D02*
G01X75697Y3565D01*
G01X75697Y3042D01*
G01X76220Y3042D01*
G01X76197Y3087D01*
G01X76171Y3130D01*
G01X76144Y3172D01*
G01X76116Y3213D01*
G01X76085Y3253D01*
G01X76053Y3291D01*
G01X76019Y3328D01*
G01X75983Y3364D01*
G01X75946Y3398D01*
G01X75908Y3430D01*
G01X75868Y3461D01*
G01X75827Y3489D01*
G01X75785Y3516D01*
G01X75741Y3542D01*
G37*
G36*
G01X74670Y2015D02*
G01X74147Y2015D01*
G01X74170Y1971D01*
G01X74196Y1927D01*
G01X74223Y1885D01*
G01X74251Y1844D01*
G01X74282Y1804D01*
G01X74314Y1766D01*
G01X74348Y1729D01*
G01X74384Y1693D01*
G01X74421Y1659D01*
G01X74459Y1627D01*
G01X74499Y1597D01*
G01X74540Y1568D01*
G01X74582Y1541D01*
G01X74626Y1516D01*
G01X74670Y1492D01*
G01X74670Y2015D01*
G37*
G36*
G01X32475Y23500D02*
G01X32432Y23522D01*
G01X32432Y23050D01*
G01X32904Y23050D01*
G01X32882Y23093D01*
G01X32857Y23135D01*
G01X32831Y23176D01*
G01X32803Y23216D01*
G01X32773Y23254D01*
G01X32741Y23291D01*
G01X32708Y23326D01*
G01X32673Y23359D01*
G01X32636Y23391D01*
G01X32598Y23421D01*
G01X32558Y23449D01*
G01X32517Y23475D01*
G01X32475Y23500D01*
G37*

%LPD*%
G36*
G01X60849Y11808D02*
G01X49896Y11808D01*
G01X49880Y11807D01*
G01X49864Y11803D01*
G01X49849Y11797D01*
G01X49836Y11789D01*
G01X49824Y11778D01*
G01X40848Y2802D01*
G01X40837Y2790D01*
G01X40829Y2776D01*
G01X40823Y2762D01*
G01X40819Y2746D01*
G01X40818Y2730D01*
G01X40820Y2710D01*
G01X40826Y2690D01*
G01X40847Y2636D01*
G01X40866Y2581D01*
G01X40882Y2525D01*
G01X40896Y2469D01*
G01X40905Y2420D01*
G01X40912Y2371D01*
G01X40917Y2321D01*
G01X40920Y2272D01*
G01X40921Y2222D01*
G01X40920Y2172D01*
G01X40917Y2123D01*
G01X40912Y2073D01*
G01X40905Y2024D01*
G01X40896Y1975D01*
G01X40884Y1926D01*
G01X40871Y1878D01*
G01X40855Y1830D01*
G01X40838Y1783D01*
G01X40818Y1736D01*
G01X40797Y1691D01*
G01X40774Y1646D01*
G01X40749Y1603D01*
G01X40722Y1560D01*
G01X40693Y1519D01*
G01X40663Y1479D01*
G01X40631Y1440D01*
G01X40622Y1428D01*
G01X40615Y1416D01*
G01X40610Y1402D01*
G01X40607Y1388D01*
G01X40606Y1374D01*
G01X40607Y1359D01*
G01X40610Y1345D01*
G01X40615Y1331D01*
G01X40622Y1319D01*
G01X40631Y1307D01*
G01X40641Y1297D01*
G01X40652Y1288D01*
G01X40665Y1281D01*
G01X40679Y1276D01*
G01X40693Y1273D01*
G01X40707Y1272D01*
G01X41283Y1272D01*
G01X41297Y1273D01*
G01X41311Y1276D01*
G01X41325Y1281D01*
G01X41338Y1288D01*
G01X41349Y1297D01*
G01X41360Y1307D01*
G01X41368Y1319D01*
G01X41375Y1331D01*
G01X41380Y1345D01*
G01X41383Y1359D01*
G01X41384Y1374D01*
G01X41383Y1388D01*
G01X41380Y1402D01*
G01X41375Y1416D01*
G01X41368Y1428D01*
G01X41360Y1440D01*
G01X41328Y1478D01*
G01X41298Y1518D01*
G01X41269Y1559D01*
G01X41242Y1601D01*
G01X41217Y1644D01*
G01X41194Y1689D01*
G01X41732Y1689D01*
G01X41732Y1374D01*
G01X41733Y1359D01*
G01X41736Y1345D01*
G01X41741Y1331D01*
G01X41748Y1319D01*
G01X41757Y1307D01*
G01X41767Y1297D01*
G01X41778Y1288D01*
G01X41791Y1281D01*
G01X41805Y1276D01*
G01X41819Y1273D01*
G01X41833Y1272D01*
G01X42697Y1272D01*
G01X42711Y1273D01*
G01X42726Y1276D01*
G01X42739Y1281D01*
G01X42752Y1288D01*
G01X42763Y1297D01*
G01X42774Y1307D01*
G01X42782Y1319D01*
G01X42789Y1331D01*
G01X42794Y1345D01*
G01X42797Y1359D01*
G01X42799Y1374D01*
G01X42799Y1689D01*
G01X43336Y1689D01*
G01X43313Y1644D01*
G01X43288Y1601D01*
G01X43261Y1559D01*
G01X43233Y1518D01*
G01X43202Y1478D01*
G01X43171Y1440D01*
G01X43162Y1428D01*
G01X43155Y1416D01*
G01X43150Y1402D01*
G01X43147Y1388D01*
G01X43146Y1374D01*
G01X43147Y1359D01*
G01X43150Y1345D01*
G01X43155Y1331D01*
G01X43162Y1319D01*
G01X43171Y1307D01*
G01X43181Y1297D01*
G01X43192Y1288D01*
G01X43205Y1281D01*
G01X43219Y1276D01*
G01X43233Y1273D01*
G01X43247Y1272D01*
G01X43823Y1272D01*
G01X43837Y1273D01*
G01X43851Y1276D01*
G01X43865Y1281D01*
G01X43878Y1288D01*
G01X43889Y1297D01*
G01X43900Y1307D01*
G01X43908Y1319D01*
G01X43915Y1331D01*
G01X43920Y1345D01*
G01X43923Y1359D01*
G01X43924Y1374D01*
G01X43923Y1388D01*
G01X43920Y1402D01*
G01X43915Y1416D01*
G01X43908Y1428D01*
G01X43900Y1440D01*
G01X43868Y1479D01*
G01X43837Y1519D01*
G01X43809Y1560D01*
G01X43782Y1603D01*
G01X43756Y1646D01*
G01X43733Y1691D01*
G01X43712Y1736D01*
G01X43692Y1783D01*
G01X43675Y1830D01*
G01X43659Y1878D01*
G01X43646Y1926D01*
G01X43635Y1975D01*
G01X43625Y2024D01*
G01X43618Y2073D01*
G01X43613Y2123D01*
G01X43610Y2172D01*
G01X43609Y2222D01*
G01X43610Y2272D01*
G01X43613Y2321D01*
G01X43618Y2371D01*
G01X43625Y2420D01*
G01X43635Y2469D01*
G01X43646Y2517D01*
G01X43659Y2565D01*
G01X43674Y2612D01*
G01X43691Y2658D01*
G01X43710Y2704D01*
G01X43731Y2748D01*
G01X43753Y2792D01*
G01X43778Y2835D01*
G01X43804Y2877D01*
G01X43832Y2918D01*
G01X43862Y2958D01*
G01X43893Y2996D01*
G01X43926Y3033D01*
G01X43960Y3069D01*
G01X43995Y3103D01*
G01X44032Y3135D01*
G01X44071Y3167D01*
G01X44110Y3196D01*
G01X44151Y3224D01*
G01X44193Y3250D01*
G01X44236Y3274D01*
G01X44280Y3297D01*
G01X44325Y3318D01*
G01X44371Y3337D01*
G01X44417Y3354D01*
G01X44464Y3369D01*
G01X44512Y3382D01*
G01X44560Y3393D01*
G01X44608Y3402D01*
G01X44657Y3409D01*
G01X44706Y3414D01*
G01X44756Y3417D01*
G01X44805Y3418D01*
G01X44859Y3417D01*
G01X44912Y3414D01*
G01X44965Y3408D01*
G01X45018Y3399D01*
G01X45070Y3389D01*
G01X45122Y3376D01*
G01X45173Y3360D01*
G01X45224Y3343D01*
G01X45274Y3323D01*
G01X45293Y3317D01*
G01X45313Y3315D01*
G01X45329Y3316D01*
G01X45345Y3320D01*
G01X45359Y3326D01*
G01X45373Y3334D01*
G01X45385Y3344D01*
G01X51582Y9542D01*
G01X51605Y9562D01*
G01X51628Y9581D01*
G01X51653Y9598D01*
G01X51679Y9612D01*
G01X51707Y9625D01*
G01X51735Y9635D01*
G01X51764Y9643D01*
G01X51794Y9649D01*
G01X51824Y9653D01*
G01X51854Y9654D01*
G01X54034Y9654D01*
G01X54049Y9655D01*
G01X54063Y9658D01*
G01X54077Y9663D01*
G01X54089Y9670D01*
G01X54101Y9679D01*
G01X54111Y9689D01*
G01X54120Y9701D01*
G01X54127Y9713D01*
G01X54132Y9727D01*
G01X54135Y9741D01*
G01X54136Y9756D01*
G01X54136Y9851D01*
G01X54137Y9874D01*
G01X54140Y9898D01*
G01X54146Y9921D01*
G01X54153Y9943D01*
G01X54163Y9965D01*
G01X54174Y9986D01*
G01X54188Y10005D01*
G01X54203Y10023D01*
G01X54220Y10040D01*
G01X54238Y10055D01*
G01X54257Y10069D01*
G01X54278Y10080D01*
G01X54300Y10090D01*
G01X54322Y10097D01*
G01X54345Y10103D01*
G01X54369Y10106D01*
G01X54393Y10107D01*
G01X55842Y10107D01*
G01X55866Y10106D01*
G01X55890Y10103D01*
G01X55913Y10097D01*
G01X55935Y10090D01*
G01X55957Y10080D01*
G01X55978Y10069D01*
G01X55997Y10055D01*
G01X56015Y10040D01*
G01X56032Y10023D01*
G01X56047Y10005D01*
G01X56061Y9986D01*
G01X56072Y9965D01*
G01X56082Y9943D01*
G01X56089Y9921D01*
G01X56095Y9898D01*
G01X56098Y9874D01*
G01X56099Y9851D01*
G01X56099Y8690D01*
G01X56098Y8667D01*
G01X56095Y8643D01*
G01X56089Y8620D01*
G01X56082Y8598D01*
G01X56072Y8576D01*
G01X56061Y8555D01*
G01X56047Y8536D01*
G01X56032Y8518D01*
G01X56015Y8501D01*
G01X55997Y8486D01*
G01X55978Y8472D01*
G01X55957Y8461D01*
G01X55935Y8451D01*
G01X55913Y8444D01*
G01X55890Y8438D01*
G01X55866Y8435D01*
G01X55842Y8434D01*
G01X54393Y8434D01*
G01X54369Y8435D01*
G01X54345Y8438D01*
G01X54322Y8444D01*
G01X54300Y8451D01*
G01X54278Y8461D01*
G01X54257Y8472D01*
G01X54238Y8486D01*
G01X54220Y8501D01*
G01X54203Y8518D01*
G01X54188Y8536D01*
G01X54174Y8555D01*
G01X54163Y8576D01*
G01X54153Y8598D01*
G01X54146Y8620D01*
G01X54140Y8643D01*
G01X54137Y8667D01*
G01X54136Y8690D01*
G01X54136Y8785D01*
G01X54135Y8800D01*
G01X54132Y8814D01*
G01X54127Y8828D01*
G01X54120Y8840D01*
G01X54111Y8852D01*
G01X54101Y8862D01*
G01X54089Y8871D01*
G01X54077Y8878D01*
G01X54063Y8883D01*
G01X54049Y8886D01*
G01X54034Y8887D01*
G01X52055Y8887D01*
G01X52039Y8886D01*
G01X52023Y8882D01*
G01X52008Y8876D01*
G01X51995Y8868D01*
G01X51983Y8857D01*
G01X45928Y2802D01*
G01X45917Y2790D01*
G01X45909Y2776D01*
G01X45903Y2762D01*
G01X45899Y2746D01*
G01X45898Y2730D01*
G01X45900Y2710D01*
G01X45906Y2690D01*
G01X45927Y2636D01*
G01X45946Y2581D01*
G01X45962Y2525D01*
G01X45976Y2469D01*
G01X45980Y2454D01*
G01X45986Y2440D01*
G01X45995Y2427D01*
G01X46005Y2416D01*
G01X46017Y2406D01*
G01X46031Y2399D01*
G01X46045Y2393D01*
G01X46060Y2389D01*
G01X46075Y2388D01*
G01X46090Y2389D01*
G01X46105Y2393D01*
G01X46120Y2399D01*
G01X46133Y2406D01*
G01X46145Y2416D01*
G01X46155Y2427D01*
G01X46164Y2440D01*
G01X46170Y2454D01*
G01X46175Y2469D01*
G01X46186Y2517D01*
G01X46199Y2565D01*
G01X46214Y2612D01*
G01X46231Y2658D01*
G01X46250Y2704D01*
G01X46271Y2748D01*
G01X46293Y2792D01*
G01X46318Y2835D01*
G01X46344Y2877D01*
G01X46372Y2918D01*
G01X46402Y2958D01*
G01X46433Y2996D01*
G01X46466Y3033D01*
G01X46500Y3069D01*
G01X46535Y3103D01*
G01X46572Y3135D01*
G01X46611Y3167D01*
G01X46650Y3196D01*
G01X46691Y3224D01*
G01X46733Y3250D01*
G01X46776Y3274D01*
G01X46820Y3297D01*
G01X46865Y3318D01*
G01X46911Y3337D01*
G01X46957Y3354D01*
G01X47004Y3369D01*
G01X47052Y3382D01*
G01X47100Y3393D01*
G01X47148Y3402D01*
G01X47197Y3409D01*
G01X47246Y3414D01*
G01X47296Y3417D01*
G01X47345Y3418D01*
G01X47399Y3417D01*
G01X47452Y3414D01*
G01X47505Y3408D01*
G01X47558Y3399D01*
G01X47610Y3389D01*
G01X47662Y3376D01*
G01X47713Y3360D01*
G01X47764Y3343D01*
G01X47814Y3323D01*
G01X47833Y3317D01*
G01X47853Y3315D01*
G01X47869Y3316D01*
G01X47885Y3320D01*
G01X47899Y3326D01*
G01X47913Y3334D01*
G01X47925Y3344D01*
G01X48407Y3827D01*
G01X48430Y3847D01*
G01X48453Y3866D01*
G01X48478Y3883D01*
G01X48504Y3897D01*
G01X48532Y3910D01*
G01X48560Y3920D01*
G01X48589Y3928D01*
G01X48619Y3934D01*
G01X48649Y3938D01*
G01X48679Y3939D01*
G01X54545Y3939D01*
G01X54560Y3940D01*
G01X54574Y3943D01*
G01X54588Y3948D01*
G01X54600Y3955D01*
G01X54612Y3964D01*
G01X54622Y3974D01*
G01X54631Y3986D01*
G01X54638Y3998D01*
G01X54643Y4012D01*
G01X54646Y4026D01*
G01X54647Y4041D01*
G01X54646Y4056D01*
G01X54642Y4071D01*
G01X54637Y4085D01*
G01X54629Y4098D01*
G01X54602Y4139D01*
G01X54577Y4182D01*
G01X54554Y4225D01*
G01X54533Y4269D01*
G01X54514Y4315D01*
G01X54497Y4361D01*
G01X54483Y4408D01*
G01X54470Y4455D01*
G01X54460Y4503D01*
G01X54452Y4552D01*
G01X54447Y4600D01*
G01X54443Y4649D01*
G01X54442Y4698D01*
G01X54443Y4746D01*
G01X54446Y4794D01*
G01X54452Y4842D01*
G01X54459Y4889D01*
G01X54469Y4936D01*
G01X54481Y4983D01*
G01X54495Y5028D01*
G01X54511Y5074D01*
G01X54529Y5118D01*
G01X54549Y5162D01*
G01X54571Y5204D01*
G01X54595Y5246D01*
G01X54620Y5286D01*
G01X54648Y5325D01*
G01X54677Y5363D01*
G01X54708Y5400D01*
G01X54717Y5412D01*
G01X54724Y5424D01*
G01X54730Y5438D01*
G01X54733Y5453D01*
G01X54734Y5467D01*
G01X54734Y6300D01*
G01X54733Y6315D01*
G01X54730Y6329D01*
G01X54725Y6343D01*
G01X54718Y6355D01*
G01X54709Y6367D01*
G01X54699Y6377D01*
G01X54687Y6386D01*
G01X54675Y6393D01*
G01X54661Y6398D01*
G01X54647Y6401D01*
G01X54632Y6402D01*
G01X54393Y6402D01*
G01X54369Y6403D01*
G01X54345Y6406D01*
G01X54322Y6412D01*
G01X54300Y6419D01*
G01X54278Y6429D01*
G01X54257Y6440D01*
G01X54238Y6454D01*
G01X54220Y6469D01*
G01X54203Y6486D01*
G01X54188Y6504D01*
G01X54174Y6523D01*
G01X54163Y6544D01*
G01X54153Y6566D01*
G01X54146Y6588D01*
G01X54140Y6611D01*
G01X54137Y6635D01*
G01X54136Y6658D01*
G01X54136Y7819D01*
G01X54137Y7842D01*
G01X54140Y7866D01*
G01X54146Y7889D01*
G01X54153Y7911D01*
G01X54163Y7933D01*
G01X54174Y7954D01*
G01X54188Y7973D01*
G01X54203Y7991D01*
G01X54220Y8008D01*
G01X54238Y8023D01*
G01X54257Y8037D01*
G01X54278Y8048D01*
G01X54300Y8058D01*
G01X54322Y8065D01*
G01X54345Y8071D01*
G01X54369Y8074D01*
G01X54393Y8075D01*
G01X55842Y8075D01*
G01X55866Y8074D01*
G01X55890Y8071D01*
G01X55913Y8065D01*
G01X55935Y8058D01*
G01X55957Y8048D01*
G01X55978Y8037D01*
G01X55997Y8023D01*
G01X56015Y8008D01*
G01X56032Y7991D01*
G01X56047Y7973D01*
G01X56061Y7954D01*
G01X56072Y7933D01*
G01X56082Y7911D01*
G01X56089Y7889D01*
G01X56095Y7866D01*
G01X56098Y7842D01*
G01X56099Y7819D01*
G01X56099Y6658D01*
G01X56098Y6635D01*
G01X56095Y6611D01*
G01X56089Y6588D01*
G01X56082Y6566D01*
G01X56072Y6544D01*
G01X56061Y6523D01*
G01X56047Y6504D01*
G01X56032Y6486D01*
G01X56015Y6469D01*
G01X55997Y6454D01*
G01X55978Y6440D01*
G01X55957Y6429D01*
G01X55935Y6419D01*
G01X55913Y6412D01*
G01X55890Y6406D01*
G01X55866Y6403D01*
G01X55842Y6402D01*
G01X55603Y6402D01*
G01X55588Y6401D01*
G01X55574Y6398D01*
G01X55560Y6393D01*
G01X55548Y6386D01*
G01X55536Y6377D01*
G01X55526Y6367D01*
G01X55517Y6355D01*
G01X55510Y6343D01*
G01X55505Y6329D01*
G01X55502Y6315D01*
G01X55501Y6300D01*
G01X55501Y5852D01*
G01X55502Y5837D01*
G01X55505Y5822D01*
G01X55511Y5808D01*
G01X55518Y5795D01*
G01X55528Y5783D01*
G01X55539Y5773D01*
G01X55551Y5765D01*
G01X55564Y5758D01*
G01X55579Y5753D01*
G01X55594Y5751D01*
G01X55641Y5745D01*
G01X55687Y5738D01*
G01X55734Y5728D01*
G01X55780Y5717D01*
G01X55825Y5703D01*
G01X55870Y5688D01*
G01X55914Y5670D01*
G01X55957Y5650D01*
G01X55999Y5629D01*
G01X56041Y5605D01*
G01X56081Y5580D01*
G01X56120Y5553D01*
G01X56157Y5524D01*
G01X56194Y5494D01*
G01X56229Y5462D01*
G01X56262Y5429D01*
G01X56294Y5394D01*
G01X56325Y5357D01*
G01X56353Y5319D01*
G01X56380Y5280D01*
G01X56406Y5240D01*
G01X56429Y5199D01*
G01X56450Y5157D01*
G01X56470Y5114D01*
G01X56488Y5070D01*
G01X56503Y5025D01*
G01X56517Y4980D01*
G01X56529Y4934D01*
G01X56538Y4887D01*
G01X56545Y4840D01*
G01X56551Y4793D01*
G01X56554Y4746D01*
G01X56555Y4699D01*
G01X56554Y4649D01*
G01X56550Y4600D01*
G01X56545Y4552D01*
G01X56537Y4503D01*
G01X56527Y4455D01*
G01X56514Y4408D01*
G01X56500Y4361D01*
G01X56483Y4315D01*
G01X56464Y4269D01*
G01X56443Y4225D01*
G01X56420Y4182D01*
G01X56395Y4139D01*
G01X56368Y4098D01*
G01X56360Y4085D01*
G01X56355Y4071D01*
G01X56351Y4056D01*
G01X56350Y4041D01*
G01X56351Y4026D01*
G01X56354Y4012D01*
G01X56359Y3998D01*
G01X56366Y3986D01*
G01X56375Y3974D01*
G01X56385Y3964D01*
G01X56397Y3955D01*
G01X56409Y3948D01*
G01X56423Y3943D01*
G01X56437Y3940D01*
G01X56452Y3939D01*
G01X56642Y3939D01*
G01X56670Y3938D01*
G01X56698Y3935D01*
G01X56725Y3930D01*
G01X56753Y3923D01*
G01X56779Y3913D01*
G01X56805Y3902D01*
G01X56830Y3889D01*
G01X56846Y3882D01*
G01X56863Y3878D01*
G01X56880Y3876D01*
G01X56895Y3877D01*
G01X56909Y3880D01*
G01X56923Y3885D01*
G01X56935Y3892D01*
G01X56947Y3901D01*
G01X56957Y3911D01*
G01X56966Y3923D01*
G01X56973Y3936D01*
G01X56978Y3949D01*
G01X56981Y3963D01*
G01X56982Y3978D01*
G01X56982Y4235D01*
G01X57575Y4235D01*
G01X57575Y3642D01*
G01X57343Y3642D01*
G01X57328Y3641D01*
G01X57314Y3638D01*
G01X57301Y3633D01*
G01X57288Y3626D01*
G01X57276Y3617D01*
G01X57266Y3607D01*
G01X57257Y3595D01*
G01X57250Y3583D01*
G01X57245Y3569D01*
G01X57242Y3555D01*
G01X57241Y3540D01*
G01X57242Y3524D01*
G01X57246Y3509D01*
G01X57252Y3494D01*
G01X57261Y3481D01*
G01X57271Y3469D01*
G01X57566Y3173D01*
G01X57578Y3163D01*
G01X57592Y3155D01*
G01X57607Y3149D01*
G01X57622Y3145D01*
G01X57638Y3144D01*
G01X57656Y3145D01*
G01X57673Y3150D01*
G01X57717Y3165D01*
G01X57762Y3178D01*
G01X57807Y3189D01*
G01X57853Y3199D01*
G01X57899Y3206D01*
G01X57945Y3211D01*
G01X57992Y3214D01*
G01X58039Y3215D01*
G01X58086Y3214D01*
G01X58133Y3211D01*
G01X58180Y3205D01*
G01X58227Y3198D01*
G01X58274Y3189D01*
G01X58320Y3177D01*
G01X58365Y3163D01*
G01X58410Y3148D01*
G01X58454Y3130D01*
G01X58497Y3110D01*
G01X58539Y3089D01*
G01X58580Y3065D01*
G01X58621Y3040D01*
G01X58660Y3013D01*
G01X58697Y2985D01*
G01X58734Y2954D01*
G01X58769Y2922D01*
G01X58802Y2889D01*
G01X58834Y2854D01*
G01X58865Y2817D01*
G01X58893Y2780D01*
G01X58920Y2741D01*
G01X58945Y2700D01*
G01X58969Y2659D01*
G01X58990Y2617D01*
G01X59010Y2574D01*
G01X59028Y2530D01*
G01X59043Y2485D01*
G01X59057Y2440D01*
G01X59069Y2394D01*
G01X59078Y2347D01*
G01X59085Y2300D01*
G01X59091Y2253D01*
G01X59094Y2206D01*
G01X59095Y2159D01*
G01X59094Y2109D01*
G01X59090Y2060D01*
G01X59085Y2011D01*
G01X59077Y1963D01*
G01X59067Y1915D01*
G01X59054Y1867D01*
G01X59039Y1820D01*
G01X59023Y1774D01*
G01X59004Y1729D01*
G01X58983Y1684D01*
G01X58960Y1641D01*
G01X58935Y1599D01*
G01X58908Y1558D01*
G01X58879Y1518D01*
G01X58848Y1479D01*
G01X58815Y1442D01*
G01X58806Y1431D01*
G01X58799Y1418D01*
G01X58793Y1403D01*
G01X58790Y1389D01*
G01X58789Y1374D01*
G01X58790Y1359D01*
G01X58793Y1345D01*
G01X58798Y1331D01*
G01X58805Y1319D01*
G01X58813Y1307D01*
G01X58824Y1297D01*
G01X58835Y1288D01*
G01X58848Y1281D01*
G01X58862Y1276D01*
G01X58876Y1273D01*
G01X58890Y1272D01*
G01X61140Y1272D01*
G01X61155Y1273D01*
G01X61171Y1277D01*
G01X61186Y1283D01*
G01X61199Y1291D01*
G01X61211Y1302D01*
G01X61843Y1934D01*
G01X61853Y1946D01*
G01X61862Y1959D01*
G01X61868Y1974D01*
G01X61872Y1989D01*
G01X61873Y2005D01*
G01X61872Y2020D01*
G01X61869Y2034D01*
G01X61864Y2048D01*
G01X61857Y2060D01*
G01X61848Y2072D01*
G01X61838Y2082D01*
G01X61826Y2091D01*
G01X61813Y2098D01*
G01X61800Y2103D01*
G01X61786Y2106D01*
G01X61771Y2107D01*
G01X60776Y2107D01*
G01X60750Y2108D01*
G01X60725Y2112D01*
G01X60419Y2173D01*
G01X60395Y2179D01*
G01X60372Y2187D01*
G01X60349Y2198D01*
G01X60327Y2211D01*
G01X60067Y2384D01*
G01X60047Y2399D01*
G01X60028Y2416D01*
G01X60011Y2435D01*
G01X59996Y2455D01*
G01X59823Y2715D01*
G01X59810Y2737D01*
G01X59799Y2760D01*
G01X59791Y2783D01*
G01X59785Y2807D01*
G01X59724Y3113D01*
G01X59720Y3138D01*
G01X59719Y3164D01*
G01X59720Y3189D01*
G01X59724Y3214D01*
G01X59785Y3520D01*
G01X59791Y3544D01*
G01X59799Y3567D01*
G01X59810Y3590D01*
G01X59823Y3612D01*
G01X59996Y3872D01*
G01X60011Y3892D01*
G01X60028Y3911D01*
G01X60047Y3928D01*
G01X60067Y3943D01*
G01X60272Y4079D01*
G01X60285Y4089D01*
G01X60296Y4102D01*
G01X60305Y4116D01*
G01X60311Y4131D01*
G01X60316Y4147D01*
G01X60317Y4163D01*
G01X60316Y4180D01*
G01X60311Y4196D01*
G01X60305Y4211D01*
G01X60296Y4225D01*
G01X60285Y4238D01*
G01X60272Y4248D01*
G01X60067Y4384D01*
G01X60047Y4399D01*
G01X60028Y4416D01*
G01X60011Y4435D01*
G01X59996Y4455D01*
G01X59823Y4715D01*
G01X59810Y4737D01*
G01X59799Y4760D01*
G01X59791Y4783D01*
G01X59785Y4807D01*
G01X59724Y5113D01*
G01X59720Y5138D01*
G01X59719Y5163D01*
G01X59720Y5189D01*
G01X59724Y5214D01*
G01X59785Y5520D01*
G01X59791Y5544D01*
G01X59799Y5567D01*
G01X59810Y5590D01*
G01X59823Y5612D01*
G01X59996Y5872D01*
G01X60011Y5892D01*
G01X60028Y5911D01*
G01X60047Y5928D01*
G01X60067Y5943D01*
G01X60327Y6116D01*
G01X60349Y6129D01*
G01X60372Y6140D01*
G01X60395Y6148D01*
G01X60419Y6154D01*
G01X60725Y6215D01*
G01X60750Y6219D01*
G01X60776Y6220D01*
G01X61976Y6220D01*
G01X61999Y6219D01*
G01X62023Y6216D01*
G01X62046Y6210D01*
G01X62068Y6203D01*
G01X62090Y6193D01*
G01X62111Y6182D01*
G01X62130Y6168D01*
G01X62148Y6153D01*
G01X62165Y6136D01*
G01X62180Y6118D01*
G01X62194Y6099D01*
G01X62205Y6078D01*
G01X62215Y6056D01*
G01X62222Y6034D01*
G01X62228Y6011D01*
G01X62231Y5987D01*
G01X62232Y5963D01*
G01X62232Y4473D01*
G01X62233Y4458D01*
G01X62236Y4444D01*
G01X62241Y4431D01*
G01X62248Y4418D01*
G01X62257Y4406D01*
G01X62267Y4396D01*
G01X62279Y4387D01*
G01X62291Y4380D01*
G01X62305Y4375D01*
G01X62319Y4372D01*
G01X62334Y4371D01*
G01X62350Y4372D01*
G01X62365Y4376D01*
G01X62380Y4382D01*
G01X62393Y4391D01*
G01X62405Y4401D01*
G01X63228Y5224D01*
G01X63249Y5243D01*
G01X63272Y5261D01*
G01X63295Y5277D01*
G01X63320Y5292D01*
G01X63346Y5304D01*
G01X63359Y5311D01*
G01X63371Y5319D01*
G01X63381Y5330D01*
G01X63390Y5341D01*
G01X63398Y5354D01*
G01X63403Y5368D01*
G01X63406Y5382D01*
G01X63407Y5397D01*
G01X63407Y6549D01*
G01X63408Y6572D01*
G01X63411Y6596D01*
G01X63417Y6619D01*
G01X63424Y6641D01*
G01X63434Y6663D01*
G01X63445Y6684D01*
G01X63459Y6703D01*
G01X63474Y6721D01*
G01X63491Y6738D01*
G01X63509Y6753D01*
G01X63528Y6767D01*
G01X63549Y6778D01*
G01X63571Y6788D01*
G01X63593Y6795D01*
G01X63616Y6801D01*
G01X63640Y6804D01*
G01X63664Y6805D01*
G01X63903Y6805D01*
G01X63918Y6806D01*
G01X63932Y6809D01*
G01X63946Y6814D01*
G01X63958Y6821D01*
G01X63970Y6830D01*
G01X63980Y6840D01*
G01X63989Y6852D01*
G01X63996Y6864D01*
G01X64001Y6878D01*
G01X64004Y6892D01*
G01X64005Y6907D01*
G01X64005Y8220D01*
G01X64004Y8236D01*
G01X64000Y8251D01*
G01X63994Y8266D01*
G01X63986Y8280D01*
G01X63975Y8292D01*
G01X62390Y9877D01*
G01X62378Y9888D01*
G01X62364Y9896D01*
G01X62349Y9902D01*
G01X62334Y9906D01*
G01X62318Y9907D01*
G01X62298Y9905D01*
G01X62280Y9900D01*
G01X62234Y9882D01*
G01X62187Y9867D01*
G01X62140Y9853D01*
G01X62092Y9842D01*
G01X62044Y9832D01*
G01X61995Y9825D01*
G01X61947Y9820D01*
G01X61898Y9816D01*
G01X61848Y9815D01*
G01X61800Y9816D01*
G01X61751Y9819D01*
G01X61703Y9825D01*
G01X61655Y9832D01*
G01X61607Y9841D01*
G01X61560Y9852D01*
G01X61513Y9866D01*
G01X61467Y9881D01*
G01X61421Y9898D01*
G01X61377Y9917D01*
G01X61333Y9938D01*
G01X61290Y9961D01*
G01X61248Y9985D01*
G01X61207Y10012D01*
G01X61167Y10040D01*
G01X61129Y10070D01*
G01X61092Y10101D01*
G01X61056Y10134D01*
G01X61021Y10168D01*
G01X60989Y10204D01*
G01X60957Y10241D01*
G01X60927Y10280D01*
G01X60899Y10319D01*
G01X60873Y10360D01*
G01X60848Y10402D01*
G01X60826Y10445D01*
G01X60805Y10489D01*
G01X60786Y10534D01*
G01X60768Y10579D01*
G01X60753Y10625D01*
G01X60740Y10672D01*
G01X60729Y10720D01*
G01X60719Y10767D01*
G01X60712Y10815D01*
G01X60707Y10864D01*
G01X60704Y10912D01*
G01X60703Y10961D01*
G01X60704Y11010D01*
G01X60707Y11059D01*
G01X60712Y11107D01*
G01X60720Y11156D01*
G01X60729Y11204D01*
G01X60740Y11251D01*
G01X60754Y11298D01*
G01X60769Y11345D01*
G01X60787Y11390D01*
G01X60806Y11435D01*
G01X60827Y11480D01*
G01X60850Y11523D01*
G01X60875Y11565D01*
G01X60902Y11606D01*
G01X60930Y11646D01*
G01X60939Y11659D01*
G01X60945Y11674D01*
G01X60949Y11690D01*
G01X60950Y11706D01*
G01X60949Y11721D01*
G01X60946Y11735D01*
G01X60941Y11749D01*
G01X60934Y11761D01*
G01X60925Y11773D01*
G01X60915Y11783D01*
G01X60904Y11792D01*
G01X60891Y11799D01*
G01X60877Y11804D01*
G01X60863Y11807D01*
G01X60849Y11808D01*
G37*

%LPC*%
G36*
G01X58838Y5755D02*
G01X58502Y5755D01*
G01X58502Y5162D01*
G01X59095Y5162D01*
G01X59095Y5498D01*
G01X59094Y5522D01*
G01X59091Y5546D01*
G01X59085Y5569D01*
G01X59078Y5591D01*
G01X59068Y5613D01*
G01X59057Y5634D01*
G01X59043Y5653D01*
G01X59028Y5671D01*
G01X59011Y5688D01*
G01X58993Y5703D01*
G01X58974Y5717D01*
G01X58953Y5728D01*
G01X58931Y5738D01*
G01X58909Y5745D01*
G01X58886Y5751D01*
G01X58862Y5754D01*
G01X58838Y5755D01*
G37*
G36*
G01X57575Y5755D02*
G01X57239Y5755D01*
G01X57215Y5754D01*
G01X57191Y5751D01*
G01X57168Y5745D01*
G01X57146Y5738D01*
G01X57124Y5728D01*
G01X57103Y5717D01*
G01X57084Y5703D01*
G01X57066Y5688D01*
G01X57049Y5671D01*
G01X57034Y5653D01*
G01X57020Y5634D01*
G01X57009Y5613D01*
G01X56999Y5591D01*
G01X56992Y5569D01*
G01X56986Y5546D01*
G01X56983Y5522D01*
G01X56982Y5498D01*
G01X56982Y5162D01*
G01X57575Y5162D01*
G01X57575Y5755D01*
G37*
G36*
G01X59095Y4235D02*
G01X58502Y4235D01*
G01X58502Y3642D01*
G01X58838Y3642D01*
G01X58862Y3643D01*
G01X58886Y3646D01*
G01X58909Y3652D01*
G01X58931Y3659D01*
G01X58953Y3669D01*
G01X58974Y3680D01*
G01X58993Y3694D01*
G01X59011Y3709D01*
G01X59028Y3726D01*
G01X59043Y3744D01*
G01X59057Y3763D01*
G01X59068Y3784D01*
G01X59078Y3806D01*
G01X59085Y3828D01*
G01X59091Y3851D01*
G01X59094Y3875D01*
G01X59095Y3899D01*
G01X59095Y4235D01*
G37*
G36*
G01X41732Y2755D02*
G01X41732Y3293D01*
G01X41686Y3269D01*
G01X41641Y3243D01*
G01X41598Y3215D01*
G01X41556Y3185D01*
G01X41515Y3154D01*
G01X41476Y3121D01*
G01X41438Y3086D01*
G01X41401Y3050D01*
G01X41366Y3012D01*
G01X41333Y2972D01*
G01X41302Y2931D01*
G01X41272Y2889D01*
G01X41244Y2846D01*
G01X41218Y2801D01*
G01X41194Y2755D01*
G01X41732Y2755D01*
G37*
G36*
G01X42844Y3269D02*
G01X42799Y3293D01*
G01X42799Y2755D01*
G01X43336Y2755D01*
G01X43312Y2801D01*
G01X43286Y2846D01*
G01X43258Y2889D01*
G01X43229Y2931D01*
G01X43197Y2972D01*
G01X43164Y3012D01*
G01X43129Y3050D01*
G01X43093Y3086D01*
G01X43055Y3121D01*
G01X43015Y3154D01*
G01X42974Y3185D01*
G01X42932Y3215D01*
G01X42889Y3243D01*
G01X42844Y3269D01*
G37*

%LPD*%
G36*
G01X25463Y16511D02*
G01X25447Y16512D01*
G01X25431Y16511D01*
G01X25416Y16507D01*
G01X25401Y16501D01*
G01X25388Y16493D01*
G01X25376Y16483D01*
G01X25338Y16448D01*
G01X25299Y16414D01*
G01X25259Y16382D01*
G01X25217Y16351D01*
G01X25174Y16323D01*
G01X25129Y16296D01*
G01X25084Y16271D01*
G01X25037Y16249D01*
G01X24990Y16228D01*
G01X24942Y16210D01*
G01X24893Y16193D01*
G01X24843Y16179D01*
G01X24793Y16167D01*
G01X24742Y16157D01*
G01X24691Y16149D01*
G01X24639Y16143D01*
G01X24588Y16140D01*
G01X24536Y16139D01*
G01X24482Y16140D01*
G01X24429Y16143D01*
G01X24376Y16149D01*
G01X24323Y16158D01*
G01X24271Y16168D01*
G01X24219Y16181D01*
G01X24168Y16197D01*
G01X24117Y16214D01*
G01X24067Y16234D01*
G01X24048Y16240D01*
G01X24028Y16242D01*
G01X24012Y16241D01*
G01X23996Y16237D01*
G01X23982Y16231D01*
G01X23968Y16223D01*
G01X23956Y16213D01*
G01X22839Y15095D01*
G01X22816Y15075D01*
G01X22793Y15056D01*
G01X22768Y15039D01*
G01X22742Y15025D01*
G01X22714Y15012D01*
G01X22686Y15002D01*
G01X22657Y14994D01*
G01X22627Y14988D01*
G01X22597Y14984D01*
G01X22567Y14983D01*
G01X21082Y14983D01*
G01X21051Y14984D01*
G01X21022Y14988D01*
G01X20992Y14994D01*
G01X20963Y15002D01*
G01X20935Y15012D01*
G01X20907Y15025D01*
G01X20881Y15039D01*
G01X20856Y15056D01*
G01X20832Y15075D01*
G01X20810Y15095D01*
G01X20160Y15745D01*
G01X20148Y15756D01*
G01X20135Y15764D01*
G01X20120Y15770D01*
G01X20104Y15774D01*
G01X20089Y15775D01*
G01X2725Y15775D01*
G01X2709Y15774D01*
G01X2695Y15770D01*
G01X2681Y15765D01*
G01X2667Y15757D01*
G01X2655Y15748D01*
G01X2645Y15737D01*
G01X2637Y15724D01*
G01X2628Y15710D01*
G01X2455Y15450D01*
G01X2440Y15430D01*
G01X2423Y15411D01*
G01X2404Y15394D01*
G01X2384Y15379D01*
G01X2179Y15243D01*
G01X2168Y15234D01*
G01X2158Y15224D01*
G01X2149Y15212D01*
G01X2142Y15199D01*
G01X2137Y15199D01*
G01X2122Y15198D01*
G01X2107Y15194D01*
G01X2093Y15189D01*
G01X2063Y15176D01*
G01X2032Y15168D01*
G01X1726Y15107D01*
G01X1701Y15103D01*
G01X1675Y15102D01*
G01X1213Y15102D01*
G01X1199Y15101D01*
G01X1185Y15098D01*
G01X1171Y15093D01*
G01X1159Y15086D01*
G01X1147Y15077D01*
G01X1137Y15067D01*
G01X1128Y15055D01*
G01X1121Y15043D01*
G01X1116Y15029D01*
G01X1113Y15015D01*
G01X1112Y15000D01*
G01X1112Y14622D01*
G01X358Y14622D01*
G01X343Y14621D01*
G01X329Y14618D01*
G01X315Y14613D01*
G01X303Y14606D01*
G01X291Y14597D01*
G01X281Y14587D01*
G01X272Y14575D01*
G01X265Y14563D01*
G01X260Y14549D01*
G01X257Y14535D01*
G01X256Y14520D01*
G01X256Y13797D01*
G01X257Y13782D01*
G01X260Y13768D01*
G01X265Y13754D01*
G01X272Y13742D01*
G01X281Y13730D01*
G01X291Y13720D01*
G01X303Y13711D01*
G01X315Y13704D01*
G01X329Y13699D01*
G01X343Y13696D01*
G01X358Y13695D01*
G01X1112Y13695D01*
G01X1112Y13317D01*
G01X1113Y13302D01*
G01X1116Y13288D01*
G01X1121Y13274D01*
G01X1128Y13262D01*
G01X1137Y13250D01*
G01X1147Y13240D01*
G01X1159Y13231D01*
G01X1171Y13224D01*
G01X1185Y13219D01*
G01X1199Y13216D01*
G01X1213Y13215D01*
G01X1675Y13215D01*
G01X1701Y13214D01*
G01X1726Y13210D01*
G01X1910Y13173D01*
G01X1930Y13171D01*
G01X1946Y13173D01*
G01X1962Y13176D01*
G01X1976Y13182D01*
G01X1990Y13191D01*
G01X2002Y13201D01*
G01X2209Y13408D01*
G01X2219Y13420D01*
G01X2228Y13434D01*
G01X2234Y13449D01*
G01X2238Y13464D01*
G01X2239Y13480D01*
G01X2239Y13695D01*
G01X2457Y13695D01*
G01X2471Y13696D01*
G01X2485Y13699D01*
G01X2498Y13704D01*
G01X2511Y13711D01*
G01X2523Y13719D01*
G01X2550Y13741D01*
G01X2578Y13761D01*
G01X2608Y13779D01*
G01X2639Y13794D01*
G01X2671Y13808D01*
G01X2704Y13819D01*
G01X2738Y13828D01*
G01X2772Y13835D01*
G01X2806Y13839D01*
G01X2852Y13841D01*
G01X17839Y13841D01*
G01X17854Y13842D01*
G01X17868Y13845D01*
G01X17882Y13850D01*
G01X17894Y13857D01*
G01X17906Y13866D01*
G01X17916Y13876D01*
G01X17925Y13888D01*
G01X17932Y13900D01*
G01X17937Y13914D01*
G01X17940Y13928D01*
G01X17941Y13943D01*
G01X17941Y14931D01*
G01X17942Y14954D01*
G01X17945Y14978D01*
G01X17951Y15001D01*
G01X17958Y15023D01*
G01X17968Y15045D01*
G01X17979Y15066D01*
G01X17993Y15085D01*
G01X18008Y15103D01*
G01X18025Y15120D01*
G01X18043Y15135D01*
G01X18062Y15149D01*
G01X18083Y15160D01*
G01X18105Y15170D01*
G01X18127Y15177D01*
G01X18150Y15183D01*
G01X18174Y15186D01*
G01X18198Y15187D01*
G01X19647Y15187D01*
G01X19671Y15186D01*
G01X19695Y15183D01*
G01X19718Y15177D01*
G01X19740Y15170D01*
G01X19762Y15160D01*
G01X19783Y15149D01*
G01X19802Y15135D01*
G01X19820Y15120D01*
G01X19837Y15103D01*
G01X19852Y15085D01*
G01X19866Y15066D01*
G01X19877Y15045D01*
G01X19887Y15023D01*
G01X19894Y15001D01*
G01X19900Y14978D01*
G01X19903Y14954D01*
G01X19904Y14931D01*
G01X19904Y14836D01*
G01X19905Y14821D01*
G01X19908Y14807D01*
G01X19913Y14793D01*
G01X19920Y14781D01*
G01X19929Y14769D01*
G01X19939Y14759D01*
G01X19951Y14750D01*
G01X19963Y14743D01*
G01X19977Y14738D01*
G01X19991Y14735D01*
G01X20006Y14734D01*
G01X38026Y14734D01*
G01X38041Y14735D01*
G01X38057Y14739D01*
G01X38072Y14745D01*
G01X38085Y14753D01*
G01X38097Y14764D01*
G01X39337Y16004D01*
G01X39348Y16016D01*
G01X39356Y16029D01*
G01X39362Y16044D01*
G01X39366Y16060D01*
G01X39367Y16075D01*
G01X39367Y16142D01*
G01X39366Y16156D01*
G01X39363Y16171D01*
G01X39357Y16185D01*
G01X39350Y16198D01*
G01X39341Y16209D01*
G01X39330Y16220D01*
G01X39318Y16228D01*
G01X39305Y16235D01*
G01X39259Y16256D01*
G01X39213Y16279D01*
G01X39169Y16304D01*
G01X39125Y16331D01*
G01X39083Y16360D01*
G01X39042Y16390D01*
G01X39002Y16422D01*
G01X38988Y16433D01*
G01X38972Y16440D01*
G01X38955Y16445D01*
G01X38937Y16446D01*
G01X38921Y16445D01*
G01X38906Y16442D01*
G01X38892Y16436D01*
G01X38878Y16428D01*
G01X38866Y16418D01*
G01X38856Y16406D01*
G01X38848Y16393D01*
G01X38841Y16379D01*
G01X38831Y16353D01*
G01X38818Y16328D01*
G01X38804Y16304D01*
G01X38788Y16281D01*
G01X38771Y16259D01*
G01X38752Y16238D01*
G01X38244Y15730D01*
G01X38222Y15710D01*
G01X38198Y15691D01*
G01X38173Y15674D01*
G01X38147Y15660D01*
G01X38119Y15647D01*
G01X38091Y15637D01*
G01X38062Y15629D01*
G01X38032Y15623D01*
G01X38003Y15619D01*
G01X37973Y15618D01*
G01X26543Y15618D01*
G01X26512Y15619D01*
G01X26483Y15623D01*
G01X26453Y15629D01*
G01X26424Y15637D01*
G01X26396Y15647D01*
G01X26368Y15660D01*
G01X26342Y15674D01*
G01X26317Y15691D01*
G01X26293Y15710D01*
G01X26271Y15730D01*
G01X25519Y16483D01*
G01X25507Y16493D01*
G01X25493Y16501D01*
G01X25479Y16507D01*
G01X25463Y16511D01*
G37*

%LPC*%
G36*
G01X2384Y14938D02*
G01X2239Y15034D01*
G01X2239Y14622D01*
G01X2618Y14622D01*
G01X2455Y14867D01*
G01X2440Y14887D01*
G01X2423Y14906D01*
G01X2404Y14923D01*
G01X2384Y14938D01*
G37*

%LPD*%
G36*
G01X46540Y18412D02*
G01X45712Y18412D01*
G01X45698Y18411D01*
G01X45684Y18408D01*
G01X45670Y18403D01*
G01X45657Y18396D01*
G01X45646Y18387D01*
G01X45635Y18377D01*
G01X45627Y18365D01*
G01X45620Y18353D01*
G01X45615Y18339D01*
G01X45612Y18325D01*
G01X45611Y18310D01*
G01X45612Y18296D01*
G01X45615Y18282D01*
G01X45620Y18268D01*
G01X45627Y18256D01*
G01X45635Y18244D01*
G01X45645Y18234D01*
G01X45683Y18199D01*
G01X45719Y18163D01*
G01X45754Y18125D01*
G01X45787Y18086D01*
G01X45818Y18046D01*
G01X45848Y18004D01*
G01X45876Y17961D01*
G01X45901Y17917D01*
G01X45925Y17871D01*
G01X45947Y17825D01*
G01X45967Y17778D01*
G01X45985Y17730D01*
G01X46001Y17681D01*
G01X46015Y17632D01*
G01X46026Y17582D01*
G01X46036Y17533D01*
G01X46043Y17484D01*
G01X46048Y17434D01*
G01X46051Y17385D01*
G01X46052Y17335D01*
G01X46051Y17285D01*
G01X46048Y17236D01*
G01X46043Y17186D01*
G01X46036Y17137D01*
G01X46026Y17088D01*
G01X46015Y17040D01*
G01X46002Y16992D01*
G01X45987Y16945D01*
G01X45970Y16899D01*
G01X45951Y16853D01*
G01X45930Y16809D01*
G01X45908Y16765D01*
G01X45883Y16722D01*
G01X45857Y16680D01*
G01X45829Y16639D01*
G01X45799Y16599D01*
G01X45768Y16561D01*
G01X45735Y16524D01*
G01X45701Y16488D01*
G01X45666Y16454D01*
G01X45629Y16422D01*
G01X45590Y16390D01*
G01X45551Y16361D01*
G01X45510Y16333D01*
G01X45468Y16307D01*
G01X45425Y16283D01*
G01X45381Y16260D01*
G01X45336Y16239D01*
G01X45290Y16220D01*
G01X45244Y16203D01*
G01X45197Y16188D01*
G01X45149Y16175D01*
G01X45101Y16164D01*
G01X45053Y16155D01*
G01X45004Y16148D01*
G01X44955Y16143D01*
G01X44905Y16140D01*
G01X44856Y16139D01*
G01X44807Y16140D01*
G01X44757Y16143D01*
G01X44708Y16148D01*
G01X44659Y16155D01*
G01X44611Y16164D01*
G01X44562Y16175D01*
G01X44515Y16188D01*
G01X44468Y16203D01*
G01X44421Y16220D01*
G01X44376Y16239D01*
G01X44331Y16260D01*
G01X44287Y16283D01*
G01X44244Y16307D01*
G01X44202Y16333D01*
G01X44161Y16361D01*
G01X44122Y16390D01*
G01X44083Y16422D01*
G01X44046Y16454D01*
G01X44011Y16488D01*
G01X43976Y16524D01*
G01X43944Y16561D01*
G01X43912Y16599D01*
G01X43883Y16639D01*
G01X43855Y16680D01*
G01X43829Y16722D01*
G01X43804Y16765D01*
G01X43782Y16809D01*
G01X43761Y16853D01*
G01X43742Y16899D01*
G01X43725Y16945D01*
G01X43710Y16992D01*
G01X43697Y17040D01*
G01X43685Y17088D01*
G01X43681Y17103D01*
G01X43675Y17117D01*
G01X43666Y17130D01*
G01X43656Y17141D01*
G01X43644Y17151D01*
G01X43630Y17158D01*
G01X43616Y17164D01*
G01X43601Y17168D01*
G01X43586Y17169D01*
G01X43571Y17168D01*
G01X43556Y17164D01*
G01X43541Y17158D01*
G01X43528Y17151D01*
G01X43516Y17141D01*
G01X43506Y17130D01*
G01X43497Y17117D01*
G01X43491Y17103D01*
G01X43486Y17088D01*
G01X43473Y17032D01*
G01X43457Y16976D01*
G01X43438Y16921D01*
G01X43417Y16867D01*
G01X43411Y16847D01*
G01X43409Y16827D01*
G01X43410Y16811D01*
G01X43414Y16795D01*
G01X43420Y16781D01*
G01X43428Y16767D01*
G01X43438Y16755D01*
G01X45049Y15145D01*
G01X45061Y15134D01*
G01X45074Y15126D01*
G01X45089Y15120D01*
G01X45104Y15116D01*
G01X45120Y15115D01*
G01X60849Y15115D01*
G01X60863Y15116D01*
G01X60877Y15119D01*
G01X60891Y15124D01*
G01X60904Y15131D01*
G01X60915Y15140D01*
G01X60925Y15150D01*
G01X60934Y15162D01*
G01X60941Y15174D01*
G01X60946Y15188D01*
G01X60949Y15202D01*
G01X60950Y15217D01*
G01X60949Y15233D01*
G01X60945Y15249D01*
G01X60939Y15264D01*
G01X60930Y15277D01*
G01X60900Y15320D01*
G01X60871Y15364D01*
G01X60845Y15410D01*
G01X60821Y15456D01*
G01X60799Y15504D01*
G01X60779Y15553D01*
G01X60772Y15567D01*
G01X60764Y15579D01*
G01X60753Y15590D01*
G01X60741Y15600D01*
G01X60728Y15608D01*
G01X60714Y15613D01*
G01X60699Y15617D01*
G01X60684Y15618D01*
G01X49276Y15618D01*
G01X49245Y15619D01*
G01X49216Y15623D01*
G01X49186Y15629D01*
G01X49157Y15637D01*
G01X49129Y15647D01*
G01X49101Y15660D01*
G01X49075Y15674D01*
G01X49050Y15691D01*
G01X49026Y15710D01*
G01X49004Y15730D01*
G01X48369Y16365D01*
G01X48348Y16388D01*
G01X48329Y16413D01*
G01X48318Y16426D01*
G01X48306Y16436D01*
G01X48292Y16445D01*
G01X48278Y16451D01*
G01X48262Y16455D01*
G01X48246Y16456D01*
G01X48232Y16455D01*
G01X48217Y16452D01*
G01X48204Y16447D01*
G01X48191Y16440D01*
G01X48179Y16431D01*
G01X48141Y16399D01*
G01X48101Y16368D01*
G01X48060Y16340D01*
G01X48017Y16313D01*
G01X47974Y16287D01*
G01X47929Y16264D01*
G01X47929Y16802D01*
G01X48155Y16802D01*
G01X48170Y16803D01*
G01X48184Y16806D01*
G01X48198Y16811D01*
G01X48210Y16818D01*
G01X48222Y16826D01*
G01X48232Y16837D01*
G01X48241Y16848D01*
G01X48248Y16861D01*
G01X48253Y16875D01*
G01X48256Y16889D01*
G01X48257Y16903D01*
G01X48257Y17767D01*
G01X48256Y17781D01*
G01X48253Y17795D01*
G01X48248Y17809D01*
G01X48241Y17822D01*
G01X48232Y17833D01*
G01X48222Y17844D01*
G01X48210Y17852D01*
G01X48198Y17859D01*
G01X48184Y17864D01*
G01X48170Y17867D01*
G01X48155Y17868D01*
G01X47929Y17868D01*
G01X47929Y18160D01*
G01X47928Y18176D01*
G01X47924Y18192D01*
G01X47918Y18206D01*
G01X47910Y18220D01*
G01X47900Y18232D01*
G01X47749Y18382D01*
G01X47737Y18393D01*
G01X47724Y18401D01*
G01X47709Y18407D01*
G01X47693Y18411D01*
G01X47678Y18412D01*
G01X46964Y18412D01*
G01X46950Y18411D01*
G01X46935Y18408D01*
G01X46922Y18403D01*
G01X46909Y18396D01*
G01X46898Y18387D01*
G01X46887Y18377D01*
G01X46879Y18365D01*
G01X46872Y18353D01*
G01X46867Y18339D01*
G01X46864Y18325D01*
G01X46863Y18310D01*
G01X46863Y17868D01*
G01X46325Y17868D01*
G01X46349Y17914D01*
G01X46375Y17959D01*
G01X46403Y18002D01*
G01X46433Y18044D01*
G01X46464Y18085D01*
G01X46497Y18125D01*
G01X46532Y18163D01*
G01X46569Y18199D01*
G01X46607Y18234D01*
G01X46617Y18244D01*
G01X46625Y18256D01*
G01X46632Y18268D01*
G01X46637Y18282D01*
G01X46640Y18296D01*
G01X46641Y18310D01*
G01X46640Y18325D01*
G01X46637Y18339D01*
G01X46632Y18353D01*
G01X46625Y18365D01*
G01X46616Y18377D01*
G01X46606Y18387D01*
G01X46594Y18396D01*
G01X46582Y18403D01*
G01X46568Y18408D01*
G01X46554Y18411D01*
G01X46540Y18412D01*
G37*

%LPC*%
G36*
G01X46863Y16802D02*
G01X46325Y16802D01*
G01X46349Y16756D01*
G01X46375Y16711D01*
G01X46403Y16668D01*
G01X46432Y16626D01*
G01X46464Y16585D01*
G01X46497Y16545D01*
G01X46532Y16507D01*
G01X46568Y16471D01*
G01X46606Y16436D01*
G01X46646Y16403D01*
G01X46687Y16372D01*
G01X46729Y16342D01*
G01X46772Y16314D01*
G01X46817Y16288D01*
G01X46863Y16264D01*
G01X46863Y16802D01*
G37*

%LPD*%
G36*
G01X31208Y24920D02*
G01X24677Y24920D01*
G01X24661Y24919D01*
G01X24645Y24915D01*
G01X24631Y24909D01*
G01X24617Y24901D01*
G01X24605Y24890D01*
G01X23385Y23670D01*
G01X23374Y23658D01*
G01X23366Y23644D01*
G01X23360Y23630D01*
G01X23356Y23614D01*
G01X23355Y23598D01*
G01X23355Y23473D01*
G01X23356Y23458D01*
G01X23359Y23444D01*
G01X23365Y23430D01*
G01X23372Y23417D01*
G01X23382Y23405D01*
G01X23392Y23395D01*
G01X23428Y23364D01*
G01X23463Y23331D01*
G01X23496Y23297D01*
G01X23527Y23262D01*
G01X23557Y23225D01*
G01X23585Y23187D01*
G01X23611Y23147D01*
G01X23635Y23106D01*
G01X23658Y23064D01*
G01X23666Y23051D01*
G01X23677Y23038D01*
G01X23689Y23028D01*
G01X23703Y23019D01*
G01X23718Y23013D01*
G01X23734Y23010D01*
G01X23725Y22996D01*
G01X23719Y22981D01*
G01X23715Y22965D01*
G01X23713Y22948D01*
G01X23714Y22933D01*
G01X23718Y22917D01*
G01X23733Y22867D01*
G01X23745Y22815D01*
G01X23755Y22763D01*
G01X23762Y22711D01*
G01X23766Y22658D01*
G01X23767Y22606D01*
G01X23766Y22553D01*
G01X23762Y22500D01*
G01X23755Y22448D01*
G01X23745Y22396D01*
G01X23733Y22344D01*
G01X23718Y22294D01*
G01X23714Y22278D01*
G01X23713Y22263D01*
G01X23715Y22246D01*
G01X23719Y22230D01*
G01X23725Y22215D01*
G01X23734Y22201D01*
G01X23718Y22198D01*
G01X23703Y22192D01*
G01X23689Y22183D01*
G01X23677Y22173D01*
G01X23666Y22160D01*
G01X23658Y22147D01*
G01X23635Y22103D01*
G01X23609Y22061D01*
G01X23582Y22020D01*
G01X23553Y21980D01*
G01X23521Y21942D01*
G01X23488Y21906D01*
G01X23454Y21871D01*
G01X23417Y21837D01*
G01X23379Y21806D01*
G01X23340Y21776D01*
G01X23328Y21766D01*
G01X23317Y21754D01*
G01X23309Y21740D01*
G01X23303Y21725D01*
G01X23299Y21710D01*
G01X23297Y21694D01*
G01X23298Y21679D01*
G01X23302Y21665D01*
G01X23307Y21651D01*
G01X23314Y21639D01*
G01X23322Y21627D01*
G01X23333Y21617D01*
G01X23344Y21608D01*
G01X23357Y21601D01*
G01X23370Y21596D01*
G01X23385Y21593D01*
G01X23399Y21592D01*
G01X24098Y21592D01*
G01X24112Y21593D01*
G01X24127Y21596D01*
G01X24140Y21601D01*
G01X24153Y21608D01*
G01X24164Y21617D01*
G01X24175Y21627D01*
G01X24183Y21639D01*
G01X24190Y21651D01*
G01X24195Y21665D01*
G01X24199Y21679D01*
G01X24200Y21694D01*
G01X24198Y21710D01*
G01X24194Y21725D01*
G01X24188Y21740D01*
G01X24180Y21754D01*
G01X24169Y21766D01*
G01X24157Y21776D01*
G01X24118Y21806D01*
G01X24080Y21837D01*
G01X24043Y21871D01*
G01X24009Y21906D01*
G01X23976Y21942D01*
G01X23944Y21980D01*
G01X23915Y22020D01*
G01X23888Y22061D01*
G01X23862Y22103D01*
G01X23839Y22147D01*
G01X23830Y22161D01*
G01X24304Y22161D01*
G01X24304Y21694D01*
G01X24305Y21679D01*
G01X24308Y21665D01*
G01X24313Y21651D01*
G01X24320Y21639D01*
G01X24329Y21627D01*
G01X24339Y21617D01*
G01X24351Y21608D01*
G01X24363Y21601D01*
G01X24377Y21596D01*
G01X24391Y21593D01*
G01X24406Y21592D01*
G01X25091Y21592D01*
G01X25106Y21593D01*
G01X25120Y21596D01*
G01X25134Y21601D01*
G01X25146Y21608D01*
G01X25158Y21617D01*
G01X25168Y21627D01*
G01X25177Y21639D01*
G01X25184Y21651D01*
G01X25189Y21665D01*
G01X25192Y21679D01*
G01X25193Y21694D01*
G01X25193Y22161D01*
G01X25665Y22161D01*
G01X25644Y22120D01*
G01X25621Y22080D01*
G01X25596Y22041D01*
G01X25570Y22003D01*
G01X25541Y21966D01*
G01X25512Y21931D01*
G01X25480Y21897D01*
G01X25447Y21864D01*
G01X25413Y21833D01*
G01X25377Y21804D01*
G01X25340Y21776D01*
G01X25328Y21766D01*
G01X25317Y21754D01*
G01X25309Y21740D01*
G01X25303Y21725D01*
G01X25299Y21710D01*
G01X25297Y21694D01*
G01X25298Y21679D01*
G01X25302Y21665D01*
G01X25307Y21651D01*
G01X25314Y21639D01*
G01X25322Y21627D01*
G01X25333Y21617D01*
G01X25344Y21608D01*
G01X25357Y21601D01*
G01X25370Y21596D01*
G01X25385Y21593D01*
G01X25399Y21592D01*
G01X29337Y21592D01*
G01X29351Y21593D01*
G01X29366Y21596D01*
G01X29379Y21601D01*
G01X29392Y21608D01*
G01X29403Y21617D01*
G01X29414Y21627D01*
G01X29422Y21639D01*
G01X29429Y21651D01*
G01X29434Y21665D01*
G01X29438Y21679D01*
G01X29439Y21694D01*
G01X29437Y21710D01*
G01X29433Y21725D01*
G01X29427Y21740D01*
G01X29419Y21754D01*
G01X29408Y21766D01*
G01X29396Y21776D01*
G01X29359Y21804D01*
G01X29323Y21833D01*
G01X29289Y21864D01*
G01X29256Y21896D01*
G01X29225Y21930D01*
G01X29195Y21966D01*
G01X29167Y22002D01*
G01X29140Y22040D01*
G01X29116Y22079D01*
G01X29093Y22119D01*
G01X29072Y22160D01*
G01X29052Y22202D01*
G01X29035Y22244D01*
G01X29020Y22288D01*
G01X29006Y22332D01*
G01X28995Y22377D01*
G01X28986Y22422D01*
G01X28978Y22468D01*
G01X28973Y22513D01*
G01X28970Y22559D01*
G01X28969Y22605D01*
G01X28970Y22651D01*
G01X28973Y22697D01*
G01X28978Y22742D01*
G01X28985Y22787D01*
G01X28994Y22832D01*
G01X29006Y22876D01*
G01X29019Y22920D01*
G01X29034Y22963D01*
G01X29051Y23006D01*
G01X29070Y23047D01*
G01X29091Y23088D01*
G01X29113Y23128D01*
G01X29137Y23167D01*
G01X29163Y23204D01*
G01X29191Y23241D01*
G01X29220Y23276D01*
G01X29251Y23309D01*
G01X29284Y23342D01*
G01X29317Y23373D01*
G01X29352Y23402D01*
G01X29389Y23430D01*
G01X29426Y23456D01*
G01X29465Y23480D01*
G01X29505Y23502D01*
G01X29546Y23523D01*
G01X29587Y23542D01*
G01X29630Y23559D01*
G01X29673Y23574D01*
G01X29717Y23587D01*
G01X29761Y23599D01*
G01X29806Y23608D01*
G01X29851Y23615D01*
G01X29896Y23620D01*
G01X29942Y23623D01*
G01X29988Y23624D01*
G01X30043Y23623D01*
G01X30109Y23617D01*
G01X30125Y23619D01*
G01X30140Y23622D01*
G01X30155Y23629D01*
G01X30169Y23637D01*
G01X30181Y23647D01*
G01X31280Y24747D01*
G01X31290Y24759D01*
G01X31299Y24772D01*
G01X31305Y24787D01*
G01X31309Y24802D01*
G01X31310Y24818D01*
G01X31309Y24833D01*
G01X31306Y24847D01*
G01X31301Y24861D01*
G01X31294Y24873D01*
G01X31285Y24885D01*
G01X31275Y24895D01*
G01X31263Y24904D01*
G01X31251Y24911D01*
G01X31237Y24916D01*
G01X31223Y24919D01*
G01X31208Y24920D01*
G37*

%LPC*%
G36*
G01X24304Y23050D02*
G01X24304Y23522D01*
G01X24262Y23500D01*
G01X24221Y23477D01*
G01X24181Y23451D01*
G01X24142Y23424D01*
G01X24105Y23395D01*
G01X24069Y23364D01*
G01X24034Y23331D01*
G01X24001Y23297D01*
G01X23970Y23262D01*
G01X23940Y23225D01*
G01X23912Y23187D01*
G01X23886Y23147D01*
G01X23862Y23106D01*
G01X23839Y23064D01*
G01X23830Y23050D01*
G01X24304Y23050D01*
G37*
G36*
G01X25236Y23500D02*
G01X25193Y23522D01*
G01X25193Y23050D01*
G01X25665Y23050D01*
G01X25643Y23093D01*
G01X25618Y23135D01*
G01X25592Y23176D01*
G01X25564Y23216D01*
G01X25534Y23254D01*
G01X25502Y23291D01*
G01X25469Y23326D01*
G01X25434Y23359D01*
G01X25397Y23391D01*
G01X25359Y23421D01*
G01X25319Y23449D01*
G01X25278Y23475D01*
G01X25236Y23500D01*
G37*

%LPD*%
G54D10*
G01X1676Y24157D02*
G01X18768Y24157D01*
G01X21717Y21209D01*
G01X33362Y21209D01*
G01X37236Y17335D01*
G01X1676Y22158D02*
G01X19878Y22158D01*
G01X21336Y20701D01*
G01X31330Y20701D01*
G01X34696Y17335D01*
G01X1675Y20158D02*
G01X29332Y20158D01*
G01X32156Y17335D01*
G01X1676Y18158D02*
G01X18412Y18158D01*
G01X19812Y19558D01*
G01X27393Y19558D01*
G01X29616Y17335D01*
G01X1675Y16158D02*
G01X20290Y16158D01*
G01X21082Y15367D01*
G01X22567Y15367D01*
G01X24536Y17335D01*
G54D21*
G01X1676Y12158D02*
G01X2852Y13335D01*
G01X38315Y13335D01*
G01X42316Y17335D01*
G54D10*
G01X19050Y14351D02*
G01X38227Y14351D01*
G01X39751Y15875D01*
G01X39751Y17310D01*
G01X39776Y17335D01*
G01X1675Y10158D02*
G01X3835Y12319D01*
G01X19050Y12319D01*
G01X21996Y17335D02*
G01X22542Y17335D01*
G01X24003Y18796D01*
G01X25019Y18796D01*
G01X25781Y18034D01*
G01X25781Y16764D01*
G01X26543Y16002D01*
G01X37973Y16002D01*
G01X38481Y16510D01*
G01X38481Y18034D01*
G01X39243Y18796D01*
G01X47879Y18796D01*
G01X48641Y18034D01*
G01X48641Y16637D01*
G01X49276Y16002D01*
G01X61800Y16002D01*
G01X61849Y16050D01*
G01X21945Y2222D02*
G01X21945Y2184D01*
G01X23749Y381D01*
G01X62738Y381D01*
G01X64262Y1905D01*
G01X64262Y3937D01*
G54D22*
G01X25796Y25527D02*
G01X44274Y25527D01*
G01X47266Y22534D01*
G01X29997Y22606D02*
G01X31902Y24511D01*
G01X42291Y24511D01*
G01X44267Y22534D01*
G54D10*
G01X29565Y2222D02*
G01X41567Y14224D01*
G01X62865Y14224D01*
G01X64516Y15875D01*
G01X64516Y20320D01*
G01X68072Y23876D01*
G01X39725Y2222D02*
G01X49695Y12192D01*
G01X62357Y12192D01*
G01X68834Y5715D01*
G01X74549Y5715D01*
G01X77683Y2580D01*
G01X77683Y2529D01*
G01X37185Y2222D02*
G01X47663Y12700D01*
G01X63627Y12700D01*
G01X68072Y17145D01*
G01X68072Y18796D01*
G01X32105Y2222D02*
G01X43599Y13716D01*
G01X63119Y13716D01*
G01X65024Y15621D01*
G01X65024Y19050D01*
G01X67310Y21336D01*
G01X68072Y21336D01*
G01X34645Y2222D02*
G01X45631Y13208D01*
G01X63373Y13208D01*
G01X65532Y15367D01*
G01X65532Y18796D01*
G01X66802Y20066D01*
G01X68580Y20066D01*
G01X69088Y19558D01*
G01X69088Y17653D01*
G01X71120Y15621D01*
G01X76276Y15621D01*
G01X77683Y17028D01*
G01X27025Y2222D02*
G01X28359Y889D01*
G01X61341Y889D01*
G01X62611Y2159D01*
G01X62611Y4064D01*
G01X63500Y4953D01*
G01X70260Y4953D01*
G01X72684Y2529D01*
G54D22*
G01X49936Y17335D02*
G01X50267Y17666D01*
G01X50267Y22535D01*
G54D10*
G01X70104Y18796D02*
G01X74085Y18796D01*
G01X77006Y21717D01*
G01X70104Y21336D02*
G01X70739Y20701D01*
G01X73391Y20701D01*
G01X74407Y21717D01*
G01X70104Y23876D02*
G01X70948Y23876D01*
G01X73107Y21717D01*
G01X42316Y17335D02*
G01X44919Y14732D01*
G01X62484Y14732D01*
G01X64008Y16256D01*
G01X64008Y22606D01*
G01X66802Y25400D01*
G01X72023Y25400D01*
G01X75706Y21717D01*
G01X55499Y4699D02*
G01X55118Y5080D01*
G01X55118Y7239D01*
G01X64389Y5969D02*
G01X64389Y8421D01*
G01X61849Y10961D01*
G01X44805Y2222D02*
G01X51854Y9271D01*
G01X55118Y9271D01*
G01X47345Y2222D02*
G01X48679Y3556D01*
G01X56642Y3556D01*
G01X58039Y2159D01*
G01X49885Y2222D02*
G01X55435Y2222D01*
G01X55499Y2159D01*
G54D22*
G01X22749Y22606D02*
G01X22749Y23892D01*
G01X24384Y25527D01*
G01X25796Y25527D01*
G36*
G01X67364Y18071D02*
G01X68525Y18071D01*
G01X68525Y19520D01*
G01X67364Y19520D01*
G01X67364Y18071D01*
G37*
G36*
G01X69396Y18071D02*
G01X70557Y18071D01*
G01X70557Y19520D01*
G01X69396Y19520D01*
G01X69396Y18071D01*
G37*
G36*
G01X67364Y23151D02*
G01X68525Y23151D01*
G01X68525Y24600D01*
G01X67364Y24600D01*
G01X67364Y23151D01*
G37*
G36*
G01X69396Y23151D02*
G01X70557Y23151D01*
G01X70557Y24600D01*
G01X69396Y24600D01*
G01X69396Y23151D01*
G37*
G36*
G01X65113Y3356D02*
G01X65113Y4517D01*
G01X63664Y4517D01*
G01X63664Y3356D01*
G01X65113Y3356D01*
G37*
G36*
G01X65113Y5388D02*
G01X65113Y6549D01*
G01X63664Y6549D01*
G01X63664Y5388D01*
G01X65113Y5388D01*
G37*
G36*
G01X67364Y20611D02*
G01X68525Y20611D01*
G01X68525Y22060D01*
G01X67364Y22060D01*
G01X67364Y20611D01*
G37*
G36*
G01X69396Y20611D02*
G01X70557Y20611D01*
G01X70557Y22060D01*
G01X69396Y22060D01*
G01X69396Y20611D01*
G37*
G36*
G01X19647Y11738D02*
G01X19647Y12899D01*
G01X18198Y12899D01*
G01X18198Y11738D01*
G01X19647Y11738D01*
G37*
G36*
G01X19647Y13770D02*
G01X19647Y14931D01*
G01X18198Y14931D01*
G01X18198Y13770D01*
G01X19647Y13770D01*
G37*
G36*
G01X54393Y9851D02*
G01X54393Y8690D01*
G01X55842Y8690D01*
G01X55842Y9851D01*
G01X54393Y9851D01*
G37*
G36*
G01X54393Y7819D02*
G01X54393Y6658D01*
G01X55842Y6658D01*
G01X55842Y7819D01*
G01X54393Y7819D01*
G37*
G54D11*
G01X72684Y17028D03*
G01X77684Y17028D03*
G01X72684Y2529D03*
G01X75184Y2529D03*
G01X77684Y2529D03*
G54D12*
G01X77006Y21717D03*
G54D13*
G01X75706Y21717D03*
G01X74407Y21717D03*
G01X73107Y21717D03*
G36*
G01X61976Y2364D02*
G01X60776Y2364D01*
G01X60470Y2425D01*
G01X60210Y2598D01*
G01X60037Y2858D01*
G01X59976Y3164D01*
G01X60037Y3469D01*
G01X60210Y3729D01*
G01X60470Y3902D01*
G01X60776Y3964D01*
G01X61976Y3964D01*
G01X61976Y2364D01*
G37*
G36*
G01X61976Y4363D02*
G01X60776Y4363D01*
G01X60470Y4425D01*
G01X60210Y4598D01*
G01X60037Y4858D01*
G01X59976Y5163D01*
G01X60037Y5469D01*
G01X60210Y5729D01*
G01X60470Y5902D01*
G01X60776Y5963D01*
G01X61976Y5963D01*
G01X61976Y4363D01*
G37*
G36*
G01X61976Y22364D02*
G01X60776Y22364D01*
G01X60470Y22425D01*
G01X60210Y22598D01*
G01X60037Y22858D01*
G01X59976Y23164D01*
G01X60037Y23470D01*
G01X60210Y23730D01*
G01X60470Y23903D01*
G01X60776Y23964D01*
G01X61976Y23964D01*
G01X61976Y22364D01*
G37*
G36*
G01X61976Y20363D02*
G01X60776Y20363D01*
G01X60470Y20425D01*
G01X60210Y20598D01*
G01X60037Y20857D01*
G01X59976Y21163D01*
G01X60037Y21469D01*
G01X60210Y21729D01*
G01X60470Y21902D01*
G01X60776Y21963D01*
G01X61976Y21963D01*
G01X61976Y20363D01*
G37*
G36*
G01X475Y2958D02*
G01X1675Y2958D01*
G01X1981Y2897D01*
G01X2241Y2724D01*
G01X2414Y2464D01*
G01X2475Y2159D01*
G01X2414Y1853D01*
G01X2241Y1593D01*
G01X1981Y1420D01*
G01X1675Y1359D01*
G01X475Y1359D01*
G01X475Y2958D01*
G37*
G36*
G01X475Y4958D02*
G01X1675Y4958D01*
G01X1981Y4897D01*
G01X2241Y4724D01*
G01X2414Y4464D01*
G01X2475Y4158D01*
G01X2414Y3853D01*
G01X2241Y3593D01*
G01X1981Y3420D01*
G01X1675Y3358D01*
G01X475Y3358D01*
G01X475Y4958D01*
G37*
G36*
G01X475Y6958D02*
G01X1675Y6958D01*
G01X1981Y6897D01*
G01X2241Y6724D01*
G01X2414Y6464D01*
G01X2475Y6158D01*
G01X2414Y5852D01*
G01X2241Y5593D01*
G01X1981Y5420D01*
G01X1675Y5358D01*
G01X475Y5358D01*
G01X475Y6958D01*
G37*
G36*
G01X475Y8959D02*
G01X1675Y8959D01*
G01X1981Y8898D01*
G01X2241Y8725D01*
G01X2414Y8465D01*
G01X2475Y8159D01*
G01X2414Y7853D01*
G01X2241Y7593D01*
G01X1981Y7420D01*
G01X1675Y7359D01*
G01X475Y7359D01*
G01X475Y8959D01*
G37*
G36*
G01X475Y10959D02*
G01X1675Y10959D01*
G01X1981Y10897D01*
G01X2241Y10724D01*
G01X2414Y10465D01*
G01X2475Y10159D01*
G01X2414Y9853D01*
G01X2241Y9593D01*
G01X1981Y9420D01*
G01X1675Y9359D01*
G01X475Y9359D01*
G01X475Y10959D01*
G37*
G36*
G01X475Y12959D02*
G01X1675Y12959D01*
G01X1981Y12897D01*
G01X2241Y12724D01*
G01X2414Y12464D01*
G01X2475Y12159D01*
G01X2414Y11853D01*
G01X2241Y11593D01*
G01X1981Y11420D01*
G01X1675Y11359D01*
G01X475Y11359D01*
G01X475Y12959D01*
G37*
G36*
G01X475Y14958D02*
G01X1675Y14958D01*
G01X1981Y14897D01*
G01X2241Y14724D01*
G01X2414Y14464D01*
G01X2475Y14159D01*
G01X2414Y13853D01*
G01X2241Y13593D01*
G01X1981Y13420D01*
G01X1675Y13359D01*
G01X475Y13359D01*
G01X475Y14958D01*
G37*
G36*
G01X475Y16959D02*
G01X1675Y16959D01*
G01X1981Y16898D01*
G01X2241Y16725D01*
G01X2414Y16465D01*
G01X2475Y16159D01*
G01X2414Y15853D01*
G01X2241Y15593D01*
G01X1981Y15420D01*
G01X1675Y15359D01*
G01X475Y15359D01*
G01X475Y16959D01*
G37*
G36*
G01X475Y18958D02*
G01X1675Y18958D01*
G01X1981Y18897D01*
G01X2241Y18724D01*
G01X2414Y18464D01*
G01X2475Y18158D01*
G01X2414Y17852D01*
G01X2241Y17593D01*
G01X1981Y17420D01*
G01X1675Y17358D01*
G01X475Y17358D01*
G01X475Y18958D01*
G37*
G36*
G01X475Y20958D02*
G01X1675Y20958D01*
G01X1981Y20897D01*
G01X2241Y20724D01*
G01X2414Y20464D01*
G01X2475Y20158D01*
G01X2414Y19852D01*
G01X2241Y19593D01*
G01X1981Y19420D01*
G01X1675Y19358D01*
G01X475Y19358D01*
G01X475Y20958D01*
G37*
G36*
G01X475Y22959D02*
G01X1675Y22959D01*
G01X1981Y22897D01*
G01X2241Y22724D01*
G01X2414Y22465D01*
G01X2475Y22159D01*
G01X2414Y21853D01*
G01X2241Y21593D01*
G01X1981Y21420D01*
G01X1675Y21359D01*
G01X475Y21359D01*
G01X475Y22959D01*
G37*
G36*
G01X475Y24959D02*
G01X1675Y24959D01*
G01X1981Y24898D01*
G01X2241Y24725D01*
G01X2414Y24465D01*
G01X2475Y24159D01*
G01X2414Y23853D01*
G01X2241Y23593D01*
G01X1981Y23420D01*
G01X1675Y23359D01*
G01X475Y23359D01*
G01X475Y24959D01*
G37*
G36*
G01X40016Y23635D02*
G01X40016Y21435D01*
G01X41517Y21435D01*
G01X41517Y23635D01*
G01X40016Y23635D01*
G37*
G36*
G01X53016Y23635D02*
G01X53016Y21435D01*
G01X54517Y21435D01*
G01X54517Y23635D01*
G01X53016Y23635D01*
G37*
G54D11*
G01X44267Y22535D03*
G01X47267Y22535D03*
G01X50267Y22535D03*
G36*
G01X58838Y5498D02*
G01X57239Y5498D01*
G01X57239Y3899D01*
G01X58838Y3899D01*
G01X58838Y5498D01*
G37*
G54D16*
G01X55499Y4699D03*
G01X58039Y2159D03*
G01X55499Y2159D03*
G54D17*
G01X21945Y2222D03*
G01X24485Y2222D03*
G01X27025Y2222D03*
G01X29565Y2222D03*
G01X32105Y2222D03*
G01X34645Y2222D03*
G01X37185Y2222D03*
G01X39725Y2222D03*
G01X42265Y2222D03*
G01X44805Y2222D03*
G01X47345Y2222D03*
G01X49885Y2222D03*
G01X49936Y17335D03*
G01X47396Y17335D03*
G01X44856Y17335D03*
G01X42316Y17335D03*
G01X39776Y17335D03*
G01X37236Y17335D03*
G01X34696Y17335D03*
G01X32156Y17335D03*
G01X29616Y17335D03*
G01X27076Y17335D03*
G01X24536Y17335D03*
G01X21996Y17335D03*
G54D18*
G01X61849Y10961D03*
G01X61849Y15962D03*
G54D19*
G01X22749Y22606D03*
G01X24748Y22606D03*
G01X29988Y22606D03*
G01X31987Y22606D03*
G54D20*
G01X69483Y10728D02*
G01X69483Y9328D01*
G01X80884Y10728D02*
G01X80884Y9328D01*
M00*
M02*
