G04 Layer: TopSolderMaskLayer*
G04 EasyEDA v6.2.46, 2019-12-20T21:21:12+01:00*
G04 d37f97ebf7a94133afb56d0d7468e1fa,4a9c1d379d7447c5bd0ffc32acf6fcf4,10*
G04 Gerber Generator version 0.2*
G04 Scale: 100 percent, Rotated: No, Reflected: No *
G04 Dimensions in millimeters *
G04 leading zeros omitted , absolute positions ,3 integer and 3 decimal *
%FSLAX33Y33*%
%MOMM*%
G90*
G71D02*

%ADD29C,2.603195*%
%ADD30C,2.003196*%
%ADD32C,1.203198*%
%ADD35C,1.803197*%
%ADD36C,2.082800*%
%ADD37C,1.981200*%
%ADD38C,1.727200*%

%LPD*%
G54D29*
G01X69483Y10728D02*
G01X69483Y9328D01*
G01X80884Y10728D02*
G01X80884Y9328D01*
G54D30*
G01X72684Y17028D03*
G01X77684Y17028D03*
G01X72684Y2529D03*
G01X75184Y2529D03*
G01X77684Y2529D03*
G36*
G01X76405Y21115D02*
G01X76405Y22318D01*
G01X77609Y22318D01*
G01X77609Y21115D01*
G01X76405Y21115D01*
G37*
G54D32*
G01X75706Y21717D03*
G01X74407Y21717D03*
G01X73107Y21717D03*
G36*
G01X60766Y2263D02*
G01X60431Y2329D01*
G01X60137Y2524D01*
G01X59941Y2819D01*
G01X59872Y3164D01*
G01X59941Y3510D01*
G01X60137Y3802D01*
G01X60431Y3997D01*
G01X60766Y4066D01*
G01X62077Y4066D01*
G01X62077Y2263D01*
G01X60766Y2263D01*
G37*
G36*
G01X60766Y4262D02*
G01X60431Y4328D01*
G01X60137Y4523D01*
G01X59941Y4818D01*
G01X59872Y5163D01*
G01X59941Y5509D01*
G01X60137Y5803D01*
G01X60431Y5999D01*
G01X60766Y6065D01*
G01X62077Y6065D01*
G01X62077Y4262D01*
G01X60766Y4262D01*
G37*
G36*
G01X60766Y22263D02*
G01X60431Y22329D01*
G01X60137Y22524D01*
G01X59941Y22819D01*
G01X59872Y23164D01*
G01X59941Y23510D01*
G01X60137Y23802D01*
G01X60431Y23997D01*
G01X60766Y24066D01*
G01X62077Y24066D01*
G01X62077Y22263D01*
G01X60766Y22263D01*
G37*
G36*
G01X60766Y20261D02*
G01X60431Y20330D01*
G01X60137Y20525D01*
G01X59941Y20817D01*
G01X59872Y21163D01*
G01X59941Y21508D01*
G01X60137Y21803D01*
G01X60431Y21998D01*
G01X60766Y22064D01*
G01X62077Y22064D01*
G01X62077Y20261D01*
G01X60766Y20261D01*
G37*
G36*
G01X373Y1257D02*
G01X373Y3060D01*
G01X1686Y3060D01*
G01X2021Y2994D01*
G01X2316Y2799D01*
G01X2509Y2504D01*
G01X2580Y2159D01*
G01X2509Y1813D01*
G01X2316Y1518D01*
G01X2021Y1323D01*
G01X1686Y1257D01*
G01X373Y1257D01*
G37*
G36*
G01X373Y3256D02*
G01X373Y5059D01*
G01X1686Y5059D01*
G01X2021Y4993D01*
G01X2316Y4798D01*
G01X2509Y4503D01*
G01X2580Y4157D01*
G01X2509Y3812D01*
G01X2316Y3520D01*
G01X2021Y3324D01*
G01X1686Y3256D01*
G01X373Y3256D01*
G37*
G36*
G01X373Y5257D02*
G01X373Y7061D01*
G01X1686Y7061D01*
G01X2021Y6992D01*
G01X2316Y6797D01*
G01X2509Y6504D01*
G01X2580Y6159D01*
G01X2509Y5814D01*
G01X2316Y5519D01*
G01X2021Y5323D01*
G01X1686Y5257D01*
G01X373Y5257D01*
G37*
G36*
G01X373Y7256D02*
G01X373Y9060D01*
G01X1686Y9060D01*
G01X2021Y8994D01*
G01X2316Y8798D01*
G01X2509Y8503D01*
G01X2580Y8158D01*
G01X2509Y7813D01*
G01X2316Y7520D01*
G01X2021Y7325D01*
G01X1686Y7256D01*
G01X373Y7256D01*
G37*
G36*
G01X373Y9258D02*
G01X373Y11061D01*
G01X1686Y11061D01*
G01X2021Y10993D01*
G01X2316Y10797D01*
G01X2509Y10505D01*
G01X2580Y10160D01*
G01X2509Y9814D01*
G01X2316Y9519D01*
G01X2021Y9324D01*
G01X1686Y9258D01*
G01X373Y9258D01*
G37*
G36*
G01X373Y11257D02*
G01X373Y13060D01*
G01X1686Y13060D01*
G01X2021Y12994D01*
G01X2316Y12799D01*
G01X2509Y12504D01*
G01X2580Y12158D01*
G01X2509Y11813D01*
G01X2316Y11518D01*
G01X2021Y11323D01*
G01X1686Y11257D01*
G01X373Y11257D01*
G37*
G36*
G01X373Y13256D02*
G01X373Y15059D01*
G01X1686Y15059D01*
G01X2021Y14993D01*
G01X2316Y14798D01*
G01X2509Y14503D01*
G01X2580Y14157D01*
G01X2509Y13812D01*
G01X2316Y13520D01*
G01X2021Y13324D01*
G01X1686Y13256D01*
G01X373Y13256D01*
G37*
G36*
G01X373Y15257D02*
G01X373Y17061D01*
G01X1686Y17061D01*
G01X2021Y16992D01*
G01X2316Y16797D01*
G01X2509Y16504D01*
G01X2580Y16159D01*
G01X2509Y15814D01*
G01X2316Y15519D01*
G01X2021Y15323D01*
G01X1686Y15257D01*
G01X373Y15257D01*
G37*
G36*
G01X373Y17256D02*
G01X373Y19060D01*
G01X1686Y19060D01*
G01X2021Y18994D01*
G01X2316Y18798D01*
G01X2509Y18503D01*
G01X2580Y18158D01*
G01X2509Y17813D01*
G01X2316Y17520D01*
G01X2021Y17325D01*
G01X1686Y17256D01*
G01X373Y17256D01*
G37*
G36*
G01X373Y19258D02*
G01X373Y21061D01*
G01X1686Y21061D01*
G01X2021Y20993D01*
G01X2316Y20797D01*
G01X2509Y20505D01*
G01X2580Y20159D01*
G01X2509Y19814D01*
G01X2316Y19519D01*
G01X2021Y19324D01*
G01X1686Y19258D01*
G01X373Y19258D01*
G37*
G36*
G01X373Y21257D02*
G01X373Y23060D01*
G01X1686Y23060D01*
G01X2021Y22994D01*
G01X2316Y22799D01*
G01X2509Y22504D01*
G01X2580Y22158D01*
G01X2509Y21813D01*
G01X2316Y21518D01*
G01X2021Y21323D01*
G01X1686Y21257D01*
G01X373Y21257D01*
G37*
G36*
G01X373Y23256D02*
G01X373Y25059D01*
G01X1686Y25059D01*
G01X2021Y24993D01*
G01X2316Y24798D01*
G01X2509Y24503D01*
G01X2580Y24157D01*
G01X2509Y23812D01*
G01X2316Y23520D01*
G01X2021Y23324D01*
G01X1686Y23256D01*
G01X373Y23256D01*
G37*
G36*
G01X39916Y21333D02*
G01X39916Y23736D01*
G01X41617Y23736D01*
G01X41617Y21333D01*
G01X39916Y21333D01*
G37*
G36*
G01X52915Y21333D02*
G01X52915Y23736D01*
G01X54617Y23736D01*
G01X54617Y21333D01*
G01X52915Y21333D01*
G37*
G54D30*
G01X44267Y22535D03*
G01X47267Y22535D03*
G01X50267Y22535D03*
G36*
G01X57137Y3797D02*
G01X57137Y5600D01*
G01X58940Y5600D01*
G01X58940Y3797D01*
G01X57137Y3797D01*
G37*
G54D35*
G01X55499Y4699D03*
G01X58039Y2159D03*
G01X55499Y2159D03*
G54D36*
G01X21945Y2222D03*
G01X24485Y2222D03*
G01X27025Y2222D03*
G01X29565Y2222D03*
G01X32105Y2222D03*
G01X34645Y2222D03*
G01X37185Y2222D03*
G01X39725Y2222D03*
G01X42265Y2222D03*
G01X44805Y2222D03*
G01X47345Y2222D03*
G01X49885Y2222D03*
G01X49936Y17335D03*
G01X47396Y17335D03*
G01X44856Y17335D03*
G01X42316Y17335D03*
G01X39776Y17335D03*
G01X37236Y17335D03*
G01X34696Y17335D03*
G01X32156Y17335D03*
G01X29616Y17335D03*
G01X27076Y17335D03*
G01X24536Y17335D03*
G01X21996Y17335D03*
G54D37*
G01X61849Y10961D03*
G01X61849Y15962D03*
G54D38*
G01X22749Y22606D03*
G01X24748Y22606D03*
G01X29988Y22606D03*
G01X31987Y22606D03*
M00*
M02*
